<?xml version="1.0" standalone="no"?>
<!DOCTYPE svg PUBLIC "-//W3C//DTD SVG 1.1//EN" "http://www.w3.org/Graphics/SVG/1.1/DTD/svg11.dtd" >
<!--
2013-9-30: Created.
-->
<svg>
<metadata>
Created by iconfont
</metadata>
<defs>

<font id="iconfont" horiz-adv-x="1024" >
  <font-face
    font-family="iconfont"
    font-weight="500"
    font-stretch="normal"
    units-per-em="1024"
    ascent="896"
    descent="-128"
  />
    <missing-glyph />
    
    <glyph glyph-name="home" unicode="&#58899;" d="M931.56875 443.03333334L520.26875 755.95208334C519.65 756.34583334 518.975 756.45833334 518.4125 756.85208334 516.725 757.92083334 514.98125 758.65208334 513.125 759.38333334 511.49375 760.00208334 509.975 760.62083334 508.2875 760.90208334 506.4875 761.23958334 504.74375 761.23958334 502.8875 761.23958334c-1.8 0-3.4875-0.05625-5.2875-0.39375-1.6875-0.3375-3.2625-1.0125-4.89375-1.6875C490.90625 758.42708334 489.21875 757.63958334 487.5875 756.51458334c-0.5625-0.39375-1.29375-0.50625-1.85625-0.95625l-393.75-312.8625C79.83125 433.02083334 77.75 415.30208334 87.425 403.15208334 92.99375 396.17708334 101.20625 392.52083334 109.475 392.52083334c6.13125 0 16.70625 2.025 21.88125 6.075L174.5 429.42083334l0-339.24375C174.5 28.077083339999945 216.06875 3.8333333399999674 278.225 3.8333333399999674l450 0C790.325 3.8333333399999674 849.5 28.077083339999945 849.5 90.17708333999997L849.5 441.45833334l52.425-43.2c5.0625-3.88125 8.8875-5.7375 14.79375-5.7375 8.49375 0 15.80625 3.825 21.31875 11.08125C947.43125 415.97708334 943.94375 433.63958334 931.56875 443.03333334zM455.75 60.08333333999997l0 86.34375c0 30.99375 25.25625 56.25 56.25 56.25s56.25-25.25625 56.25-56.25L568.25 60.08333333999997 455.75 60.08333333999997zM793.25 475.15208334l0-384.975C793.25 59.12708334000001 759.275 60.08333333999997 728.225 60.08333333999997L624.5 60.08333333999997l0 86.34375c0 62.04375-50.45625 112.5-112.5 112.5s-112.5-50.45625-112.5-112.5L399.5 60.08333333999997 278.225 60.08333333999997C247.175 60.08333333999997 230.75 59.12708334000001 230.75 90.17708333999997L230.75 474.13958334l277.25625 223.81875L793.25 475.15208334z"  horiz-adv-x="1024" />

    
    <glyph glyph-name="email" unicode="&#59230;" d="M840.44726563 665.25l-651.26953125 0c-39.19921875 0-70.92773438-31.72851563-70.92773438-70.92773438l0-420.64453124c0-39.19921875 31.72851563-70.92773438 70.92773438-70.92773438l651.26953125 0c39.19921875 0 70.92773438 31.72851563 70.92773437 70.92773438l0 420.64453124C911.375 633.52148438 879.64648438 665.25 840.44726563 665.25zM189.17773437 621.3046875l651.26953125 0c14.85351563 0 26.98242188-12.12890625 26.98242188-26.98242188l0-75.58593749L513.7578125 365.71874999 162.1953125 517.85742188l0 76.46484374C162.1953125 609.17578125 174.32421875 621.3046875 189.17773437 621.3046875zM840.44726563 146.6953125l-651.26953125 0c-14.85351563 0-26.98242188 12.12890625-26.98242188 26.98242188L162.1953125 469.95703125l351.5625-152.13867188 353.671875 153.01757813 0-297.15820313C867.4296875 158.82421875 855.30078125 146.6953125 840.44726563 146.6953125z"  horiz-adv-x="1024" />

    
    <glyph glyph-name="qq" unicode="&#58901;" d="M651.34162637-9.349209080000037c-49.72188867 0-95.80394531 12.81810938-125.41546846 34.58065429-9.73320117-0.51175283-18.32867315-0.51175283-27.94765166 0.02518331-29.6097249-21.78772823-75.69357979-34.6058376-125.43345615-34.6058376-93.76682607 0-161.81918701 41.6732458-161.81918701 99.10380762 0 27.93595957 16.5253957 52.97048613 46.14321533 70.91332118-0.44699677 0.67454297-0.89309443 1.34728682-1.33829297 2.03891749-17.33934375-12.58246933-36.61957177-16.18003037-54.26740634-10.26204258-52.82028808 17.81242295-55.70013516 109.34336513-31.6054714 186.44628955 12.8936584 41.20736133 36.69871817 73.50986074 56.5509586 94.94772539-0.20955761 2.76832266-0.3066917 5.49797256-0.3066917 8.18714882 0 22.34534942 5.83974052 44.07191895 17.35823145 64.69313819l0 0.95605137c0 148.68898857 120.61812128 269.67675938 268.88889375 269.67675937 148.25188565 0 268.86371045-120.98776992 268.86371045-269.67675937l0-0.28870401c11.77031953-20.80559356 17.73327656-42.74801719 17.73327656-65.35958642 0-2.96079258-0.12231738-5.89460362-0.35166182-8.86169179 19.60670654-21.32274287 43.14195-53.37161367 55.93127872-94.25699385 24.11984708-77.10112529 21.2328044-168.65005518-31.62345909-186.4795667-17.66492315-5.93777461-36.80844346-2.32852148-54.1109127 10.16490849-0.44519854-0.69073154-0.89129531-1.36437539-1.35628066-2.05690518 29.49550224-17.94283506 45.94984629-42.91800117 45.94984629-70.78111083C813.17970019 32.32403671999998 745.11115068-9.349209080000037 651.34162637-9.349209080000037L651.34162637-9.349209080000037zM532.29114248 65.02766367000004c4.7442832 0 9.34916133-1.69085391 12.95301797-4.78745419 21.75175195-18.65425253 62.41498242-30.23839863 106.09836504-30.23839864 67.39490654 0 122.20554463 26.80362685 122.20554462 59.7527877 0 17.48774356-15.85265185 34.06620323-43.51069951 45.51723896-5.71292666 2.35820127-9.98592979 7.24189043-11.55266718 13.17966416-1.5676374 5.95396318-0.23474092 12.27577675 3.57867334 17.11899316 9.30689033 11.75952744 17.57498379 24.37797217 24.59742275 37.47938906 3.09750029 5.78757568 8.88327685 9.66574687 15.42903926 10.34118897 6.71304815 0.72670693 13.06094502-1.92019834 17.25929824-6.93609697 7.74015205-9.16118877 20.16792598-20.27045654 30.66021211-16.75114278 20.243475 6.83086904 27.67063886 69.72072891 6.46121953 137.52216036-11.9223167 38.13684346-35.43957158 67.49653711-53.05053164 85.3863082-4.41150908 4.49245372-6.42434414 10.7782919-5.38105165 16.96070039 0.71681396 4.34315566 1.06577754 8.41649326 1.06577753 12.45205723 0 17.13608174-5.03208809 33.96727002-14.98384072 50.02678213-2.14414628 3.45815508-3.16945107 7.51260674-2.90503037 11.58504521 0.10342969 1.34728682 0.15829277 2.67568594 0.15829277 4.03646309 0 126.99839531-102.82728339 230.32483945-229.23118125 230.32483945-126.39850224 0-229.24287334-103.32734414-229.24287334-230.32483945 0-1.51547256 0.07644815-3.03813984 0.19336905-4.51224053 0.26891807-4.05445078-0.71771308-8.10710332-2.84567081-11.5841461-9.75658535-15.9353956-14.71132529-32.607392-14.71132529-49.55280292 0-3.86198174 0.331875-7.83908526 0.98753027-11.98887188 0.9893294-6.16531992-1.02350566-12.40888711-5.41702705-16.84737773-17.8286124-18.02737705-41.59230029-47.57504414-53.59286425-85.96371622-21.18963339-67.81941826-13.78315459-130.69039219 6.48550282-137.50597089 10.68565518-3.68570127 22.99470997 7.64571621 30.77443477 16.89054785 4.23612773 5.01140214 10.62449648 7.62143291 17.27908506 6.93519785 6.5628501-0.67184473 12.37201172-4.5716001 15.44702696-10.3555793 6.96667675-13.04835293 15.23027373-25.69108183 24.57763593-37.54144687 3.81521338-4.84321641 5.12832305-11.18211855 3.54359707-17.12438965-1.56583828-5.95666143-5.84513701-10.81516729-11.57155488-13.17966416-27.75428262-11.42855156-43.68248349-28.04928222-43.68248349-45.59008975 0-32.94916084 54.80793984-59.75278769 122.17856308-59.75278769 43.70226943 0 84.3654999 11.58414609 106.14153604 30.26088281 3.96631055 3.4167832 9.01638721 5.21016768 14.47748437 4.72809463 13.29478594-1.02260654 23.98134023-1.03969511 37.66196514-0.01708857C531.30900869 65.00967509999998 531.80996856 65.02766367000004 532.29114248 65.02766367000004L532.29114248 65.02766367000004zM532.29114248 65.02766367000004"  horiz-adv-x="1024" />

    
    <glyph glyph-name="checked" unicode="&#58929;" d="M870.53992308 620.74055573l-4.69485923 4.68565377c-9.05831537 9.05831537-23.74125712 9.05831537-32.79957249 0L408.88801236 201.27793727000005 190.95450864 419.22064644c-9.05831537 9.0491099-23.75046259 9.0491099-32.80877795 0l-4.68565377-4.68565376c-9.05831537-9.05831537-9.05831537-23.75046259 0-32.80877796l234.31948178-234.31948177c0-0.00920546 0.00920546-0.01841091 0.01841091-0.02761638l4.68565378-4.68565376c9.05831537-9.05831537 23.75046259-9.05831537 32.79957249 0l4.68565376 4.68565376c0.00920546 0.00920546 0.00920546 0.01841091 0.01841094 0.02761638l440.53425029 440.52504482C879.59823844 596.9992999 879.59823844 611.6822403599999 870.53992308 620.74055573z"  horiz-adv-x="1024" />

    
    <glyph glyph-name="weibo" unicode="&#58896;" d="M487.1613454-7.68648091c-108.90794818 0-225.45855955 28.6599862-301.88519071 106.99728239-68.78396719 72.60529878-85.97995938 181.51324697-40.12398099 275.13586953 51.58797578 106.99728238 160.49592396 200.61990495 275.13586954 240.74388593 21.01732301 7.64266319 40.12398099 11.46399479 57.31997317 13.37466059 19.10665798 1.91066579 32.48131779 0 45.85597838-3.82133159 11.46399479-3.82133159 21.01732301-9.55332898 30.57065199-17.19599219s15.28532639-17.19599218 19.10665723-28.6599862c3.82133159-9.55332898 5.73199739-19.10665798 7.64266319-26.74932039 1.91066579-7.64266319 1.91066579-17.19599218 1.91066579-24.83865538v-3.8213316c0-3.82133159-1.91066579-7.64266319-3.8213316-13.37465982 0-3.82133159-1.91066579-5.73199739-1.91066579-7.64266319 1.91066579 0 3.82133159 1.91066579 5.73199739 1.91066579l11.46399479 5.7319974c9.55332898 3.82133159 22.9279888 7.64266319 36.30264939 11.46399479 13.37466059 3.82133159 28.6599862 7.64266319 43.94531259 9.55332823 17.19599218 1.91066579 34.39198359 1.91066579 51.58797577 0 19.10665798-3.82133159 34.39198359-11.46399479 45.85597762-22.92798882 7.64266319-7.64266319 13.37466059-15.28532639 17.19599218-22.92798957 3.82133159-7.64266319 5.73199739-15.28532639 7.64266319-22.9279888 1.91066579-7.64266319 1.91066579-15.28532639 0-22.92798881 0-7.64266319-1.91066579-13.37466059-3.82133159-19.10665799l-5.7319974-17.19599141c-1.91066579-3.82133159-3.82133159-7.64266319-3.82133159-9.55332899h1.91066579c9.55332898-1.91066579 19.10665798-3.82133159 32.4813178-9.55332899 11.46399479-5.73199739 24.8386546-13.37466059 38.2133152-24.8386546 13.37466059-11.46399479 24.8386546-24.8386546 32.48131779-40.12398099 9.55332898-15.28532639 13.37466059-36.30264939 13.37466059-61.14130478 0-22.9279888-7.64266319-47.76664418-19.10665721-74.51596458-21.01732301-42.03464678-55.40930738-80.24796198-103.17595156-110.81861397-47.76664418-30.57065199-99.35461919-51.58797578-154.76392657-63.05197057-40.12398099-11.46399479-87.89062518-17.19599218-137.56793437-17.19599142z m5.73199662 599.94904906h-11.46399401c-13.37466059-1.91066579-30.57065199-5.73199739-47.7666442-11.4639948-106.99728238-36.30264939-206.35190233-124.19327456-254.11854651-221.63722795-38.21331519-78.33729619-24.8386546-170.04925295 32.48131856-231.19055772 91.71195677-97.44395416 269.40387213-110.81861398 405.06114072-82.158627 49.67730998 11.46399479 99.35461919 30.57065199 141.38926674 57.31997239s72.60529878 59.23063898 89.8012902 95.53328837c9.55332898 21.01732301 15.28532639 40.12398099 15.2853264 59.23063819 0 17.19599218-1.91066579 30.57065199-7.6426632 40.12398099-5.73199739 11.46399479-15.28532639 21.01732301-24.8386546 28.65998621-9.55332898 9.55332898-19.10665798 15.28532639-28.6599862 19.10665798-9.55332898 3.82133159-17.19599218 5.73199739-22.92798958 7.6426632-15.28532639 3.82133159-26.74932039 7.64266319-32.4813178 17.1959914-7.64266319 9.55332898-7.64266319 22.9279888-1.91066579 32.48131857l3.82133159 7.64266241c0 1.91066579 1.91066579 3.82133159 3.8213316 7.6426632s1.91066579 5.73199739 3.82133159 9.55332899c0 3.82133159 1.91066579 7.64266319 1.91066579 13.3746606v13.37465981c0 3.82133159-1.91066579 9.55332898-3.82133159 13.37466058-1.91066579 3.82133159-5.73199739 9.55332898-9.55332898 13.3746606-5.73199739 5.73199739-15.28532639 11.46399479-26.74932041 13.37465981-13.37466059 1.91066579-26.74932039 1.91066579-38.21331518 0-13.37466059-1.91066579-28.6599862-5.73199739-40.123981-7.64266319-13.37466059-3.82133159-22.9279888-7.64266319-30.570652-9.55332823l-15.28532638-5.73199739c-7.64266319-1.91066579-13.37466059-3.82133159-19.10665798-3.8213316-7.64266319-1.91066579-15.28532639 0-21.01732302 1.91066581-3.82133159 1.91066579-7.64266319 3.82133159-9.55332899 5.73199738-3.82133159 3.82133159-9.55332898 11.46399479-9.55332899 22.92798881 0 3.82133159 0 7.64266319 1.9106658 9.55332899 0 3.82133159 1.91066579 7.64266319 1.9106658 15.28532562 1.91066579 3.82133159 1.91066579 7.64266319 1.9106658 11.46399479 0 5.73199739 0 11.46399479-1.9106658 17.19599219 0 5.73199739-1.91066579 11.46399479-5.73199739 19.1066572-1.91066579 5.73199739-5.73199739 9.55332898-9.55332822 13.37466059-3.82133159 3.82133159-11.46399479 7.64266319-17.19599218 9.55332899 0-3.82133159-5.73199739-1.91066579-13.37466059-1.91066579zM473.78668481 57.276154700000006c-135.65726935 0-244.56521753 78.33729619-244.56521754 175.78125033s110.81861398 175.78125035 244.56521754 175.78124957 244.56521753-78.33729619 244.56521753-175.78124958-108.90794818-175.78125035-244.56521753-175.78125033z m0 311.43851891c-114.63994557 0-206.35190233-61.14130401-206.35190234-137.56793438s93.62262256-137.56793515 206.35190234-137.56793515 206.35190233 61.14130401 206.35190235 137.56793515-91.71195677 137.56793515-206.35190235 137.56793438zM473.78668481 166.18410364c-36.30264939 0-64.9626356 28.6599862-64.9626356 64.96263559s28.6599862 64.9626356 64.9626356 64.96263559 64.9626356-28.6599862 64.96263559-64.96263559-28.6599862-64.9626356-64.96263559-64.96263559z m0 91.71195599c-15.28532639 0-26.74932039-11.46399479-26.7493204-26.7493204s11.46399479-26.74932039 26.7493204-26.7493204 26.74932039 11.46399479 26.7493204 26.7493204-11.46399479 26.74932039-26.7493204 26.7493204zM775.67187475 565.51324697c-15.28532639 22.9279888-38.21331519 36.30264939-64.9626356 42.03464678-26.74932039 3.82133159-53.49864157-1.91066579-74.51596459-17.19599141l-21.01732377 30.57065199c63.0519698 43.94531258 149.03192918 28.6599862 192.97724252-34.39198359l-32.48131856-21.01732377zM869.29449731 647.67187475c-66.87330139 95.53328837-196.79857335 118.46127717-292.33186171 51.58797577l-21.01732302 30.57065201c112.72927977 78.33729619 267.49320634 51.58797578 345.83050253-61.14130401l-32.4813178-21.01732377z"  horiz-adv-x="1024" />

    
    <glyph glyph-name="right" unicode="&#58889;" d="M716.257 399.684a30.45 30.45 0 0 1-4.85 6.326L351.423 765.994c-11.94 11.939-31.476 11.939-43.415 0s-11.939-31.476 0-43.415l338.76-338.76-338.4-338.398c-11.939-11.94-11.939-31.476 0-43.415 11.94-11.939 31.476-11.939 43.415 0L711.768 361.99c10.182 10.18 11.674 25.884 4.489 37.693z"  horiz-adv-x="1024" />

    
    <glyph glyph-name="barchart" unicode="&#58979;" d="M449.70751953 559.83618164m-28.83911133 0a28.83911133 28.83911133 0 1 1 57.67822266 0 28.83911133 28.83911133 0 1 1-57.67822266 0ZM115.17382812-36.55664062999995H912.61645508c31.80541992 0 31.80541992 49.43847656 0 49.43847657H115.17382812c-31.80541992 0-31.80541992-49.43847656 1e-8-49.43847656zM329.73681641 134.99487305000002H194.93457031l24.71923828-24.71923828v225.76904296 187.86621094l-24.71923828-24.71923828h134.8022461l-24.71923829 24.71923828v-413.6352539c0-31.80541992 49.43847656-31.80541992 49.43847657 0v225.76904296 187.86621094c0 13.51318359-11.20605469 24.71923828-24.71923828 24.71923828H194.93457031c-13.51318359 0-24.71923828-11.20605469-24.71923828-24.71923828v-413.6352539c0-13.51318359 11.20605469-24.71923828 24.71923828-24.71923829h134.8022461c31.97021484 0 31.97021484 49.43847656 0 49.43847657zM449.21313477 623.94140625h134.80224609l-24.71923828 24.71923828V110.44042968999997l24.71923828 24.71923828h-134.80224609l24.71923828-24.71923828V351.53540038999995v101.84326172c0 31.80541992-49.43847656 31.80541992-49.43847657 0V110.44042968999997c0-13.51318359 11.20605469-24.71923828 24.71923829-24.71923828h134.80224609c13.51318359 0 24.71923828 11.20605469 24.71923828 24.71923828V306.21679687000005 600.87011719v47.79052734c0 13.51318359-11.20605469 24.71923828-24.71923828 24.71923828h-134.80224609c-31.80541992 0-31.80541992-49.43847656 0-49.43847656zM838.45874023 134.99487305000002h-134.80224609l24.71923828-24.71923828V279.19042969 596.58544922 778.35424805v0.49438476l-24.71923828-24.71923828h134.80224609l-24.71923828 24.71923828V110.27563477000001c0-31.80541992 49.43847656-31.80541992 49.43847657 0V279.19042969 596.58544922 778.35424805v0.49438476c0 13.51318359-11.20605469 24.71923828-24.71923829 24.71923828h-134.80224609c-13.51318359 0-24.71923828-11.20605469-24.71923828-24.71923828V110.27563477000001c0-13.51318359 11.20605469-24.71923828 24.71923828-24.71923829h134.80224609c31.80541992 0 31.80541992 49.43847656 0 49.43847657z"  horiz-adv-x="1027" />

    
    <glyph glyph-name="close" unicode="&#58903;" d="M512 431.734154L337.053538 606.72a33.752615 33.752615 0 1 1-47.734153-47.734154L464.226462 384l-174.985847-174.946462a33.752615 33.752615 0 1 1 47.734154-47.734153L512 336.22646199999997l174.946462-174.985847a33.752615 33.752615 0 1 1 47.734153 47.734154L559.773538 384l174.985847 174.946462a33.752615 33.752615 0 1 1-47.734154 47.734153L512 431.773538z"  horiz-adv-x="1024" />

    
    <glyph glyph-name="layout1" unicode="&#58943;" d="M880.99507109 4.96728427000005H482.61647217c-13.65364248 0-24.70265156 11.05080732-24.70265157 24.70175245V340.67547392999995c0 6.56105185 2.60463427 12.83429795 7.23649307 17.51382597a24.83756016 24.83756016 0 0 0 17.4661585 7.18882559h0.0485666l398.3785998-1.0621793c13.65454248-0.04766748 24.65408497-11.09667656 24.65408409-24.70355156v-309.94335791c0-13.65094424-11.04810908-24.70175244-24.70265157-24.70175245z m-373.67594736 49.4089005h348.9732958V314.95831054999996l-348.9732958 0.96594521v-261.54807099zM379.17400625 4.96728427000005H143.00223067c-13.65454248 0-24.70265156 11.05080732-24.70265157 24.70175245V738.33096328a24.71524277 24.71524277 0 0 0 7.33272803 17.56149346c4.68042627 4.63275878 10.66317011 7.14025898 17.61096006 7.14025899l236.17087558-2.41216437c13.5574084-0.14390244 24.46161503-11.14524316 24.46161504-24.70265156v-706.24886308c0.00089912-13.65094424-11.04720997-24.70175244-24.70175156-24.70175244z m-211.46912402 49.4089005h186.76647246V711.45718388l-186.76647247 1.93009132v-659.01109043zM880.99507109 402.72170683H482.61647217c-13.65364248 0-24.70265156 11.04810908-24.70265157 24.70175245V738.33096328c0 6.56195097 2.60463427 12.83339883 7.23649307 17.51382597a24.84385576 24.84385576 0 0 0 17.4661585 7.18792648h0.0485666l398.3785998-1.06128018c13.65454248-0.04856748 24.65408497-11.09577744 24.65408409-24.70175245v-309.84622382c0-13.65364248-11.04810908-24.70175244-24.70265157-24.70175244z m-373.67594736 49.40440401h348.9732958V712.6137999l-348.9732958 0.96504521v-261.45273427z"  horiz-adv-x="1024" />

    
    <glyph glyph-name="switch" unicode="&#58988;" d="M512.00281304-37.875C279.00830048-37.875 90.125 151.00267438000003 90.125 383.99718696S279.00830048 805.875 512.00281304 805.875s421.87781305-188.88330048 421.87781306-421.87781305c-0.0056261-232.99451258-188.88330048-421.87218695-421.87781305-421.87218695z m0 791.01457031c-203.87019892 0-369.14238336-165.27218445-369.14238335-369.14238335 0-203.87019892 165.27218445-369.14238336 369.14238335-369.14238254 203.87019892 0 369.14238336 165.27218445 369.14238254 369.14238254-0.0056261 203.87582419-165.27218445 369.14238336-369.14238253 369.14238335z m210.93609348-474.60761746H366.39249365l86.21967151-90.56272055c10.08127661-10.58759088 8.51170303-26.37334094-3.49919357-35.25634094-12.01089661-8.883-29.92316528-7.50470059-40.0044419 3.08289029L289.36523697 281.56983764999995c-8.60734012 4.33742459-14.67185833 13.02915042-14.67185834 23.32983086 0 0.56819723 0.28691125 1.04638267 0.32629148 1.60895381 0.03938022 2.17152493 0.60195136 4.21928476 1.27703705 6.31204924 0.34316812 1.0745115 0.55694586 2.16027356 1.03513046 3.17290211 0.65820822 1.33891919 1.59207632 2.5034425 2.52031914 3.74109851 1.40642825 2.00275351 2.93099633 3.7917301 4.8268614 5.33317565 0.07313435 0.05625686 0.09563708 0.13501731 0.16877141 0.18564808 0.11251455 0.08438572 0.25878241 0.09563708 0.37129697 0.1800228a25.62512091 25.62512091 0 0 0 9.46807471 4.54557623c0.06750823 0.01687747 0.14064258 0.02250275 0.20815165 0.04500549 2.03088235 0.50068818 3.977379 1.24328211 6.16578058 1.24328293h421.87781304a26.36208957 26.36208957 0 1 0 0-52.73543051z m24.76438632 176.64737559c-0.34316812-1.0745115-0.55694586-2.16027356-1.03513046-3.17290211-0.65820822-1.33891919-1.59207632-2.5034425-2.52031914-3.74109851-1.40642825-2.00837961-2.93099633-3.7917301-4.8268614-5.33317565-0.07313435-0.05625686-0.09563708-0.13501731-0.16877142-0.18564808-0.11251455-0.08438572-0.25878241-0.09563708-0.37129696-0.1800228a25.62512091 25.62512091 0 0 0-9.46807471-4.54557623l-0.20815165-0.03938021c-2.03088235-0.50068818-3.977379-1.24328211-6.16578058-1.24328211H301.06109348a26.36208957 26.36208957 0 1 0 0 52.73542969h356.54641287L571.38783484 580.0307677000001c-10.08127661 10.58759088-8.51170303 26.37334094 3.49919358 35.25634094 12.01089661 8.883 29.92316528 7.50470059 40.00444189-3.08289029l119.74329272-125.774056c8.60734012-4.33742459 14.67185833-13.02915042 14.67185834-23.32983086 0-0.56819723-0.28691125-1.04638267-0.32629148-1.60895381-0.03938022-2.17152493-0.60195136-4.21365866-1.27703705-6.31204924z"  horiz-adv-x="1024" />

    
    <glyph glyph-name="pop" unicode="&#58934;" d="M795.10032931 7.226768409999977H229.59354434c-52.04050161 0-94.36677669 42.32627431-94.36677592 94.36677593V666.40645566c0 52.04050161 42.32627431 94.36677669 94.36677592 94.36677592h565.50678497c52.04050161 0 94.36677669-42.32627431 94.36677593-94.36677592v-565.50678497c-0.69387365-52.04050161-42.32627431-93.67290305-94.36677593-93.67290228z m46.48951469 659.17968725c0 26.36718725-20.81620033 47.18338836-47.18338834 47.18338834H229.59354434c-26.36718725 0-47.18338836-20.81620033-47.18338834-47.18338834v-94.36677669h659.87356089V666.40645566z m0-140.85629139h-659.179688v-423.95661993c0-26.36718725 20.81620033-47.18338836 47.18338834-47.18338834h565.50678497c26.36718725 0 47.18338836 20.81620033 47.18338758 47.18338834V525.55016427zM252.49136487 666.40645566c13.183594 0 23.59169417-10.40810017 23.59169416-23.59169417s-10.40810017-23.59169417-23.59169416-23.59169418-23.59169417 10.40810017-23.59169418 23.59169418c0.69387365 13.183594 11.10197383 23.59169417 23.59169418 23.59169417z m94.36677669 0c13.183594 0 23.59169417-10.40810017 23.59169417-23.59169417s-10.40810017-23.59169417-23.59169417-23.59169418-23.59169417 10.40810017-23.59169418 23.59169418 11.10197383 23.59169417 23.59169418 23.59169417z m94.36677591 0c13.183594 0 23.59169417-10.40810017 23.59169418-23.59169417s-10.40810017-23.59169417-23.59169418-23.59169418-23.59169417 10.40810017-23.59169416 23.59169418 10.40810017 23.59169417 23.59169416 23.59169417z"  horiz-adv-x="1024" />

    
    <glyph glyph-name="layout" unicode="&#58994;" d="M868.41241812 427.17690326H582.48537217c-24.2085882 0-43.98877658-19.78018839-43.98877658-43.98877658v-355.1577047c0-24.2085882 19.78018839-43.98877658 43.98877658-43.98877658h286.07465972c24.2085882 0 43.98877658 19.78018839 43.98877659 43.98877658V383.18812668c0 24.2085882-19.92780095 43.98877658-44.13639036 43.98877658z m10.62816123-399.14648128c0-5.75692011-4.87123991-10.62816124-10.62816122-10.62816124H582.48537217c-5.75692011 0-10.62816124 4.87123991-10.62816124 10.62816124V383.18812668c0 5.75692011 4.87123991 10.62816124 10.62816124 10.62816124h286.07465972c5.75692011 0 10.62816124-4.87123991 10.62816003-10.62816124v-355.1577047zM432.80544078 284.28718596H161.49211576c-28.48937544 0-51.9598972-23.32290799-51.95989721-51.95989721v-196.47335992c0-28.63698922 23.32290799-51.9598972 51.95989721-51.9598972H432.80544078c28.48937544 0 51.9598972 23.32290799 51.9598972 51.9598972V232.32728874999998c0 28.63698922-23.47052176 51.9598972-51.9598972 51.95989721z m18.45166808-248.28564336c0-10.03770736-8.41396072-18.45166808-18.45166808-18.45166808H161.49211576c-10.03770736 0-18.45166808 8.41396072-18.45166808 18.45166808v196.32574615c0 10.03770736 8.41396072 18.45166808 18.45166808 18.45166809H432.80544078c10.03770736 0 18.45166808-8.41396072 18.45166808-18.45166809v-196.32574615zM861.03175138 782.1869942H589.86603891c-28.48937544 0-51.9598972-23.32290799-51.95989719-51.959896v-196.47336114c0-28.48937544 23.32290799-51.9598972 51.95989719-51.95989719h271.31332624c28.48937544 0 51.9598972 23.32290799 51.95989599 51.95989719V730.2270982c-0.14761377 28.48937544-23.47052176 51.9598972-52.10750976 51.959896z m18.45166808-248.43325714c0-6.64260032-3.39510705-10.92338756-5.46169378-12.98997429-2.06658674-2.06658674-6.49498655-5.46169378-12.9899743-5.4616938H589.86603891c-10.03770736 0-18.45166808 8.41396072-18.45166808 18.45166809V730.2270982c0 10.03770736 8.41396072 18.45166808 18.45166808 18.45166688h271.31332624c10.03770736 0 18.45166808-8.41396072 18.45166686-18.45166688v-196.47336114zM154.70190167 338.60889623h286.07465973c24.2085882 0 43.98877658 19.78018839 43.98877658 43.98877657V737.75537873c0 24.2085882-19.78018839 43.98877658-43.98877658 43.98877536H154.70190167c-24.2085882 0-43.98877658-19.78018839-43.98877657-43.98877537v-355.15770591c-0.14761377-24.2085882 19.78018839-43.98877658 43.98877657-43.98877658z m-10.62816124 399.1464825c0 5.75692011 4.87123991 10.62816124 10.62816124 10.62816001h286.07465973c5.75692011 0 10.62816124-4.87123991 10.62816123-10.62816001v-355.15770593c0-3.69033338-1.91897297-6.19976021-3.09988072-7.38066674-1.18090653-1.18090653-3.69033338-3.09988072-7.38066674-3.09988072H154.70190167c-5.75692011 0-10.62816124 4.87123991-10.62816124 10.62816124V737.75537873z"  horiz-adv-x="1024" />

    
    <glyph glyph-name="down" unicode="&#59225;" d="M334.66058526 403.22130427c-29.16335819 35.12859054-15.24448269 63.62914512 30.48896536 63.62914512H613.70089877c45.73344805 0 58.98951997-29.16335819 30.48896538-63.62914512l-102.73455724-124.60707589c-28.50055458-35.12859054-76.22241343-34.46578693-104.72296802 0l-102.07175363 124.60707589z"  horiz-adv-x="1024" />

    
    <glyph glyph-name="youjiantou" unicode="&#58885;" d="M814.241 384l-604.497 254.525c0 0 104.935-171.34 108.301-254.51 3.353-83.183-108.301-254.5-108.30099999-254.5l604.49699999 254.491z"  horiz-adv-x="1024" />

    
    <glyph glyph-name="form" unicode="&#58942;" d="M851.34921875 685.46484375h-98.015625a19.20234375 19.20234375 0 0 1-19.18828125-19.29375 19.209375 19.209375 0 0 1 19.18828125-19.29375h98.00859375v-647.9015625H171.58203125V646.93359375h99.50625a19.30078125 19.30078125 0 0 1 19.29375 19.29375A19.24453125 19.24453125 0 0 1 271.08828125 685.46484375H171.58203125a38.56640625 38.56640625 0 0 1-38.53125-38.53125v-647.9015625a38.55234375 38.55234375 0 0 1 38.53125-38.48203125h679.809375a38.5453125 38.5453125 0 0 1 38.48203125 38.48203125V646.93359375c-0.04921875 21.25546875-17.325 38.53125-38.52421875 38.53125z m-492.8484375-39.71953125h305.88046875c10.65234375 0 19.28671875 8.64140625 19.28671875 19.2375s-8.64140625 19.29375-19.28671875 19.29375h-59.0625c0.253125 2.5875 0.675 5.16796875 0.675 7.81171875 0 52.13671875-42.4125 94.5421875-94.54921875 94.5421875-52.0875 0-94.54921875-42.4125-94.54921875-94.5421875 0-2.69296875 0.41484375-5.22421875 0.72421875-7.81171875h-59.11875c-10.65234375 0-19.29375-8.64140625-19.29375-19.29375s8.64140625-19.2375 19.29375-19.2375z m96.92578125 46.34296875c0 30.87421875 25.13671875 56.0109375 56.0109375 56.0109375 30.9234375 0 55.9546875-25.13671875 55.9546875-56.0109375 0-2.7421875-0.61875-5.22421875-0.984375-7.81171875h-109.8984375c-0.41484375 2.5875-1.0828125 5.06953125-1.0828125 7.81171875zM317.796875 457.27265625h387.3796875a19.2796875 19.2796875 0 0 1 19.2375 19.29375 19.23046875 19.23046875 0 0 1-19.2375 19.2375H317.796875a19.24453125 19.24453125 0 0 1-19.29375-19.2375 19.29375 19.29375 0 0 1 19.29375-19.29375z m0-165.60703125h387.3796875a19.3078125 19.3078125 0 0 1 19.2375 19.28671875 19.31484375 19.31484375 0 0 1-19.2375 19.29375H317.796875a19.28671875 19.28671875 0 1 1 0-38.58046875z m0-165.5578125h387.3796875c10.603125 0 19.2375 8.690625 19.2375 19.29375s-8.64140625 19.28671875-19.2375 19.28671875H317.796875a19.28671875 19.28671875 0 1 1 0-38.58046875z"  horiz-adv-x="1024" />

    
    <glyph glyph-name="wechat" unicode="&#58918;" d="M930.125 508.78125c0 140.15625-136.40625 256.96875-303.65625 256.96875-124.3125 0-233.625-62.625-280.3125-156 15.84375 0 30.84375 3.75 46.6875 3.75 46.6875 66.375 132.65625 113.0625 233.625 113.0625 147.65625 0 264.46875-97.125 264.46875-217.6875 0-57.9375-27.09375-113.0625-77.53125-156-12.1875-7.5-15.84375-27.09375-12.1875-39.28125l15.84375-54.1875-78.46875 31.78125c0-12.1875-3.75-27.09375-7.5-39.28125l143.90625-54.1875-35.53125 128.90625c55.125 42 90.65625 108.28125 90.65625 182.15625z m-533.53125 66.28125C229.34375 575.0625 92.9375 458.25 92.9375 318.09375c0-73.78125 34.59375-140.15625 93.46875-186.84375l-35.53125-128.90625 171 66.375c23.34375-3.75 50.4375-7.5 77.53125-7.5 167.25 0 303.65625 113.0625 303.65625 256.96875 0.9375 140.0625-135.46875 256.875-306.46875 256.875z m0-474.65625c-23.34375 0-46.6875 3.75-70.03125 7.5h-7.5c-3.75 0-7.5 0-15.84375-3.75l-100.875-39.28125 15.84375 54.1875c3.75 15.84375 0 30.84375-12.1875 39.28125-50.4375 42.9375-77.53125 97.21875-77.53125 156 0 120.5625 120.5625 217.6875 264.46875 217.6875 143.90625 0 264.375-97.21875 264.375-217.6875 7.5-116.71875-113.0625-213.9375-260.71875-213.9375z m0 0"  horiz-adv-x="1024" />

    
    <glyph glyph-name="tab" unicode="&#59458;" d="M774.51875-9.75H249.48125A131.2875 131.2875 0 0 0 118.25 121.48125000000005V558.99375a131.2875 131.2875 0 0 0 131.23125 131.23125h524.98125A131.2875 131.2875 0 0 0 905.75 558.99375v-437.5125A131.2875 131.2875 0 0 0 774.51875-9.75z m87.525 568.74375c0 48.31875-39.20625 87.46875-87.525 87.46875H249.48125c-48.31875 0-87.525-39.15-87.525-87.46875v-437.5125c0-48.2625 39.15-87.525 87.525-87.525h524.98125c48.2625 0 87.525 39.20625 87.525 87.525V558.99375z m-112.1625-247.44375l24.6375-14.175v-88.36875h-131.2875V427.7625h131.2875v-101.98125l-24.6375-14.23125zM730.75625 384h-43.70625v-43.7625h43.70625V384z m0-87.525h-43.70625v-43.70625h43.70625v43.70625z m-174.99375 0H468.2375v-87.525h-43.7625v218.8125h174.99375v-218.75625h-43.70625V296.475z m0 87.525H468.2375v-43.7625h87.525V384z m-218.75625-174.99375h-43.7625V384h-43.7625v43.7625h131.23125V384h-43.70625v-174.99375zM162.0125 777.75h437.5125v-43.7625H162.0125V777.75z"  horiz-adv-x="1024" />

    
    <glyph glyph-name="upload" unicode="&#58882;" d="M485 345L437 309c-6-6-24-6-30 6-12 12-6 24 6 30l90 66c6 6 18 6 30 0l90-66c0-6 6-18-6-30-6-6-12-12-18-12-6 0-12 0-12 6l-54 37.38v-280.14c0-13.62-6-27.24-24-27.24-12 0-24 13.62-24 27.24V345z m-192-240h-18c-108 0-192 96-192 210 0 120 90 216 198 210C317 645 419 729 533 729 659 729 767 633 797 495c84-18 144-96 144-192 0-108-78-198-174-198-30 0-90 0-156 54-12 12-12 30 0 36 12 12 24 12 36 0 48-48 90-42 114-42h6c72 0 126 66 126 150 0 78-54 144-120 150-12 0-18 12-24 18-18 120-108 210-216 210-96 0-186-78-210-186 0-12-12-18-30-18h-24c-78 0-138-72-138-162 0-90 60-162 138-162h12c24 0 54 0 96 42 12 12 24 12 36 0 12-12 12-24 0-36-48-48-90-54-120-54z"  horiz-adv-x="1024" />

    
    <glyph glyph-name="icon" unicode="&#58940;" d="M661.0625-16.049999999999955H136.1375c-21.7125 0-39.4875 17.6625-39.4875 39.375V184.875c0 8.8875 5.2875 16.9875 13.3875 20.5875 8.1 3.6 17.6625 2.025 24.1875-3.9375 21.0375-19.125 48.15-29.5875 76.6125-29.5875 62.775 0 113.85 51.075 113.85 113.85S273.725 399.75 210.95 399.75c-28.35 0-55.575-10.4625-76.6125-29.5875-6.6375-5.9625-16.0875-7.5375-24.1875-3.9375s-13.3875 11.7-13.3875 20.5875V548.25c0 21.7125 17.6625 39.375 39.4875 39.375h111.2625c-5.0625 15.6375-7.65 32.175-7.65 48.825 0 87.6375 71.325 158.85 158.85 158.85 87.6375 0 158.85-71.325 158.85-158.85 0-16.65-2.5875-33.1875-7.65-48.825h111.2625c21.7125 0 39.4875-17.6625 39.4875-39.375v-118.8c21.0375 9.9 44.2125 15.1875 67.8375 15.1875 87.6375 0 158.85-71.325 158.85-158.85S856.025 126.9375 768.5 126.9375c-23.625 0-46.8 5.2875-67.8375 15.1875v-118.8c-0.1125-21.7125-17.8875-39.375-39.6-39.375z m-519.3 45h513.7875V183.75c0 8.8875 5.175 16.875 13.275 20.475 8.1 3.6 17.55 2.25 24.1875-3.7125 20.8125-18.45 47.5875-28.575 75.4875-28.575 62.775 0 113.85 51.075 113.85 113.85S831.1625 399.75 768.3875 399.75c-27.7875 0-54.675-10.125-75.4875-28.575-6.6375-5.85-16.0875-7.3125-24.1875-3.7125-8.1 3.6-13.275 11.7-13.275 20.475V542.7375h-140.625c-8.1 0-15.6375 4.3875-19.6875 11.475-3.9375 7.0875-3.825 15.8625 0.45 22.725 11.025 17.8875 16.7625 38.475 16.7625 59.625 0 62.775-51.075 113.85-113.85 113.85-62.775 0-113.85-51.075-113.85-113.85 0-21.15 5.85-41.7375 16.7625-59.625 4.275-6.975 4.5-15.6375 0.45-22.725s-11.475-11.475-19.6875-11.475h-140.625v-113.85c21.375 10.35 45 15.8625 69.1875 15.8625 87.6375 0 158.85-71.325 158.85-158.85S298.25 127.04999999999995 210.725 127.04999999999995c-24.1875 0-47.8125 5.5125-69.1875 15.8625v-113.9625z"  horiz-adv-x="1024" />

    
    <glyph glyph-name="refresh" unicode="&#58910;" d="M886.49645997 299.33660887999997C853.43447876 119.65864563000002 696.46731567-10.735336299999972 513.31320954-10.735336299999972c-209.26380158 0-379.44030762 169.94476318-379.44030762 378.89957428S312.77838897 732.3867645299999 521.96494294 732.3867645299999c81.8824768 0 141.13140107-42.64068604 205.55591583-90.07072449V709.90770722c0 29.8948288-7.10678101 67.51441956 22.8652954 67.51441955s22.86529541-37.61959076 22.86529541-67.51441956v-112.54978179c-8.41999055-0.69522858 0 0.69522858 0 0 0-0.84972382 0.07724763 0.84972382 0 0-2.24018097-28.04088593 5.25283813-44.95811463-22.86529541-45.03536225h-159.90257263c-29.97207641 0-45.65334321-7.41577148-45.65334321 22.47905732s38.5465622 22.55630493 68.51863862 22.55630493h91.38393403c-45.88508606 32.83023834-126.99508667 90.14797211-195.59097291 90.07072448C327.37818909 687.35140229 179.44899749 540.81266784 179.44899749 360.74846648000005c0-180.06420136 147.85194397-326.60293579 329.61559296-326.60293577 158.9756012-0.15449524 303.814888 115.56243896 332.62825013 270.44391632 6.56604767 35.45665742-6.56604767 72.92175293 22.86529541 67.51441955 29.43134308-5.33008576 27.34565735-43.41316223 21.93832397-72.7672577z m0.92697143 5.25283814"  horiz-adv-x="1024" />

    
    <glyph glyph-name="processbar" unicode="&#58906;" d="M592.24250984 246.84916878l105.8191967 158.54533195-105.8191967 158.66583824h52.12051392l105.8191967-158.66583824-105.8191967-158.54533195h-52.12051392zM433.21206283 246.84916878l105.81919671 158.54533195-105.81919671 158.66583824h52.12051393l105.81919669-158.66583824-105.81919669-158.54533195h-52.12051393zM274.18084335 246.84916878l105.81919671 158.54533195-105.81919671 158.66583824h52.12051392l105.8191967-158.66583824-105.8191967-158.54533195h-52.12051392zM776.72759247 51.93874741000002H618.54686928v-34.30257798h158.66583824c58.30264091 0 105.69637299 47.39450454 105.69637299 105.696373V281.99838066999996H848.60650254v-158.1807232c0-39.75780487-32.1211052-71.87891006-71.87891007-71.87891006zM175.75656128 123.81920243000002V281.99992561H141.4539833v-158.66583823c0-58.30264091 47.39450454-105.69637299 105.69637299-105.696373h158.66583824v34.30257798H247.63547134c-39.63729859 0-71.87891006 32.1211052-71.87891006 71.87891006zM848.60495758 652.90900613v-158.1807232h34.30257797V653.3941211700001c0 58.30264091-47.39450454 105.69637299-105.69637298 105.69637299H618.54532432v-34.30257797h158.18072319c39.75780487 0 71.87891006-32.24315644 71.87891007-71.87891007zM247.63701629 724.78714371h158.1807232V759.08972168H247.15190125c-58.30264091 0-105.69637299-47.39450454-105.696373-105.69637299v-158.66583824h34.30257798V652.9082336399999c0 39.63729859 32.24315644 71.87891006 71.87891006 71.87891007z"  horiz-adv-x="1024" />

    
    <glyph glyph-name="pifu" unicode="&#58884;" d="M913.81333333 562.77333333l-4.90666666 7.36c-45.65333333 68.48-103.36 112.85333333-143.68 138.02666667-43.84 27.41333333-77.12 38.61333333-78.50666667 39.04l-16.10666667 5.33333333-8.85333333-14.4c-46.82666667-76.26666667-96-114.98666667-146.13333333-114.98666666h-0.85333334c-86.08 0.74666667-153.38666667 113.38666667-154.02666666 114.56l-8.74666667 14.93333333-16.42666667-5.44c-1.38666667-0.42666667-34.56-11.62666667-78.4-39.14666667-40.32-25.17333333-97.92-69.65333333-143.57333333-138.13333333l-5.22666667-7.89333333 50.13333334-200.42666667 116.8 38.93333333-41.17333334-370.45333333h171.73333334v0.10666667H788.26666667l-41.28 371.09333333 125.65333333-39.46666667 41.17333333 200.96z m-73.49333333-146.02666666l-142.93333333 45.01333333 43.2-388.8H363.2v-0.10666667h-81.49333333l43.30666666 389.44-136.42666666-45.54666666-34.34666667 137.28c40.21333333 57.38666667 89.38666667 95.25333333 124.26666667 117.22666666 22.82666667 14.4 42.56 23.89333333 55.36 29.44 24.53333333-35.52 91.62666667-119.25333333 180.26666666-120.10666666h1.49333334c62.18666667 0 120.21333333 40.42666667 172.8 120.10666666C722.45333333 685.86666667 806.18666667 642.56 868.26666667 553.70666667l-27.94666667-136.96z"  horiz-adv-x="1024" />

    
    <glyph glyph-name="menu" unicode="&#58886;" d="M352.82795469 87.17654502000005c-158.54631065 0.20353887-210.985483 0.4259751-212.28824268 0.90053965-7.21943614 2.62927442-13.0259751 7.64865-16.14277178 13.95458877-8.16532734 16.52177549 2.35716856 36.27426533 20.57258584 38.61631669 2.93269307 0.37738477 121.62147539 0.50641875 369.82603477 0.4016795 353.5034792-0.14847011 365.6040794-0.18626308 368.47630459-1.14888955 4.30455937-1.4425919 8.33593271-3.88290323 11.28266368-6.82963419 14.51121768-14.51067803 7.95638847-39.41751621-11.84523135-45.01187753-2.61847617-0.73965234-20.56880654-0.85033037-161.13509297-0.99232208-87.00359942-0.08800224-252.93941191-0.03833261-368.7462501 0.11013839z m0 269.94601055c-158.54631065 0.20353887-210.985483 0.4259751-212.28824268 0.90053964-7.21943614 2.62927442-13.0259751 7.64865-16.14277178 13.95458966-8.16532734 16.52177549 2.35716856 36.27426533 20.57258584 38.61631669 2.93269307 0.37738477 121.62147539 0.50641875 369.82603477 0.40167949 353.5034792-0.14847011 365.6040794-0.18626308 368.47630459-1.14889042 4.30455937-1.44313154 8.33593271-3.88344375 11.28266368-6.82963419 14.51121768-14.51067803 7.95638847-39.41751621-11.84523135-45.01187753-2.61847617-0.73965234-20.56880654-0.85033037-161.13509297-0.9923212-87.00359942-0.08800224-252.93941191-0.03833261-368.7462501 0.10959786z m0 269.94601055c-158.54631065 0.20353887-210.985483 0.4259751-212.28824268 0.90053964-7.21943614 2.62927442-13.0259751 7.64865-16.14277178 13.95405-8.16532734 16.52231513 2.35716856 36.27480498 20.57258584 38.61685635 2.93269307 0.37738477 121.62147539 0.50641875 369.82603477 0.40167949 353.5034792-0.14847011 365.6040794-0.18626308 368.47630459-1.14889043 4.30455937-1.44313154 8.33593271-3.88344375 11.28266368-6.82963418 14.51121768-14.51067803 7.95638847-39.41751621-11.84523135-45.01187754-2.61847617-0.73965234-20.56880654-0.85033037-161.13509297-0.99232119-87.00359942-0.08800224-252.93941191-0.03833261-368.7462501 0.10959786z"  horiz-adv-x="1024" />

    
    <glyph glyph-name="fullscreen" unicode="&#59011;" d="M465.65142823 152.25714112000003H312.05226135l157.52334619 157.52334617-32.75299096 32.78388954-157.30705262-157.30705261L280.25714112 337.65142822999996a23.17428589 23.17428589 0 0 1-46.34857179 0v-208.568573c0-6.85958862 2.81181359-12.35961937 7.32307434-16.22200013a23.01979088 23.01979088 0 0 1 16.50009156-6.95228576H465.65142823a23.17428589 23.17428589 0 0 1 0 46.34857178zM790.09143067 754.78857422H233.90856933a92.69714356 92.69714356 0 0 1-92.69714355-92.69714356v-556.18286133a92.69714356 92.69714356 0 0 1 92.69714356-92.69714355h556.18286133a92.69714356 92.69714356 0 0 1 92.69714355 92.69714355V662.09143067a92.69714356 92.69714356 0 0 1-92.69714355 92.69714355z m46.34857177-648.88000489a46.34857177 46.34857177 0 0 0-46.34857178-46.34857177H233.90856933A46.34857177 46.34857177 0 0 0 187.55999756 105.90856932999998V662.09143067A46.34857177 46.34857177 0 0 0 233.90856933 708.44000244h556.18286133A46.34857177 46.34857177 0 0 0 836.44000244 662.09143067v-556.18286133zM766.26826477 662.09143067H558.34857177a23.17428589 23.17428589 0 0 1 0-46.34857179h153.59916688l-157.52334619-157.52334617 32.75299096-32.78388954 157.30705262 157.30705261L743.74285888 430.34857177a23.17428589 23.17428589 0 0 1 46.34857179 0V638.91714477a20.70236229 20.70236229 0 0 1-7.32307434 16.22200013 23.17428589 23.17428589 0 0 1-16.50009156 6.95228577z"  horiz-adv-x="1024" />

    
    <glyph glyph-name="shrink" unicode="&#58883;" d="M833.02050781 752.48144531c26.3671875 0 48.12011719-21.09375 48.12011719-47.4609375v-642.70019531c0-26.3671875-21.75292969-47.4609375-48.12011719-47.4609375H190.97949219c-26.3671875 0-47.4609375 21.09375-48.12011719 47.4609375V705.02050781c0 26.3671875 21.75292969 47.4609375 48.12011719 47.4609375h642.04101562z m3.29589844-651.26953125V666.78808594c0 23.07128906-19.11621094 41.52832031-42.1875 41.52832031H229.87109375c-23.07128906 0-42.1875-18.45703125-42.1875-41.52832031v-565.57617188c0-23.07128906 19.11621094-41.52832031 42.1875-41.52832031h564.91699219c23.07128906 0 41.52832031 18.45703125 41.52832031 41.52832031zM461.90234375 353.01855469c13.84277344 0 25.04882813-11.20605469 25.04882813-25.70800781v-209.61914063c0-13.84277344-8.56933594-25.70800781-23.07128907-25.70800781 0 0-21.75292969 1.31835938-21.75292969 23.07128906V271.28027344l-146.99707031-147.65625c-9.88769531-10.546875-26.3671875-10.546875-36.9140625 0-9.88769531 10.546875-9.88769531 27.02636719 0 36.9140625L406.53125 309.51269531H246.35058594c-21.75292969 0-23.73046875 19.77539063-23.73046875 19.77539063 0 13.84277344 11.20605469 23.73046875 25.04882812 23.73046875h214.23339844zM570.0078125 422.23242188c-13.84277344 0-25.04882813 11.20605469-25.04882813 25.04882812V657.55957031c0 13.84277344 8.56933594 25.70800781 23.07128907 25.70800781 0 0 21.75292969-1.31835938 21.75292969-23.07128906v-155.56640625L736.12109375 651.62695313c9.88769531 10.546875 26.3671875 10.546875 36.9140625-1e-8 9.88769531-10.546875 9.88769531-27.02636719 0-36.9140625L625.37890625 466.39746094h160.18066406c11.86523438 0.65917969 22.41210938-7.91015625 23.73046875-19.77539063 0-13.84277344-11.20605469-23.73046875-25.04882812-23.73046875l-214.23339844-0.65917969z"  horiz-adv-x="1024" />

    
    <glyph glyph-name="search" unicode="&#58880;" d="M652.16 693.12c-142.08 119.04-355.2 99.84-476.16-42.24-120.96-144-101.76-357.12 40.32-476.16 103.68-86.4 245.76-101.76 366.72-44.16 9.6 3.84 13.44 15.36 9.6 24.96-3.84 9.6-15.36 13.44-24.96 9.6-105.6-51.84-232.32-38.4-324.48 38.4-126.72 105.6-142.08 295.68-36.48 422.4 107.52 126.72 295.68 144 422.4 38.4s142.08-295.68 36.48-422.4l-11.52-13.44 13.44-11.52 11.52-11.52 30.72-30.72c32.64-30.72 63.36-63.36 94.08-92.16l1.92-1.92 92.16-92.16c7.68-7.68 19.2-7.68 26.88 0 7.68 7.68 7.68 19.2 0 26.88l-92.16 92.16-1.92 1.92c-28.8 28.8-61.44 61.44-94.08 92.16-11.52 11.52-21.12 21.12-30.72 28.8 105.6 144 84.48 347.52-53.76 462.72z"  horiz-adv-x="1024" />

    
    <glyph glyph-name="button" unicode="&#59715;" d="M192.00000031 564a19.99999969 19.99999969 0 0 1-20.00000062-19.99999969v-320.00000062a19.99999969 19.99999969 0 0 1 20.00000062-19.99999969h639.99999938a19.99999969 19.99999969 0 0 1 20.00000062 19.99999969V544.00000031a19.99999969 19.99999969 0 0 1-20.00000062 19.99999969H192.00000031z m0 40.00000031h639.99999938A60 60 0 0 0 891.99999969 544.00000031v-320.00000062a60 60 0 0 0-60-60H192.00000031A60 60 0 0 0 132.00000031 223.99999968999998V544.00000031A60 60 0 0 0 192.00000031 604.00000031z m159.99999938-240v39.99999938h319.96000031v-39.99999938H351.99999969z"  horiz-adv-x="1024" />

    
    <glyph glyph-name="table" unicode="&#59162;" d="M814.4 766.6125H205.128125a76.21875 76.21875 0 0 1-76.134375-76.134375v-609.271875a76.21875 76.21875 0 0 1 76.134375-76.134375h609.271875a76.21875 76.21875 0 0 1 76.134375 76.134375V690.478125a76.21875 76.21875 0 0 1-76.134375 76.134375zM407.76875 288.82500000000005v202.725h215.353125l-1.575-202.725h-213.778125z m213.4125-47.925l-1.51875-187.875h-211.89375v187.875h213.4125zM176.946875 491.55h182.896875v-202.725H176.946875v202.725z m494.15625 0h171.50625v-202.725H669.5l1.603125 202.725zM205.128125 718.659375h609.271875c15.525 0 28.18125-12.628125 28.18125-28.18125v-150.975H176.91875V690.478125c0 15.553125 12.65625 28.18125 28.18125 28.18125zM176.946875 81.20624999999995v159.69375h182.896875v-187.875H205.128125a28.2375 28.2375 0 0 0-28.18125 28.18125z m637.453125-28.18125h-146.784375l1.51875 187.875h173.475v-159.69375c0-15.525-12.628125-28.18125-28.18125-28.18125z"  horiz-adv-x="1024" />

    
    <glyph glyph-name="doubleleft" unicode="&#59006;" d="M850.773333 662.613333L572.16 384l278.613333-278.613333a8.106667 8.106667 0 0 0 0-11.946667l-48.213333-48.213333a8.106667 8.106667 0 0 0-11.946667 0l-308.906666 308.48a42.666667 42.666667 0 0 0 0 60.586666l308.906666 308.48a8.106667 8.106667 0 0 0 11.946667 0l48.213333-48.213333a8.106667 8.106667 0 0 0 0-11.946667zM552.106667 662.613333L273.493333 384l278.613334-278.613333a8.106667 8.106667 0 0 0 0-11.946667l-48.213334-48.213333a8.106667 8.106667 0 0 0-11.946666 0l-308.906667 308.48a42.666667 42.666667 0 0 0 0 60.586666l308.906667 308.48a8.106667 8.106667 0 0 0 11.946666 0l48.213334-48.213333a8.106667 8.106667 0 0 0 0-11.946667z"  horiz-adv-x="1024" />

    
    <glyph glyph-name="delete" unicode="&#58916;" d="M591.1015625 162.515625c-15.42480469 0-27.68554688 12.26074219-27.68554688 27.68554688V494.7421875c0 15.42480469 12.26074219 27.68554688 27.68554688 27.68554688s27.68554688-12.26074219 27.68554688-27.68554688v-304.54101563c0-15.02929688-12.26074219-27.68554688-27.68554688-27.68554687z m-166.11328125 0c-15.42480469 0-27.68554688 12.26074219-27.68554688 27.68554688V494.7421875c0 15.42480469 12.26074219 27.68554688 27.68554688 27.68554688s27.68554688-12.26074219 27.68554688-27.68554688v-304.54101563c0-15.02929688-12.26074219-27.68554688-27.68554688-27.68554687zM867.95703125 633.16992188h-138.42773438V688.54101563c0 45.87890625-36.78222656 83.05664063-82.26562499 83.05664062H369.6171875c-45.87890625 0-83.05664063-37.17773438-83.05664063-83.05664063v-55.37109374H148.1328125c-15.42480469 0-27.68554688-12.26074219-27.68554688-27.68554688s12.26074219-27.68554688 27.68554688-27.68554687h719.82421875c15.42480469 0 27.68554688 12.26074219 27.68554688 27.68554687s-12.26074219 27.68554688-27.68554688 27.68554688zM341.93164062 688.54101563c0 15.02929688 12.65625 27.68554688 27.68554688 27.68554687h277.64648438c15.02929688 0 26.89453125-12.26074219 26.89453124-27.68554688v-55.37109375H341.93164062V688.54101563z m359.91210938-692.13867188H314.24609375c-45.87890625 0-83.05664063 37.17773438-83.05664063 83.05664063V495.13769531c0 15.42480469 12.26074219 27.68554688 27.68554688 27.68554688s27.68554688-12.26074219 27.68554688-27.68554688V79.45898437000005c0-15.42480469 12.65625-27.68554688 27.68554687-27.68554687h387.59765625c15.42480469 0 27.68554688 12.26074219 27.68554688 27.68554688V493.95117188c0 15.42480469 12.26074219 27.68554688 27.68554687 27.68554687s27.68554688-12.26074219 27.68554688-27.68554688V79.45898437000005c0-45.87890625-37.17773438-83.05664063-83.05664063-83.05664062z"  horiz-adv-x="1024" />

    
    <glyph glyph-name="silder" unicode="&#58898;" d="M347.02222222 225.84888890000002m-51.2 0a51.2 51.2 0 1 1 102.4 0 51.2 51.2 0 1 1-102.4 0ZM517.68888889 225.84888890000002m-51.2 0a51.2 51.2 0 1 1 102.4 0 51.2 51.2 0 1 1-102.4 0ZM688.35555555 225.84888890000002m-51.2 0a51.2 51.2 0 1 1 102.4 0 51.2 51.2 0 1 1-102.4 0ZM94.43555555 574.0088889v-385.70666667c0-23.89333333 20.48-40.96 40.96-40.96h51.2v40.96H135.39555555V574.0088889h51.2V614.9688889H135.39555555c-23.89333333 0-40.96-17.06666667-40.96-40.96zM910.22222222 614.9688889h-51.2v-40.96H910.22222222v-385.70666667h-51.2v-40.96H910.22222222c23.89333333 0 40.96 20.48 40.96 40.96V574.0088889c0 23.89333333-17.06666667 40.96-40.96 40.96zM794.16888889 672.99555556H254.86222222c-23.89333333 0-40.96-20.48-40.96-40.96v-505.17333333c0-23.89333333 20.48-40.96 40.96-40.96h539.30666667c23.89333333 0 40.96 20.48 40.96 40.96V632.0355555599999c0 23.89333333-20.48 40.96-40.96 40.96z m0-546.13333333H254.86222222V632.0355555599999h539.30666667v-505.17333333z"  horiz-adv-x="1024" />

    
    <glyph glyph-name="badge" unicode="&#58944;" d="M720.83118772 179.82339458l122.62537215-3.12517253-76.81147091 139.83264733a312.84672171 312.84672171 0 0 0-33.01198902-39.18702859 305.03379035 305.03379035 0 0 0-149.14227419-83.06181684L652.99046762 69.59516784000004z m-195.59627024 54.40812535c11.99237942 0.42359299 132.56567991 18.87340704 184.38518435 86.74236638 19.3817178 25.41556028 38.32101728 51.54652166 49.88980372 82.01695442a262.62745753 262.62745753 0 0 1 17.08490423 93.41630448c0 144.6616041-116.920991 262.32623547-260.594212 262.32623546s-260.53773349-117.66463137-260.5377335-262.35447555a262.90043948 262.90043948 0 0 1 125.13868836-224.03345746q5.83616602-3.58641787 11.87942157-6.88102761a257.43138711 257.43138711 0 0 1 116.21500296-31.29879255c2.45683767-0.10354478 4.90426145-0.10354478 7.36109913-0.10354477 3.0875202-0.00941309 6.13738723 0.06589243 9.17784118 0.1694372z m-3.86881293 132.93279438c-71.30476703 0-129.3275495 58.01337022-129.3275495 129.32754948s58.01337022 129.33696259 129.3275495 129.3369626 129.3275495-58.06043564 129.32754951-129.32754952-58.06043564-129.33696259-129.32754949-129.33696256zM369.98349613 57.63102767999999l78.00694437 136.490973a304.98672491 304.98672491 0 0 0-149.4623216 83.18418777 313.03498508 313.03498508 0 0 0-32.6072222 38.64106466L180.44930845 166.33432131999996l128.79099865-1.44962842z m424.42103209 306.37046091l130.09001688-236.82595661-177.84303031 4.52773471-95.95786073-155.97623558-116.13028439 211.44804952c-6.13738723-0.35770057-12.29360064-0.5647901-18.47805329-0.56479011-5.95853696 0-11.87000767 0.18826336-17.75323994 0.52713777l-128.52742978-224.97477595-88.1072762 155.65618818L99.49604181 119.83325903000002l138.8254389 243.00099619C176.79699814 492.88661892 212.41643503 648.47691467 324.26372739 738.28797428a306.00334726 306.00334726 0 0 0 382.64538098 0.80011971c112.21440601-89.33098809 148.4739385-244.74243356 87.49541986-375.0866054z m-273.03842367 310.63462674c-98.21702115 0-178.12542537-79.89899111-178.12542535-178.12542536s79.85192569-178.12542537 178.12542535-178.12542535S699.4915299 398.33132117 699.4915299 496.51068997s-79.91781729 178.11601226-178.12542535 178.11601228z"  horiz-adv-x="1024" />

    
    <glyph glyph-name="chart" unicode="&#58881;" d="M833.36328125 362.56347656l49.43847656-3.29589844q-4.95703125-74.17089844-35.4375-136.79296874t-80.76269531-109.58203126-116.17382813-74.17089843T512 11.537109370000053q-77.46679688 0-145.01953125 29.66308594T249.14550781 121.11914062000005 169.2265625 238.95410156000003t-29.66308594 145.01953125q0 72.50976563 26.3671875 137.61035157t73.32714844 115.35644531 109.58203125 81.58007812 135.13183594 36.25488282l3.29589843-49.43847657q-62.62207031-4.95703125-117.01757812-32.14160156T275.48632812 603.1640625t-63.43945312-99.69433594T188.97558594 384q0-65.91796875 25.54980469-125.24414063t69.21386718-102.99023437 102.99023438-69.21386719 125.24414062-25.54980468q64.28320313 0 120.31347657 23.07128906t99.69433593 64.28320312 70.875 95.58105469 30.48046875 118.65234375zM933.875 433.43847656v-24.73242187H538.3671875V805.875h24.73242188q75.80566406 0 143.38476562-29.66308594t118.65234375-79.91894531 79.91894531-117.83496094 28.84570313-145.01953125z m-51.07324219 24.70605469Q879.50585938 515.8359375 854.7734375 568.5703125t-64.28320313 92.28515625-91.46777343 64.28320313-111.24316407 29.66308593v-296.63085937h294.99609376z"  horiz-adv-x="1024" />

    
    <glyph glyph-name="left" unicode="&#58897;" d="M691.03320313-8.080078129999947c-8.4375 0-16.875 3.1640625-23.37890626 9.58007813L306.95117187 355.5234375c-6.328125 6.24023438-9.93164063 14.765625-10.01953124 23.64257813 0 8.87695313 3.515625 17.49023438 9.75585937 23.73046874L670.73046875 766.93945313c13.0078125 13.0078125 34.18945313 13.0078125 47.19726563-1e-8 13.0078125-13.0078125 13.0078125-34.18945313 0-47.19726562l-340.13671876-340.13671875 336.62109376-330.38085938c13.18359375-12.91992188 13.359375-34.1015625 0.43945312-47.19726562-6.59179688-6.76757813-15.20507813-10.10742188-23.81835938-10.10742187z m-1e-8 1e-8"  horiz-adv-x="1024" />

    
    <glyph glyph-name="message" unicode="&#59042;" d="M878.80741888 125.10852779000004h-64.75927666v194.18073998a21.55406222 21.55406222 0 1 1-43.15667001 0v-194.18073998H253.10852779V384A259.18274333 259.18274333 0 0 0 512 642.89147221a257.77493333 257.77493333 0 0 0 251.94951111-199.13234887 21.60260779 21.60260779 0 0 1 42.04012999 9.95176221c-30.68055666 129.61564445-141.1693989 221.22040889-272.43557888 230.54108444v66.50690446a21.60260779 21.60260779 0 0 1-43.10812444 0V684.98014777c-156.50967666-11.16539221-280.49408-141.75194112-280.49408-300.98014777v-258.89147221H145.19258112a21.60260779 21.60260779 0 0 1 0-43.20521558h733.61483776a21.60260779 21.60260779 0 0 1 0 43.20521558M619.8674011 38.795187769999984H402.2878811a21.60260779 21.60260779 0 0 1 0-43.15666887h217.57952a21.60260779 21.60260779 0 0 1 0 43.15666887"  horiz-adv-x="1024" />

    
    <glyph glyph-name="edit" unicode="&#59041;" d="M333.06892273 351.58079262c-0.52969537-0.63563445-1.11235993-1.32423808-1.218299-2.0658116l-40.15090522-144.65979038a24.57786259 24.57786259 0 0 1 30.66935907-30.13966368l146.1959066 39.19745354c0.31781722 0 0.37078641-0.21187816 0.52969538-0.21187815a6.03852658 6.03852658 0 0 1 4.6083494 1.90690335l391.07405068 384.02910326c11.65329683 11.44141868 18.00964063 27.01446131 18.00964063 43.96471119 0 19.28090954-8.31621633 38.34994093-22.82986819 52.59874476l-36.86679388 36.17818952A77.60036364 77.60036364 0 0 1 769.43192268 754.78486633a63.56343796 63.56343796 0 0 1-44.706284-17.69182341L333.59861812 352.85206152c-0.37078641-0.31781722-0.26484732-0.84751261-0.52969539-1.2712689z m493.35821598 285.50577476l-38.82666641-38.13806279-62.92780352 62.82186445 38.34994093 37.6083674c6.03852658 5.9855574 17.79776249 5.03210572 24.73677085-1.85393346l36.97273294-36.3370985a19.81060492 19.81060492 0 0 0 6.03852657-13.77207835 16.20867636 16.20867636 0 0 0-4.34350136-10.32905875zM402.56494821 345.54226604999997l282.2216634 277.18955843 63.0337426-62.92780351-281.74493794-276.55392398-63.51046806 62.29216906z m-51.38044576-112.40134591l20.39326946 73.52171033 54.34673915-53.49922726-74.74000861-20.02248307z m452.99543333 170.93267816a26.90852224 26.90852224 0 0 1-27.01446133-26.53773512v-277.13658853c0-18.75121417-10.17014978-34.00643885-29.29215107-34.00643957h-518.04201763a34.37722597 34.37722597 0 0 0-34.69504319 34.00643957V618.70614034c0 18.80418334 15.57304191 30.13966368 34.69504319 30.13966295h283.06917602c14.88443827 0 27.01446131 11.86517498 27.01446132 26.48476594a26.37882686 26.37882686 0 0 1-27.01446132 25.95507057h-287.09486015C179.08649445 701.2856398 141.21327973 663.46539425 141.21327973 617.69971876v-521.43206732C141.21327973 50.44900605999999 179.13946436 13.211425780000013 225.75265172 13.211425780000013h526.14635653c52.28092752 0 79.29538883 33.79456142 79.29538812 83.05622566V377.58883308a26.85555233 26.85555233 0 0 1-27.0144606 26.48476522z"  horiz-adv-x="1024" />

    
    <glyph glyph-name="editor" unicode="&#58892;" d="M795.24111474 13.211631450000027H228.75888526A87.34125974 87.34125974 0 0 0 141.21163145 100.75888526000006V667.2411147400001A87.34125974 87.34125974 0 0 0 228.75888526 754.78836855h566.48222949A87.34125974 87.34125974 0 0 0 882.78836855 667.2411147400001v-566.48222949A87.34125974 87.34125974 0 0 0 795.24111474 13.211631450000027zM228.75888526 710.91174498a43.67063023 43.67063023 0 0 1-43.67063024-43.67063024v-566.48222949a43.67063023 43.67063023 0 0 1 43.67063023-43.67063023h566.48222949a43.67063023 43.67063023 0 0 1 43.67063024 43.67063023V667.2411147400001a43.67063023 43.67063023 0 0 1-43.67063024 43.67063024zM555.67063023 623.77647784h217.73516903a20.59935405 20.59935405 0 0 0 21.83531549-21.83531476 20.59935405 20.59935405 0 0 0-21.83531549-21.83531475H555.67063023a20.59935405 20.59935405 0 0 0-21.83531547 21.83531475 20.59935405 20.59935405 0 0 0 21.83531547 21.83531476z m0-108.97058118h217.73516903a21.83531477 21.83531477 0 0 0 0-43.67063023H555.67063023a21.83531477 21.83531477 0 1 0 0 43.67063023z m0-108.9705819h217.73516903a21.83531477 21.83531477 0 0 0 0-43.67062953H555.67063023a21.83531477 21.83531477 0 0 0 0 43.67062953zM250.59420074 296.86473357h522.81159852a21.83531477 21.83531477 0 0 0 0-43.67063024H250.59420074a21.83531477 21.83531477 0 0 0 0 43.67063024z m0-108.9705819h522.81159852a21.83531477 21.83531477 0 0 0 0-43.67062951H250.59420074a21.83531477 21.83531477 0 1 0 0 43.67062951z m45.73056499 246.16227833h117.62231048l28.22111451-71.89174476h41.19870737l-108.55859451 261.6117926H335.46353835l-106.7046531-261.61179261h41.19870738z m54.38229429 137.39768975a150.78726999 150.78726999 0 0 1 4.32586428 17.30345714 63.44600952 63.44600952 0 0 0 4.53185761-17.30345714l43.46463619-108.9705819H307.24242311z"  horiz-adv-x="1024" />

    
    <glyph glyph-name="phone" unicode="&#58914;" d="M521.13623045 134.48642578c-23.20927734 0-42.09082031-18.88066406-42.09082031-42.09169922 0-23.20927734 18.88242187-42.09169922 42.09082031-42.09169922 23.21015625 0 42.09345703 18.88154297 42.09345703 42.09169922-0.00087891 23.21103516-18.88330078 42.09169922-42.09345703 42.09169922zM729.38339842 797.02529297H312.89082029c-35.03759766 0-63.54316406-28.50556641-63.54316406-63.54316406v-698.96425782c0-35.03847656 28.50556641-63.54316406 63.54316406-63.54316406h416.49169922c35.03759766 0 63.54228516 28.5046875 63.54228516 63.54316406V733.48212891c0.00087891 35.03759766-28.50380859 63.54316406-63.54140625 63.54316406zM312.89082029 754.66289062h416.49169922c11.67978516 0 21.18164063-9.50273438 21.18164063-21.18164062v-523.659375H291.71005858V733.48212891c0 11.67890625 9.50185547 21.18076172 21.18076171 21.18076172z m416.49257813-741.32490234H312.89082029c-11.67890625 0-21.18164063 9.50097656-21.18164062 21.18076172V163.83398437000005h458.85498047v-129.31611328c0.00087891-11.67978516-9.50097656-21.17988281-21.18076172-21.17988281z"  horiz-adv-x="1024" />

    
    <glyph glyph-name="page" unicode="&#59031;" d="M186.9999998 683.99999971v-599.99999942h300.00000059V683.99999971z m-50.00000009 50.0000001h399.9999999v-699.99999961h-399.9999999zM536.99999961 683.99999971v-599.99999942h300.00000058V683.99999971z m-49.99999922 50.0000001h399.9999999v-699.99999961h-399.9999999zM617.00000029 308.00000009999997l70.99999981 70.9999998-70.49999971 69.50000039 35.4999999 35.49999991 105.99999961-106.00000049-105.99999961-105.99999961zM373.0000001 272.00000009999997L266.99999961 377.99999971 373.0000001 484.0000002l36-36-71.4999999-70.00000049 70.9999998-70.99999981z"  horiz-adv-x="1024" />

    
    <glyph glyph-name="grid" unicode="&#58894;" d="M199.1471405 501.31982231H816.16250229V470.90357209H199.1471405v30.41625022zM199.1471405 297.09642791H816.16250229v-34.76142882H199.1471405V297.09642791zM603.24875068 696.8528595h34.76142884v-625.705719h-34.76142884V696.8528595zM390.33499908 692.50768089H425.09642791v-621.36054039h-34.76142882V692.50768089zM811.81732368 722.92393113H212.18267632C190.4567833 722.92393113 173.07606887 705.5432167 173.07606887 683.81732368v-595.28946876c0-21.72589302 17.38071443-39.10660744 39.10660745-39.10660743h595.28946876c21.72589302 0 39.10660744 17.38071443 39.10660743 39.10660743V683.81732368c4.34517861 21.72589302-13.03553581 39.10660744-34.76142883 39.10660745z m4.34517861-603.97982598c0-21.72589302-17.38071443-39.10660744-39.10660744-39.10660744H246.94410515c-21.72589302 0-39.10660744 17.38071443-39.10660744 39.10660744V649.05589485c0 21.72589302 17.38071443 39.10660744 39.10660744 39.10660744H772.71071625c26.07107163 0 43.45178603-17.38071443 43.45178604-39.10660744v-530.1117897z"  horiz-adv-x="1024" />

    
    <glyph glyph-name="doubleright" unicode="&#59716;" d="M173.226667 105.38666699999999L451.83999999 384l-278.61333299 278.613333a8.106667 8.106667 0 0 0 0 11.946667l48.213333 48.213333a8.106667 8.106667 0 0 0 11.946667 0l308.906666-308.48a42.666667 42.666667 0 0 0 0-60.586666l-308.906666-308.48a8.106667 8.106667 0 0 0-11.946667 0l-48.213333 48.213333a8.106667 8.106667 0 0 0 0 11.946667zM471.893333 105.38666699999999L750.50666699 384l-278.61333399 278.613333a8.106667 8.106667 0 0 0 0 11.946667l48.213334 48.213333a8.106667 8.106667 0 0 0 11.946666 0l308.906667-308.48a42.666667 42.666667 0 0 0 0-60.586666l-308.906667-308.48a8.106667 8.106667 0 0 0-11.946666 0l-48.213334 48.213333a8.106667 8.106667 0 0 0 0 11.946667z"  horiz-adv-x="1024" />

    
    <glyph glyph-name="icon_kehuxiaofei_selected" unicode="&#59169;" d="M1004.48947111-37.593676120000055H214.17607765A95.81879197 95.81879197 0 0 0 111.45833333 49.44811441000002v502.0904674a95.81879197 95.81879197 0 0 0 102.71774433 87.04179054h124.18115404V714.27721821A98.42506238 98.42506238 0 0 0 441.45825194 805.7266722100001h335.74904572a97.96513211 97.96513211 0 0 0 103.10101941-91.44945401v-75.69684585h124.94770422A96.12541187 96.12541187 0 0 0 1107.97376561 551.53858181v-502.0904674A97.35189231 97.35189231 0 0 0 1004.48947111-37.593676120000055zM773.37454598 714.39220057a1.64808352 1.64808352 0 0 1-0.38327591 1.34146279H445.29100362v-77.03830865h328.08354236V714.39220057z m228.04872363-166.18811217h-121.11495254v-37.13936352a70.79092327 70.79092327 0 0 0 34.11149001-58.64110043 88.80485642 88.80485642 0 0 0-175.15675113 1e-8 70.79092327 70.79092327 0 0 0 34.11149003 58.64110042V548.0507780400001H445.29100362v-36.83274362a71.44249109 71.44249109 0 0 0 34.49476428-58.94772033 88.80485642 88.80485642 0 0 0-175.15675112 0 70.25433784 70.25433784 0 0 0 33.72821493 58.3728077V548.0507780400001H218.00882933v-496.07304757h783.41444028V548.0507780400001zM878.00866573 154.04390697999997H341.42343321v191.63758311h536.58523252v-191.63758311z"  horiz-adv-x="1210" />

    
    <glyph glyph-name="icon_huoqushenhe_selected" unicode="&#59170;" d="M982.33333349-66H208.33333349A146.1999999 146.1999999 0 0 0 62 80.30000010000003v240.73333329A146.1999999 146.1999999 0 0 0 208.33333349 467.33333349H228.66666699v-100.00000019h-20.3333335A46.26666651 46.26666651 0 0 1 162.0000002 321.03333339999995v-240.7333333A46.26666651 46.26666651 0 0 1 208.33333349 34.000000200000045h774A46.26666651 46.26666651 0 0 1 1028.6666668 80.30000010000003v240.73333329A46.26666651 46.26666651 0 0 1 982.33333349 367.33333330000005H962v100.00000019h20.33333349A146.40000029 146.40000029 0 0 0 1128.666667 321.03333339999995v-240.7333333A146.40000029 146.40000029 0 0 0 982.33333349-66z m-200.00000039 900H408.33333301A146.1999999 146.1999999 0 0 1 262.00000039 687.6999999v-407.40000029A146.1999999 146.1999999 0 0 1 408.33333301 134.00000038999997h374.00000009A146.40000029 146.40000029 0 0 1 928.6666666 280.29999961V687.6999999A146.40000029 146.40000029 0 0 1 782.3333331 834zM828.66666641 280.29999961A46.26666651 46.26666651 0 0 0 782.3333331 233.99999971H408.33333301A46.26666651 46.26666651 0 0 0 361.99999971 280.29999961V687.6999999A46.26666651 46.26666651 0 0 0 408.33333301 733.9999998000001h374.00000009A46.26666651 46.26666651 0 0 0 828.66666641 687.6999999v-407.40000029zM678.66666699 534.00000029h-166.66666699a50.0000001 50.0000001 0 0 0 0 99.99999932h166.66666699a50.0000001 50.0000001 0 0 0 1e-8-99.99999932z m-166.66666699-66.6666668h166.66666699a50.0000001 50.0000001 0 0 0 1e-8-100.00000019h-166.666667a50.0000001 50.0000001 0 0 0 0 100.00000019z"  horiz-adv-x="1213" />

    
    <glyph glyph-name="icon_xinzengkehu_selected" unicode="&#59171;" d="M794.01288974 580.46698008a260.75279003 260.75279003 0 0 1-521.3056412 0 249.62289434 249.62289434 0 0 1 86.0734125-187.90862344 445.46240127 445.46240127 0 0 1-279.91353779-407.94065859 52.11723516 52.11723516 0 0 1 104.16782372 0 346.02644971 346.02644971 0 0 0 350.39176787 340.66143984 52.65040342 52.65040342 0 0 1 15.2286293 2.23264424A256.58740987 256.58740987 0 0 1 794.01288974 580.46698008z m-260.6528206 153.91912324a152.15300156 152.15300156 0 1 0-156.45167402-152.11967871 154.51893721 154.51893721 0 0 0 156.45167402 152.05303213zM893.88204102 195.35260401000005h-88.93919444v86.07341337a50.35111348 50.35111348 0 0 1-25.75871015 44.58622764 53.31686396 53.31686396 0 0 1-52.61708057 0 50.21782119 50.21782119 0 0 1-25.75871016-44.31964307v-86.33999794h-88.43934814a52.68372627 52.68372627 0 0 1-45.95247246-25.02560304 49.48471494 49.48471494 0 0 1 0-51.1508663 52.38381885 52.38381885 0 0 1 44.75284277-25.05892676h89.60565498v-86.33999707a50.55105234 50.55105234 0 0 1 23.32612793-42.15364541l-8.86392861-8.63066777 37.6217121 0.19993799a51.68403545 51.68403545 0 0 1 51.98394287 50.61769804V93.95059276999996h89.10580958a50.6510209 50.6510209 0 1 1-0.0666457 101.33536553z"  horiz-adv-x="1024" />

    
    <glyph glyph-name="icon_gonghaikehu_selected" unicode="&#59172;" d="M788.78214248 834H235.21785752A141.075 141.075 0 0 1 94.14285752 692.925v-617.85A141.075 141.075 0 0 1 235.21785752-66h553.56428496A141.075 141.075 0 0 1 929.85714248 75.07500000000005V692.925A141.075 141.075 0 0 1 788.78214248 834zM833.42857168 75.07500000000005A44.64642832 44.64642832 0 0 0 788.78214248 30.428571680000005H235.21785752A44.64642832 44.64642832 0 0 0 190.57142832 75.07500000000005V692.925A44.64642832 44.64642832 0 0 0 235.21785752 737.57142832h553.56428496A44.64642832 44.64642832 0 0 0 833.42857168 692.925v-617.85z m-102.15 283.78928584a35.35714248 35.35714248 0 1 0 36.77142832 35.35714248 36.19285752 36.19285752 0 0 0-36.77142832-35.35714248z m0 109.28571416a35.35714248 35.35714248 0 1 0 36.77142832 35.35714248 36.16071416 36.16071416 0 0 0-36.77142832-35.42142832z m-153.41785752-266.11071416a127.47857167 127.47857167 0 0 1-249.91071416 0l-1.06071416-6.91071416H253.31428584l0.93214248 9.06428584a189.64285752 189.64285752 0 0 0 90 140.4 149.33571416 149.33571416 0 0 0-52.7785708 113.49642832 161.775 161.775 0 0 0 323.13214248 0 149.27142832 149.27142832 0 0 0-52.81071416-113.49642832 189.41785752 189.41785752 0 0 0 90-140.43214336l0.96428584-9.03214248h-73.60714336zM452.88928584 540.95357167A82.99285752 82.99285752 0 1 1 540.92857168 457.92857168a85.66071416 85.66071416 0 0 1-88.03928584 82.96071416z m278.38928584-220.275a35.35714248 35.35714248 0 1 0-36.7714292-35.35714335 36.19285752 36.19285752 0 0 0 36.77142919 35.29285752z"  horiz-adv-x="1024" />

    
    <glyph glyph-name="icon_kehuliebiao_selected" unicode="&#59173;" d="M788.78214248 834H235.21785752A141.075 141.075 0 0 1 94.14285752 692.925v-617.85A141.075 141.075 0 0 1 235.21785752-66h553.56428496A141.075 141.075 0 0 1 929.85714248 75.07500000000005V692.925A141.075 141.075 0 0 1 788.78214248 834zM833.42857168 75.07500000000005A44.64642832 44.64642832 0 0 0 788.78214248 30.428571680000005H235.21785752A44.64642832 44.64642832 0 0 0 190.57142832 75.07500000000005V692.925A44.64642832 44.64642832 0 0 0 235.21785752 737.57142832h553.56428496A44.64642832 44.64642832 0 0 0 833.42857168 692.925v-617.85zM656.64285752 448.28571416h-289.28571504a48.21428584 48.21428584 0 0 0 0 96.42857168h289.28571504a48.21428584 48.21428584 0 0 0 0-96.42857168z m-289.28571504-128.57142832h289.28571504a48.21428584 48.21428584 0 0 0 0-96.42857168h-289.28571504a48.21428584 48.21428584 0 0 0 0 96.42857168z"  horiz-adv-x="1024" />

    
    <glyph glyph-name="icon_kehushenhe_selected" unicode="&#59174;" d="M949.41451602-27.096774030000006a26.47741904 26.47741904 0 0 0-6.067742-16.31612899 32.80645195 32.80645195 0 0 0-54.69677402-12.65806495l-72.58064502 72.58064502A194.13870997 194.13870997 0 0 0 510.06935498 175.40322598a191.61290303 191.61290303 0 0 0 20.00322598 84.19354804 193.64516104 193.64516104 0 0 0 66.13548398 83.64193594 42.99677402 42.99677402 0 0 0-13.55806494-2.72903291h-261.29032295a43.54838701 43.54838701 0 0 0 0 87.0967749h261.29032295a43.25806494 43.25806494 0 0 0 31.70322598-73.016129 189.75483896 189.75483896 0 0 0 93.832258 25.11290302 190.27741904 190.27741904 0 0 0 187.95483897-231.73548397 195.32903203 195.32903203 0 0 0-30.74516191-80.12903204l75.97741992-75.94838701a26.70967705 26.70967705 0 0 0 8.04193506-18.98709698zM704.17903203 302.70967705a126.98709698 126.98709698 0 0 1-91.13225801-215.73870908 131.71935498 131.71935498 0 0 1 116.85483897-36.14516192 127.24838701 127.24838701 0 0 1-25.72258096 251.883871zM582.65 601.7419350600001a43.54838701 43.54838701 0 0 0 0-87.09677402h-261.29032295a43.54838701 43.54838701 0 0 0 0 87.09677402h261.29032295zM742.32741904 706.57741904A40.32580605 40.32580605 0 0 1 702.00161299 746.90322597H202.00806494A40.32580605 40.32580605 0 0 1 161.68225801 706.57741904v-558.05806406A40.32580605 40.32580605 0 0 1 202.00806494 108.19354805H481.03709698l-58.06451602-87.09677402H202.00806494A127.42258096 127.42258096 0 0 0 74.58548398 148.51935498V706.57741904A127.42258096 127.42258096 0 0 0 202.00806494 834h499.99354805A127.42258096 127.42258096 0 0 0 829.42419395 706.57741904V514.64516104l-87.09677491-58.06451602V706.57741904z"  horiz-adv-x="1024" />

    
    <glyph glyph-name="icon_kehuchengjiao_selected" unicode="&#59175;" d="M1087.495012-128H447.814652a63.968036 63.968036 0 0 0 0 127.936072h639.68036a63.968036 63.968036 0 0 0 0-127.936072z m-157.361369 500.070121l-2.558721-2.110945-186.786665-174.152978a114.15096 114.15096 0 0 0-143.608241 1.567217l-32.943539 30.576721a97.071495 97.071495 0 0 0-31.344337 70.908568 91.314371 91.314371 0 0 0 4.477762 27.85808l-6.396803 5.885059-320.16002-298.858664a129.535273 129.535273 0 0 0-174.312898 0 111.528271 111.528271 0 0 0 0 164.973565l318.880659 297.899143-5.437283 5.181411a109.76915 109.76915 0 0 0-103.308378 22.932541l-32.943539 30.480769a95.632214 95.632214 0 0 0-1.919041 139.802143l185.507304 173.257425a113.607232 113.607232 0 0 0 149.045524 0l31.024498-28.785616a97.519271 97.519271 0 0 0 31.344337-70.940552 92.753652 92.753652 0 0 0-4.157922-28.209904l187.106505-174.760674a113.767152 113.767152 0 0 0 105.54726-24.467774l35.8221-33.391315-0.319841-0.607696a94.704677 94.704677 0 0 0 26.546735-65.791125 96.495782 96.495782 0 0 0-29.105456-69.245399zM92.472212 144.215977a37.869077 37.869077 0 0 1-12.473767-27.794112 38.732646 38.732646 0 0 1 12.473767-28.209903 49.223404 49.223404 0 0 1 62.688675 0l318.560819 297.867159-61.089474 57.059488zM521.377893 784.823873l-31.024497 28.785617a27.282367 27.282367 0 0 1-18.550731 7.036483 28.273872 28.273872 0 0 1-18.87057-7.100452L269.343831 642.335073a23.124445 23.124445 0 0 1-7.036484-16.183913 21.65318 21.65318 0 0 1 7.036484-15.992009l31.344338-29.329344a28.273872 28.273872 0 0 1 37.101461 0l186.466825 173.449329a24.531742 24.531742 0 0 1 4.477762 14.200904 21.749132 21.749132 0 0 1-7.356324 16.343833z m35.18242-106.570748L415.830634 546.86278l169.195455-158.192953 140.729679 131.422329z m315.682257-220.689724l-31.024497 29.041489a28.97752 28.97752 0 0 1-37.421301 0l-183.588263-171.370369a23.444285 23.444285 0 0 1-7.036484-16.183913 22.708653 22.708653 0 0 1 7.036484-16.407801l31.024497-29.009504a28.433792 28.433792 0 0 1 37.421301 0l183.588263 171.498304a22.836589 22.836589 0 0 1 7.036484 16.311849 22.388813 22.388813 0 0 1-7.036484 15.864073z"  horiz-adv-x="1152" />

    
    <glyph glyph-name="icon_gonghaikehu_normal" unicode="&#59176;" d="M788.78214248 834H235.21785752A141.075 141.075 0 0 1 94.14285752 692.925v-617.85A141.075 141.075 0 0 1 235.21785752-66h553.56428496A141.075 141.075 0 0 1 929.85714248 75.07500000000005V692.925A141.075 141.075 0 0 1 788.78214248 834zM833.42857168 75.07500000000005A44.64642832 44.64642832 0 0 0 788.78214248 30.428571680000005H235.21785752A44.64642832 44.64642832 0 0 0 190.57142832 75.07500000000005V692.925A44.64642832 44.64642832 0 0 0 235.21785752 737.57142832h553.56428496A44.64642832 44.64642832 0 0 0 833.42857168 692.925v-617.85zM731.27857168 358.86428584a35.35714248 35.35714248 0 1 0 36.77142832 35.35714248 36.19285752 36.19285752 0 0 0-36.77142832-35.35714248z m0 109.28571416a35.35714248 35.35714248 0 1 0 36.77142832 35.35714248 36.16071416 36.16071416 0 0 0-36.77142832-35.42142832z m-153.41785752-266.11071416a127.47857167 127.47857167 0 0 1-249.91071416 0l-1.06071416-6.91071416H253.31428584l0.93214248 9.06428584a189.64285752 189.64285752 0 0 0 90 140.4 149.33571416 149.33571416 0 0 0-52.7785708 113.49642832 161.775 161.775 0 0 0 323.13214248 0 149.27142832 149.27142832 0 0 0-52.81071416-113.49642832 189.41785752 189.41785752 0 0 0 90-140.43214336l0.96428584-9.03214248h-73.60714336zM452.88928584 540.95357167A82.99285752 82.99285752 0 1 1 540.92857168 457.92857168a85.66071416 85.66071416 0 0 1-88.03928584 82.96071416z m278.38928584-220.275a35.35714248 35.35714248 0 1 0-36.7714292-35.35714335 36.19285752 36.19285752 0 0 0 36.77142919 35.29285752z"  horiz-adv-x="1024" />

    
    <glyph glyph-name="icon_xinzengkehu_normal" unicode="&#59177;" d="M794.01288974 580.46698008a260.75279003 260.75279003 0 0 1-521.3056412 0 249.62289434 249.62289434 0 0 1 86.0734125-187.90862344 445.46240127 445.46240127 0 0 1-279.91353779-407.94065859 52.11723516 52.11723516 0 0 1 104.16782372 0 346.02644971 346.02644971 0 0 0 350.39176787 340.66143984 52.65040342 52.65040342 0 0 1 15.2286293 2.23264424A256.58740987 256.58740987 0 0 1 794.01288974 580.46698008z m-260.6528206 153.91912324a152.15300156 152.15300156 0 1 0-156.45167402-152.11967871 154.51893721 154.51893721 0 0 0 156.45167402 152.05303213zM893.88204102 195.28595829999995h-88.93919444v86.0734125a50.35111348 50.35111348 0 0 1-25.75871015 44.58622852 53.31686396 53.31686396 0 0 1-52.61708057 0 50.21782119 50.21782119 0 0 1-25.75871016-44.31964395v-86.33999707h-88.43934814a52.68372627 52.68372627 0 0 1-45.95247246-25.02560303 49.48471494 49.48471494 0 0 1 0-51.15086719 52.38381885 52.38381885 0 0 1 44.75284277-25.05892587h89.60565498v-86.33999708a50.55105234 50.55105234 0 0 1 23.32612793-42.15364628l-8.86392861-8.6306669 37.6217121 0.19993799a51.68403545 51.68403545 0 0 1 51.98394287 50.61769805V93.95059276999996h89.10580958a50.6510209 50.6510209 0 1 1-0.0666457 101.33536553z"  horiz-adv-x="1024" />

    
    <glyph glyph-name="icon_huoqushenhe_normal" unicode="&#59178;" d="M982.33333349-66H208.33333349A146.1999999 146.1999999 0 0 0 62 80.30000010000003v240.73333329A146.1999999 146.1999999 0 0 0 208.33333349 467.33333349H228.66666699v-100.00000019h-20.3333335A46.26666651 46.26666651 0 0 1 162.0000002 321.03333339999995v-240.7333333A46.26666651 46.26666651 0 0 1 208.33333349 34.000000200000045h774A46.26666651 46.26666651 0 0 1 1028.6666668 80.30000010000003v240.73333329A46.26666651 46.26666651 0 0 1 982.33333349 367.33333330000005H962v100.00000019h20.33333349A146.40000029 146.40000029 0 0 0 1128.666667 321.03333339999995v-240.7333333A146.40000029 146.40000029 0 0 0 982.33333349-66zM782.3333331 834H408.33333301A146.1999999 146.1999999 0 0 1 262.00000039 687.6999999v-407.40000029A146.1999999 146.1999999 0 0 1 408.33333301 134.00000038999997h374.00000009A146.40000029 146.40000029 0 0 1 928.6666666 280.29999961V687.6999999A146.40000029 146.40000029 0 0 1 782.3333331 834zM828.66666641 280.29999961A46.26666651 46.26666651 0 0 0 782.3333331 233.99999971H408.33333301A46.26666651 46.26666651 0 0 0 361.99999971 280.29999961V687.6999999A46.26666651 46.26666651 0 0 0 408.33333301 733.9999998000001h374.00000009A46.26666651 46.26666651 0 0 0 828.66666641 687.6999999v-407.40000029zM678.66666699 534.00000029h-166.66666699a50.0000001 50.0000001 0 0 0 0 99.99999932h166.66666699a50.0000001 50.0000001 0 0 0 1e-8-99.99999932z m-166.66666699-66.6666668h166.66666699a50.0000001 50.0000001 0 0 0 1e-8-100.00000019h-166.666667a50.0000001 50.0000001 0 0 0 0 100.00000019z"  horiz-adv-x="1213" />

    
    <glyph glyph-name="icon_kehuliebiao_normal" unicode="&#59179;" d="M788.78214248 834H235.21785752A141.075 141.075 0 0 1 94.14285752 692.925v-617.85A141.075 141.075 0 0 1 235.21785752-66h553.56428496A141.075 141.075 0 0 1 929.85714248 75.07500000000005V692.925A141.075 141.075 0 0 1 788.78214248 834zM833.42857168 75.07500000000005A44.64642832 44.64642832 0 0 0 788.78214248 30.428571680000005H235.21785752A44.64642832 44.64642832 0 0 0 190.57142832 75.07500000000005V692.925A44.64642832 44.64642832 0 0 0 235.21785752 737.57142832h553.56428496A44.64642832 44.64642832 0 0 0 833.42857168 692.925v-617.85zM656.64285752 448.28571416h-289.28571504a48.21428584 48.21428584 0 0 0 0 96.42857168h289.28571504a48.21428584 48.21428584 0 0 0 0-96.42857168z m-289.28571504-128.57142832h289.28571504a48.21428584 48.21428584 0 0 0 0-96.42857168h-289.28571504a48.21428584 48.21428584 0 0 0 0 96.42857168z"  horiz-adv-x="1024" />

    
    <glyph glyph-name="icon_kehuchengjiao_normal" unicode="&#59180;" d="M393.37548133 27.909122000000025m62.006491 0l620.064913 0q62.006491 0 62.006491-62.006492l0 0q0-62.006491-62.006491-62.006491l-620.064913 0q-62.006491 0-62.006491 62.006491l0 0q0 62.006491 62.006491 62.006492ZM925.39117633 519.465582l0.310033 0.589061-34.723635 32.367389a110.278545 110.278545 0 0 1-102.310711 23.717483L607.29787633 745.541249a89.909412 89.909412 0 0 1 4.030422 27.344863 94.528896 94.528896 0 0 1-30.383181 68.765198l-30.073148 27.902921a110.123529 110.123529 0 0 1-144.475125 0L226.57801933 701.60965a92.699705 92.699705 0 0 1 1.860195-135.515187l31.933343-29.546093a106.403139 106.403139 0 0 1 100.140483-22.229327l5.270552-5.022526-309.102359-288.76423a108.108318 108.108318 0 0 1 0-159.914741 125.563145 125.563145 0 0 1 168.967689 0l310.342489 289.694327 6.200649-5.704597a88.514266 88.514266 0 0 1-4.340454-27.003827 94.094851 94.094851 0 0 1 30.38318-68.734196l31.933343-29.639102a110.650584 110.650584 0 0 1 139.204573-1.519159L920.43065733 386.523664l2.48026 2.046214a93.536792 93.536792 0 0 1 28.212953 67.060021 91.80061 91.80061 0 0 1-25.732694 63.835683z m-444.896575-117.254276L171.70227433 113.47807999999998a47.713995 47.713995 0 0 0-60.766361 0 37.54493 37.54493 0 0 0-12.091266 27.344862 36.707843 36.707843 0 0 0 12.091266 26.941821l310.342489 289.756334z m244.305576 129.99661l-136.414281-127.392337L424.37872633 558.064622l136.414281 127.268324z m-190.979993 240.678196a23.779489 23.779489 0 0 0-4.340455-13.765442l-180.748922-168.130601a27.406869 27.406869 0 0 0-35.963765 0l-30.383181 28.429977a20.989197 20.989197 0 0 0-6.820714 15.501622 22.415347 22.415347 0 0 0 6.820714 15.687643l177.95863 165.960374a27.406869 27.406869 0 0 0 18.291915 6.88272 26.445769 26.445769 0 0 0 17.981883-6.820714l30.073148-27.902921a21.082207 21.082207 0 0 0 7.130747-15.842658z m339.795572-317.194207a22.136317 22.136317 0 0 0-6.820714-15.811655l-177.95863-166.239403a27.561885 27.561885 0 0 0-36.273798 0l-30.073148 28.119944a22.012304 22.012304 0 0 0-6.820714 15.904665 22.725379 22.725379 0 0 0 6.820714 15.687642l177.95863 166.11539a28.088941 28.088941 0 0 0 36.273798 0l30.073148-28.150947a21.702272 21.702272 0 0 0 6.820714-15.563629z"  horiz-adv-x="1152" />

    
    <glyph glyph-name="icon_kehuxiaofei_normal" unicode="&#59181;" d="M1005.25602129 638.54204516h-124.94770422V714.23889021a97.96513211 97.96513211 0 0 1-103.10101941 91.44945482H441.45825194a98.42506238 98.42506238 0 0 1-103.10102023-91.44945482v-75.69684505H214.17607765A95.81879197 95.81879197 0 0 1 111.45833333 551.50025464v-502.09046823a95.81879197 95.81879197 0 0 1 102.71774433-87.04178971H1004.48947111A97.35189231 97.35189231 0 0 1 1107.97376561 49.40978641000004V551.50025464a96.12541187 96.12541187 0 0 1-102.71774432 87.04179052z m-231.88147531 0H445.29100362v77.03830784h327.70026645a1.64808352 1.64808352 0 0 0 0.38327591-1.3414628v-75.69684504zM338.35723171 510.64312179a70.25433784 70.25433784 0 0 1-33.72821493-58.3728077 88.80485642 88.80485642 0 0 1 175.15675113 0 71.44249109 71.44249109 0 0 1-34.49476429 58.94772034V548.0507780400001h328.08354236v-37.13936352a70.79092327 70.79092327 0 0 1-34.11149002-58.64110043 88.80485642 88.80485642 0 0 1 175.15675112 0 70.79092327 70.79092327 0 0 1-34.11149001 58.64110043V548.0507780400001h121.11495254v-496.07304757H218.00882933V548.0507780400001h120.34840237v-37.56096578zM341.42343321 345.68149009h536.58523252v-191.63758311H341.42343321z"  horiz-adv-x="1210" />

    
    <glyph glyph-name="icon_kehushenhe_normal" unicode="&#59182;" d="M742.32356065 456.58381084V706.57848779A40.32546855 40.32546855 0 0 1 701.99809297 746.90395635H202.00873818A40.32546855 40.32546855 0 0 1 161.68326963 706.57848779v-558.05338388A40.32546855 40.32546855 0 0 1 202.00873818 108.19963535H481.03542969l-58.06402911-87.09604365H202.00873818A127.42151221 127.42151221 0 0 0 74.58722597 148.52510390999998V706.57848779A127.42151221 127.42151221 0 0 0 202.00873818 834h499.98935479A127.42151221 127.42151221 0 0 0 829.4196043 706.57848779V514.64783994zM582.64748106 514.64783994h-261.28813184a43.54802227 43.54802227 0 0 0 0 87.09604365h261.28813183a43.54802227 43.54802227 0 0 0 0-87.09604365z m-261.28813184-87.09604366h261.28813183a43.54802227 43.54802227 0 0 0 0-87.09604365h-261.28813183a43.54802227 43.54802227 0 0 0 0 87.09604365zM941.36705263-8.160678220000023a25.69333271 25.69333271 0 0 0 1.97417726-35.24486573 32.80617685 32.80617685 0 0 0-54.69631524-12.65795859l-72.58003682 72.58003593A194.13708135 194.13708135 0 0 0 510.06744424 175.40874989999998a195.58868203 195.58868203 0 1 0 386.12579414-27.49331865 195.32739375 195.32739375 0 0 0-30.74490351-80.12835967z m-109.91520703 183.56942812a127.27635205 127.27635205 0 1 1-218.4078454-88.51861318 131.71825019 131.71825019 0 0 1 116.8538581-36.14485781 127.5086083 127.5086083 0 0 1 101.5539873 124.66347099z"  horiz-adv-x="1024" />

    
    <glyph glyph-name="icon_xitongtixing" unicode="&#59183;" d="M512.026947 685.810526a250.502737 250.502737 0 0 0 181.571369-79.117473 277.504 277.504 0 0 0 75.183158-190.949053v-174.241684a122.556632 122.556632 0 0 1 21.557894-69.578105l40.528843-60.038737H193.293474l40.528842 60.038737a122.556632 122.556632 0 0 1 21.557895 69.578105V415.744a277.396211 277.396211 0 0 0 75.183157 190.949053A250.610526 250.610526 0 0 0 512.026947 685.810526z m0 90.004211a351.663158 351.663158 0 0 1-342.447158-360.124632v-174.187789a30.72 30.72 0 0 0-5.389473-17.354105L91.432421 116.682105a62.679579 62.679579 0 0 1-4.257684-62.302316 56.858947 56.858947 0 0 1 50.768842-32.336842h748.166737a57.020632 57.020632 0 0 1 50.768842 32.336842 62.679579 62.679579 0 0 1-4.257684 62.302316l-72.757895 107.466106a31.205053 31.205053 0 0 0-5.389474 17.354105V415.744a351.555368 351.555368 0 0 1-342.393263 360.016842z m28.510316 29.965474H483.462737a45.109895 45.109895 0 0 0 0 90.058105h57.074526a45.109895 45.109895 0 0 0 0-90.058105zM611.893895-128H440.670316a45.056 45.056 0 0 0 0 90.004211h171.223579a45.056 45.056 0 0 0 0-90.004211z m0 0M509.332211 539.540211a146.108632 146.108632 0 0 0 98.19621-37.025685 120.832 120.832 0 0 0 40.690526-89.303579v-105.903158a52.008421 52.008421 0 0 1 11.533474-32.336842l21.935158-28.079158h-344.926316l21.935158 28.079158a51.738947 51.738947 0 0 1 11.587368 32.336842V413.210947a120.724211 120.724211 0 0 0 40.636632 89.303579 146.216421 146.216421 0 0 0 98.250105 37.025685z"  horiz-adv-x="1024" />

    
    <glyph glyph-name="icon_xiaofeizonglan" unicode="&#59184;" d="M255.944492 448.040191h639.86123v-319.930615H255.944492zM1032.863998 693.107042h-144.41668V784.991115A115.175021 115.175021 0 0 1 769.689074 895.943052H381.421279a116.326772 116.326772 0 0 1-119.334119-111.015923v-91.884073h-143.328916A112.935507 112.935507 0 0 1 0 587.465953v-609.787752A112.935507 112.935507 0 0 1 118.758244-127.834916h913.529879A114.087257 114.087257 0 0 1 1151.750214-22.321799v609.787752a112.935507 112.935507 0 0 1-118.886216 105.641089z m-267.973884 0H385.644363V784.991115a6.398612 6.398612 0 0 0 0 1.663639h378.861835a6.398612 6.398612 0 0 0 0-1.663639V693.107042zM262.343104 537.620763a86.893155 86.893155 0 0 1-38.903562-70.896624 101.929894 101.929894 0 0 1 202.452093 0 86.893155 86.893155 0 0 1-39.991327 71.600472v44.790286h379.245751v-45.110217a86.829169 86.829169 0 0 1-39.415452-71.216555 101.929894 101.929894 0 0 1 202.452093 0 86.893155 86.893155 0 0 1-39.479438 71.216555v45.110217h140.193596V-19.058507H122.981328V583.306855H262.343104v-45.430147z"  horiz-adv-x="1152" />

    
    <glyph glyph-name="icon_kehushuliang" unicode="&#59185;" d="M784.207228 324.667817H665.467227a71.88092 71.88092 0 0 1-39.807471-11.373563 390.909369 390.909369 0 0 1-359.461466-30.708621 365.432587 365.432587 0 0 1-171.228995-307.654886 47.541494 47.541494 0 0 0-95.026121 0A461.311725 461.311725 0 0 0 298.669813 402.576725a270.577069 270.577069 0 0 0-92.922012 307.086208 288.092357 288.092357 0 0 0 538.765691 0 270.633937 270.633937 0 0 0-92.865144-307.086208 475.073737 475.073737 0 0 0 132.388276-77.908908z m239.470374-4.549425a75.975402 75.975402 0 0 1-25.647385 4.549425H915.685619a238.27615 238.27615 0 0 1-169.295489 108.048851 317.038075 317.038075 0 0 1 55.161782 124.540517 136.482759 136.482759 0 0 1 50.839827 135.345403 140.179167 140.179167 0 0 1-100.599167 105.774138 334.837702 334.837702 0 0 1-94.798649 90.988506 240.152788 240.152788 0 0 0 267.278736-119.422414 224.798477 224.798477 0 0 0-56.867816-279.220978 329.037185 329.037185 0 0 0 156.329626-170.603448zM475.30125 434.99138a191.587673 191.587673 0 0 1 164.632328 92.125863 179.41796 179.41796 0 0 1 0 184.251724 191.587673 191.587673 0 0 1-164.632328 92.125862 184.36546 184.36546 0 1 1 0-368.503449z m0 0M722.335044 240.503449h285.078362a46.062931 46.062931 0 1 0 0-92.125862H722.335044a46.062931 46.062931 0 1 0 0 92.125862z m0-138.188793h285.078362a46.062931 46.062931 0 1 0 0-92.125863H722.335044a46.062931 46.062931 0 1 0 0 92.125863z m0-138.188794h285.078362a46.062931 46.062931 0 1 0 0-92.125862H722.335044a46.062931 46.062931 0 1 0 0 92.125862z m0 0"  horiz-adv-x="1055" />

    
    <glyph glyph-name="icon_huancun" unicode="&#59186;" d="M190.26637 259.373757h485.025573l161.67519-269.458651h-646.700763v269.458651zM996.486655 384.564246V512.664889a66.987421 66.987421 0 0 1-68.981415 64.077267h-277.003493V764.177594A136.022727 136.022727 0 0 1 515.233504 895.511741 128.747344 128.747344 0 0 1 414.994886 860.266549a123.95098 123.95098 0 0 1-41.496633-91.292591v-192.17791H96.49476A66.66407 66.66407 0 0 1 27.513345 512.718781v-128.154535a66.502395 66.502395 0 0 1 63.592242-64.077267L27.513345-91.138057a26.945865 26.945865 0 0 1 8.622677-25.652463 38.370912 38.370912 0 0 1 25.86803-11.20948h899.991896a38.370912 38.370912 0 0 1 25.86803 11.20948 28.239267 28.239267 0 0 1 8.622677 25.652463l-24.251279 160.166223a35.784109 35.784109 0 0 1-39.87988 27.215324 32.335038 32.335038 0 0 1-29.101534-36.861944l18.862105-123.35817H101.883933l58.741986 384.409711h701.13141l10.239429-65.694019a33.035631 33.035631 0 0 1 34.490707-27.215324h5.389173a32.335038 32.335038 0 0 1 29.101535 36.861944l-8.622677 56.047399a66.556287 66.556287 0 0 1 64.131159 64.077268zM96.49476 512.718781h311.494201a33.143414 33.143414 0 0 1 34.490707 32.011688V768.973958a61.490464 61.490464 0 0 0 21.017775 46.454672 71.298759 71.298759 0 0 0 50.119309 17.622596 69.250873 69.250873 0 0 0 67.364663-68.873632v-219.177667a33.62844 33.62844 0 0 1 35.029624-32.065579h311.494201v-128.154535H96.49476V512.664889z m0 0l207.483161-283.524393-34.490707-192.17791a33.251198 33.251198 0 0 1 28.0237-36.861943h4.850255a35.299083 35.299083 0 0 1 35.029625 27.215323l34.490707 192.17791a33.251198 33.251198 0 0 1-28.023699 36.861944 35.083516 35.083516 0 0 1-39.879881-27.215324z m0 0"  horiz-adv-x="1024" />

    
    <glyph glyph-name="icon_daichulishiwu" unicode="&#59187;" d="M447.98852 576.0082h575.985241v-447.988521H255.99344zM1075.172449-127.973761H76.798032A74.814083 74.814083 0 0 0 0-55.527617V743.043919a74.558089 74.558089 0 0 0 76.158048 71.870159h168.955671v11.583703a73.726111 73.726111 0 0 0 147.196228 0v-11.583703h367.99057v11.583703a73.726111 73.726111 0 0 0 147.196228 0v-11.583703h168.315687A75.006078 75.006078 0 0 0 1151.970481 743.043919v-798.571536A74.814083 74.814083 0 0 0 1075.172449-127.973761z m-30.719213 850.218213h-136.956491V710.404756a73.726111 73.726111 0 0 0-147.196228 0v11.647701H392.309947V710.404756a73.726111 73.726111 0 0 0-147.196228 0v11.647701H107.517245a8.319787 8.319787 0 0 1-8.959771-7.551806V-25.576385h952.295598c0 15.103613 0 642.607533 0.639983 661.743043 0.639984 22.591421 0.639984 41.086947 1.279968 54.462605 0 8.063793 0 16.76757 0.639983 23.743391a8.319787 8.319787 0 0 1-8.95977 7.871798zM567.02547 119.699893a51.838672 51.838672 0 0 0-69.758212 0L289.912571 316.11086a44.350864 44.350864 0 0 0 0 65.406324 51.198688 51.198688 0 0 0 69.118229 0L532.466356 217.617384l295.032439 278.648859a51.198688 51.198688 0 0 0 69.118229 0A46.014821 46.014821 0 0 0 895.977041 430.795921z"  horiz-adv-x="1152" />

    


  </font>
</defs>
</svg>
