<svg id="组_5" data-name="组 5" xmlns="http://www.w3.org/2000/svg" width="148.53" height="102.969" viewBox="0 0 148.53 102.969">
  <metadata><?xpacket begin="﻿" id="W5M0MpCehiHzreSzNTczkc9d"?>
<x:xmpmeta xmlns:x="adobe:ns:meta/" x:xmptk="Adobe XMP Core 5.6-c138 79.159824, 2016/09/14-01:09:01        ">
   <rdf:RDF xmlns:rdf="http://www.w3.org/1999/02/22-rdf-syntax-ns#">
      <rdf:Description rdf:about=""/>
   </rdf:RDF>
</x:xmpmeta>
                                                                                                    
                                                                                                    
                                                                                                    
                                                                                                    
                                                                                                    
                                                                                                    
                                                                                                    
                                                                                                    
                                                                                                    
                                                                                                    
                                                                                                    
                                                                                                    
                                                                                                    
                                                                                                    
                                                                                                    
                                                                                                    
                                                                                                    
                                                                                                    
                                                                                                    
                                                                                                    
                           
<?xpacket end="w"?></metadata>
<defs>
    <style>
      .cls-1 {
        fill: #f6f7fb;
      }

      .cls-1, .cls-3, .cls-7 {
        fill-rule: evenodd;
      }

      .cls-2, .cls-3 {
        fill: none;
      }

      .cls-2, .cls-3, .cls-4, .cls-7 {
        stroke: #b3c5df;
        stroke-width: 2px;
      }

      .cls-4, .cls-7 {
        fill: #fff;
      }

      .cls-5 {
        fill: #f1f5f8;
      }

      .cls-6 {
        fill: #dae5ef;
      }

      .cls-8 {
        fill: #e8edf5;
      }
    </style>
  </defs>
  <g id="固定bg">
    <path id="矩形_19" data-name="矩形 19" class="cls-1" d="M1125.23,366.976h-78.09c-0.05,0-.09-0.007-0.14-0.007h-28.09c-0.05,0-.1.006-0.14,0.007h-0.37a7,7,0,0,1-7-7V358.96a7,7,0,0,1,6.82-6.991h28.69a6.5,6.5,0,0,0,6.5-6.5v-0.938a6.5,6.5,0,0,0-6.5-6.5h-1.04v-0.015h-12.39a7,7,0,0,1-7-7V330a7,7,0,0,1,7-7h62.66a7,7,0,0,1,7,7v1.016a7,7,0,0,1-7,7h-10.2a6.5,6.5,0,0,0-6.5,6.5v0.944a6.5,6.5,0,0,0,6.5,6.5h39.29a7,7,0,0,1,7,7v1.016A7,7,0,0,1,1125.23,366.976Zm-12.93,16.088a7,7,0,0,1,7,7v1.017a7,7,0,0,1-7,7H995a7,7,0,0,1-7-7v-1.017a7,7,0,0,1,7-7h117.3Zm-91.75,27.887h108.99a7,7,0,0,1,7,7v1.017a7,7,0,0,1-7,7H1020.55a7,7,0,0,1-7-7v-1.017A7,7,0,0,1,1020.55,410.951Z" transform="translate(-988 -323)"/>
    <circle id="椭圆_11" data-name="椭圆 11" class="cls-2" cx="125" cy="23" r="4"/>
    <circle id="椭圆_11_拷贝" data-name="椭圆 11 拷贝" class="cls-2" cx="14" cy="44" r="4"/>
    <path id="圆角矩形_5" data-name="圆角矩形 5" class="cls-3" d="M1007.95,402.464L1004.41,406l3.54,3.535a1,1,0,0,1-1.41,1.415l-3.54-3.536-3.536,3.536a1,1,0,0,1-1.414-1.415l3.54-3.535-3.54-3.536a1,1,0,0,1,1.414-1.414l3.536,3.536,3.54-3.536A1,1,0,1,1,1007.95,402.464Z" transform="translate(-988 -323)"/>
    <circle id="椭圆_11_拷贝_2" data-name="椭圆 11 拷贝 2" class="cls-2" cx="134" cy="84" r="4"/>
  </g>
  <g id="组_3" data-name="组 3">
    <rect id="圆角矩形_1" data-name="圆角矩形 1" class="cls-4" x="43" y="19" width="57" height="70" rx="4" ry="4"/>
    <rect id="圆角矩形_1_拷贝_3" data-name="圆角矩形 1 拷贝 3" class="cls-5" x="48" y="21" width="50" height="66"/>
    <path id="形状_2" data-name="形状 2" class="cls-3" d="M1033,351h53" transform="translate(-988 -323)"/>
    <rect id="圆角矩形_2" data-name="圆角矩形 2" class="cls-6" x="54" y="53" width="39" height="2"/>
    <rect id="圆角矩形_2_拷贝_4" data-name="圆角矩形 2 拷贝 4" class="cls-6" x="54" y="43" width="39" height="2"/>
    <rect id="圆角矩形_2_拷贝" data-name="圆角矩形 2 拷贝" class="cls-6" x="54" y="63" width="39" height="2"/>
    <rect id="圆角矩形_2_拷贝_2" data-name="圆角矩形 2 拷贝 2" class="cls-6" x="54" y="73" width="15" height="2"/>
  </g>
  <g id="组_3_拷贝" data-name="组 3 拷贝">
    <rect id="圆角矩形_1-2" data-name="圆角矩形 1" class="cls-4" x="54" y="13" width="55" height="67" rx="4" ry="4"/>
    <path id="形状_2-2" data-name="形状 2" class="cls-3" d="M1044,347h51" transform="translate(-988 -323)"/>
    <rect id="圆角矩形_2-2" data-name="圆角矩形 2" class="cls-6" x="65" y="55" width="25" height="2"/>
    <rect id="圆角矩形_2_拷贝_4-2" data-name="圆角矩形 2 拷贝 4" class="cls-6" x="65" y="45" width="27" height="2"/>
    <rect id="圆角矩形_2_拷贝_5" data-name="圆角矩形 2 拷贝 5" class="cls-6" x="65" y="35" width="33" height="2"/>
    <rect id="圆角矩形_2_拷贝-2" data-name="圆角矩形 2 拷贝" class="cls-6" x="65" y="65" width="28" height="2"/>
    <rect id="圆角矩形_3" data-name="圆角矩形 3" class="cls-4" x="68" y="8" width="27" height="12" rx="4" ry="4"/>
    <path id="搜索" class="cls-7" d="M1105.59,387.636l-4.98-4.976a11.691,11.691,0,1,0-1.96,1.959l4.98,4.977a1.386,1.386,0,1,0,1.96-1.96h0Z" transform="translate(-988 -323)"/>
    <circle id="椭圆_13" data-name="椭圆 13" class="cls-8" cx="103.5" cy="52.5" r="6.5"/>
  </g>
</svg>
