<?xml version="1.0" encoding="utf-8"?>
<!-- Generator: Adobe Illustrator 21.0.0, SVG Export Plug-In . SVG Version: 6.00 Build 0)  -->
<svg version="1.1" id="Layer_1" xmlns="http://www.w3.org/2000/svg" xmlns:xlink="http://www.w3.org/1999/xlink" x="0px" y="0px"
	 viewBox="0 0 1000 704.6" style="enable-background:new 0 0 1000 704.6;" xml:space="preserve">
<style type="text/css">
	.st0{opacity:0.15;}
	.st1{fill:url(#SVGID_1_);}
	.st2{fill:url(#SVGID_2_);}
	.st3{fill:url(#SVGID_3_);}
	.st4{fill:url(#SVGID_4_);}
	.st5{fill:url(#SVGID_5_);}
	.st6{fill:url(#SVGID_6_);}
	.st7{fill:url(#SVGID_7_);}
	.st8{fill:url(#SVGID_8_);}
	.st9{fill:url(#SVGID_9_);}
	.st10{fill:url(#SVGID_10_);}
	.st11{fill:url(#SVGID_11_);}
	.st12{fill:url(#SVGID_12_);}
	.st13{opacity:0.3;}
	.st14{fill:#313949;}
	.st15{fill:#54B0AD;}
	.st16{fill:#FFFFFF;}
	.st17{fill:url(#SVGID_13_);}
	.st18{fill:url(#SVGID_14_);}
	.st19{fill:none;stroke:#FFFFFF;stroke-width:2;stroke-linecap:round;stroke-linejoin:round;stroke-miterlimit:10;}
	.st20{fill:url(#SVGID_15_);}
	.st21{fill:url(#SVGID_16_);}
	.st22{fill:none;stroke:#FFFFFF;stroke-width:2;stroke-miterlimit:10;}
	.st23{fill:url(#SVGID_17_);}
	.st24{fill:#191C42;}
	.st25{fill:#DBDBDB;}
	.st26{fill:#1DB0AD;}
	.st27{fill:#A4A6AF;}
	.st28{fill:#EFF0F0;}
	.st29{fill:#878787;}
	.st30{fill:#575757;}
	.st31{fill:#5BB947;}
	.st32{fill:#888888;}
	.st33{fill:none;stroke:#E5E5E4;stroke-width:0.25;stroke-miterlimit:10;}
	.st34{fill:#E3E7EF;}
	.st35{fill:none;}
	.st36{fill:url(#SVGID_18_);}
	.st37{fill:url(#SVGID_19_);}
	.st38{enable-background:new    ;}
	.st39{fill:url(#SVGID_20_);}
	.st40{fill:url(#SVGID_21_);}
	.st41{fill:url(#SVGID_22_);}
	.st42{fill:url(#SVGID_23_);}
	.st43{fill:url(#SVGID_24_);}
	.st44{fill:url(#SVGID_25_);}
	.st45{fill:url(#SVGID_26_);}
	.st46{fill:url(#SVGID_27_);}
	.st47{opacity:0.45;fill:url(#SVGID_28_);enable-background:new    ;}
	.st48{fill:url(#SVGID_29_);}
	.st49{fill:url(#SVGID_30_);}
	.st50{fill:url(#SVGID_31_);}
	.st51{fill:url(#SVGID_32_);}
	.st52{fill:#444444;}
	.st53{fill:#4AB6F2;}
	.st54{fill:#5BA7C6;}
	.st55{fill:#CECECE;}
	.st56{fill:none;stroke:#EFF0F0;stroke-width:0.25;stroke-miterlimit:10;}
	.st57{clip-path:url(#SVGID_34_);}
	.st58{fill:#FFF2C8;}
	.st59{fill:#FFAC00;}
	.st60{fill:#F95B5D;}
	.st61{fill:#56AAE1;}
	.st62{fill:none;stroke:#C1C1C1;stroke-width:0.25;stroke-miterlimit:10;}
	.st63{fill:url(#SVGID_35_);}
	.st64{fill:#282E5B;}
	.st65{fill:#A30423;}
	.st66{fill:#FF0031;}
	.st67{fill:url(#SVGID_36_);}
	.st68{fill:url(#SVGID_37_);}
	.st69{fill:url(#SVGID_38_);}
	.st70{fill:url(#SVGID_39_);}
	.st71{fill:url(#SVGID_40_);}
	.st72{fill:#449692;}
	.st73{fill:none;stroke:#FFFFFF;stroke-miterlimit:10;stroke-dasharray:4,4;}
	.st74{fill:#1976D2;}
	.st75{fill:url(#SVGID_41_);}
	.st76{fill:url(#SVGID_42_);}
	.st77{fill:url(#SVGID_43_);}
	.st78{fill:url(#SVGID_44_);}
	.st79{fill:url(#SVGID_45_);}
	.st80{fill:url(#SVGID_46_);}
	.st81{fill:#A6ADCB;}
	.st82{fill:url(#SVGID_47_);}
	.st83{fill:url(#SVGID_48_);}
	.st84{opacity:0.6;fill:#EEF6FF;enable-background:new    ;}
	.st85{opacity:0.6;fill:none;stroke:#EEF6FF;stroke-width:2;stroke-miterlimit:10;enable-background:new    ;}
	.st86{fill:url(#SVGID_49_);}
	.st87{fill:url(#SVGID_50_);}
	.st88{fill:url(#SVGID_51_);}
	.st89{fill:#C2C6D8;}
	.st90{fill:#8E97B9;}
	.st91{fill:url(#SVGID_52_);}
	.st92{fill:url(#SVGID_53_);}
	.st93{fill:url(#SVGID_54_);}
	.st94{fill:url(#SVGID_55_);}
	.st95{fill:url(#SVGID_56_);}
	.st96{fill:url(#SVGID_57_);}
	.st97{opacity:0.4;enable-background:new    ;}
	.st98{fill:url(#SVGID_58_);}
	.st99{fill:url(#SVGID_59_);}
	.st100{fill:url(#SVGID_60_);}
	.st101{opacity:0.35;fill:#EEF6FF;enable-background:new    ;}
	.st102{fill:url(#SVGID_61_);}
	.st103{fill:url(#SVGID_62_);}
	.st104{fill:#EEF6FF;}
	.st105{fill:url(#SVGID_63_);}
	.st106{fill:url(#SVGID_64_);}
	.st107{fill:url(#SVGID_65_);}
	.st108{fill:url(#SVGID_66_);}
	.st109{opacity:0.4;fill:url(#SVGID_67_);enable-background:new    ;}
	.st110{opacity:0.4;fill:url(#SVGID_68_);enable-background:new    ;}
	.st111{clip-path:url(#SVGID_70_);}
	.st112{fill:#818285;}
	.st113{fill:#D1D2D4;}
	.st114{fill:url(#SVGID_71_);}
	.st115{opacity:0.6;}
	.st116{fill:#0C5E9D;}
	.st117{font-family:'ArialMT';}
	.st118{font-size:14.3739px;}
	.st119{fill:#CE0220;}
	.st120{fill:url(#SVGID_72_);}
	.st121{fill:url(#SVGID_73_);}
	.st122{fill:url(#SVGID_74_);}
	.st123{fill:url(#SVGID_75_);}
	.st124{fill:url(#SVGID_76_);}
	.st125{fill:url(#SVGID_77_);}
	.st126{fill:url(#SVGID_78_);}
	.st127{fill:url(#SVGID_79_);}
	.st128{fill:url(#SVGID_80_);}
	.st129{fill:#C0D8FF;}
	.st130{fill:url(#SVGID_81_);}
	.st131{fill:url(#SVGID_82_);}
	.st132{fill:url(#SVGID_83_);}
	.st133{fill:url(#SVGID_84_);}
	.st134{fill:#88B6FF;}
	.st135{fill:url(#SVGID_85_);}
	.st136{fill:url(#SVGID_86_);}
	.st137{fill:url(#SVGID_87_);}
	.st138{fill:url(#SVGID_88_);}
	.st139{fill:url(#SVGID_89_);}
	.st140{fill:#EAEEEF;}
	.st141{fill:#FF4379;}
	.st142{fill:url(#SVGID_90_);}
	.st143{fill:url(#SVGID_91_);}
</style>
<g>
	<g class="st0">
		<path d="M1000,415.8L500.1,127.3L0,415.8l500.1,288.6L1000,415.8z"/>
	</g>
	<g>
		
			<linearGradient id="SVGID_1_" gradientUnits="userSpaceOnUse" x1="-476.416" y1="-150.9159" x2="-478.1188" y2="-150.9159" gradientTransform="matrix(587.2599 0 0 338.94 280779.9688 51534.293)">
			<stop  offset="0" style="stop-color:#E7F3F8"/>
			<stop  offset="1" style="stop-color:#F5F5F5"/>
		</linearGradient>
		<path class="st1" d="M1000,382.8L500.1,94.3L0,382.8l500.1,288.6L1000,382.8z"/>
		
			<linearGradient id="SVGID_2_" gradientUnits="userSpaceOnUse" x1="-475.0599" y1="-149.9258" x2="-477.0674" y2="-151.1136" gradientTransform="matrix(293.67 0 0 180.84 140170.1563 27798.4512)">
			<stop  offset="0" style="stop-color:#D7DDE0"/>
			<stop  offset="1" style="stop-color:#FFFFFF"/>
		</linearGradient>
		<path class="st2" d="M0,382.8v19.3l500.1,288.6v-19.3L0,382.8z"/>
		
			<linearGradient id="SVGID_3_" gradientUnits="userSpaceOnUse" x1="-476.7611" y1="-149.796" x2="-477.3753" y2="-149.2161" gradientTransform="matrix(293.6 0 0 180.84 140430.2969 27798.4668)">
			<stop  offset="0" style="stop-color:#C1CBCF"/>
			<stop  offset="1" style="stop-color:#6CE8AB"/>
		</linearGradient>
		<path class="st3" d="M1000,402.1v-19.3L500.1,671.4v19.3L1000,402.1z"/>
	</g>
	<g>
		<g>
			<g>
				<linearGradient id="SVGID_4_" gradientUnits="userSpaceOnUse" x1="440" y1="288.1" x2="440" y2="40.3">
					<stop  offset="0" style="stop-color:#FFFFFF"/>
					<stop  offset="1" style="stop-color:#54B0AD"/>
				</linearGradient>
				<polygon class="st4" points="478.8,288.1 401.2,249.3 401.2,40.3 478.8,79.1 				"/>
				<linearGradient id="SVGID_5_" gradientUnits="userSpaceOnUse" x1="517.9" y1="288.3" x2="517.9" y2="39.7">
					<stop  offset="0" style="stop-color:#FFFFFF"/>
					<stop  offset="1" style="stop-color:#54B0AD"/>
				</linearGradient>
				<polygon class="st5" points="478.3,79.3 557.5,39.7 557.5,248.7 478.3,288.3 				"/>
				
					<linearGradient id="SVGID_6_" gradientUnits="userSpaceOnUse" x1="479.15" y1="624.7" x2="479.15" y2="702.3" gradientTransform="matrix(1 0 0 -1 0 704)">
					<stop  offset="0" style="stop-color:#F2F5F9"/>
					<stop  offset="1" style="stop-color:#D4FFF8"/>
				</linearGradient>
				<polygon class="st6" points="479.9,1.7 557.5,39.7 478.3,79.3 400.8,39.7 				"/>
			</g>
			<g>
				<linearGradient id="SVGID_7_" gradientUnits="userSpaceOnUse" x1="542.1" y1="338.3" x2="542.1" y2="143.9">
					<stop  offset="0" style="stop-color:#FFFFFF"/>
					<stop  offset="1" style="stop-color:#54B0AD"/>
				</linearGradient>
				<polygon class="st7" points="579.3,338.3 503.3,300.3 503.3,143.9 580.9,182.6 				"/>
				
					<linearGradient id="SVGID_8_" gradientUnits="userSpaceOnUse" x1="618.85" y1="365.7" x2="618.85" y2="560.9" gradientTransform="matrix(1 0 0 -1 0 704)">
					<stop  offset="0.3" style="stop-color:#E7F3F8"/>
					<stop  offset="1" style="stop-color:#54B0AD"/>
				</linearGradient>
				<polygon class="st8" points="579.3,182.6 658.4,143.1 658.4,299.6 579.3,338.3 				"/>
				
					<linearGradient id="SVGID_9_" gradientUnits="userSpaceOnUse" x1="580.05" y1="521.4" x2="580.05" y2="599" gradientTransform="matrix(1 0 0 -1 0 704)">
					<stop  offset="0" style="stop-color:#F2F5F9"/>
					<stop  offset="0.9946" style="stop-color:#D4FFF8"/>
				</linearGradient>
				<polygon class="st9" points="580.8,105 658.4,143.1 579.3,182.6 501.7,143.1 				"/>
			</g>
			<g>
				
					<linearGradient id="SVGID_10_" gradientUnits="userSpaceOnUse" x1="988.0781" y1="1348.3806" x2="988.0781" y2="1471.0569" gradientTransform="matrix(0.866 0.5 0 -1.1547 -195.2256 1443.3132)">
					<stop  offset="0.3" style="stop-color:#E7F3F8"/>
					<stop  offset="1" style="stop-color:#54B0AD"/>
				</linearGradient>
				<polygon class="st10" points="698.6,397.2 621,357.6 621,222.6 699.9,261.5 				"/>
				
					<linearGradient id="SVGID_11_" gradientUnits="userSpaceOnUse" x1="738.2" y1="306.8" x2="738.2" y2="481.4" gradientTransform="matrix(1 0 0 -1 0 704)">
					<stop  offset="0.3" style="stop-color:#E7F3F8"/>
					<stop  offset="1" style="stop-color:#54B0AD"/>
				</linearGradient>
				<polygon class="st11" points="698.6,262.1 777.8,222.6 777.8,357.6 698.6,397.2 				"/>
				
					<linearGradient id="SVGID_12_" gradientUnits="userSpaceOnUse" x1="699.4" y1="441.9" x2="699.4" y2="519.5" gradientTransform="matrix(1 0 0 -1 0 704)">
					<stop  offset="0" style="stop-color:#F2F5F9"/>
					<stop  offset="1" style="stop-color:#D4FFF8"/>
				</linearGradient>
				<polygon class="st12" points="700.2,184.5 777.8,222.6 698.6,262.1 621,222.6 				"/>
			</g>
		</g>
		<g class="st13">
			<path id="path1334_2_" class="st14" d="M504.8,21.7c-14.9-8.2-38.6-8.1-53.3,0.4c-14.9,8.6-14.9,22.6,0,31.2s39.1,8.6,54,0
				c14.9-8.6,14.9-22.6,0-31.2C505.3,22,505,21.9,504.8,21.7z M500.1,24.4c0.2,0.1,0.5,0.3,0.7,0.4c12.3,7.1,12.3,18.7,0,25.8
				s-32.4,7.1-44.7,0c-12.3-7.1-12.3-18.7,0-25.8C468.2,17.8,487.8,17.7,500.1,24.4z"/>
			<path class="st14" d="M483.8,45.7c1.9-1.1,2.8-2.2,3-3.5c0.1-1.2-0.9-2.9-3-5c-1.9-1.9-2.6-2.9-2.8-3.4c-0.2-0.5,0-0.9,0.5-1.2
				c0.6-0.3,1.3-0.4,2.2-0.3c0.9,0.1,1.7,0.4,3,1.1c2,1.2,3.1,1.9,3.4,3.7l6.1-0.1c0.3-1.9-1.8-4-4.1-5.5l3.9-2.3l-2.7-1.6l-4,2.3
				c-2.1-1-4.2-1.5-6.3-1.5c-2.7-0.1-5.1,0.6-7.3,1.9c-2.2,1.2-2.7,1.8-2.5,3.4c0.2,1.2,1.7,3.7,4.9,6.8c0.6,0.6,0.6,1.4,0.6,1.8
				c0,0.3-0.3,0.6-0.8,0.9c-0.7,0.4-2,1-3.1,0.8c-2.9-0.5-8-3.6-7.3-6l-6.5-0.2c-0.8,1.7,1.3,4.2,3.9,6.2l-3.9,2.2l2.7,1.6l3.7-2.2
				c2.6,1.4,5.5,1.8,8.4,1.9C478.9,47.6,481.5,47,483.8,45.7z"/>
		</g>
		<g>
			<path id="path1334_1_" class="st15" d="M504.8,18.1c-14.9-8.2-38.6-8.1-53.3,0.4c-14.9,8.6-14.9,22.6,0,31.2s39.1,8.6,54,0
				c14.9-8.6,14.9-22.6,0-31.2C505.3,18.3,505,18.2,504.8,18.1z M500.1,20.7c0.2,0.1,0.5,0.3,0.7,0.4c12.3,7.1,12.3,18.7,0,25.8
				s-32.4,7.1-44.7,0c-12.3-7.1-12.3-18.7,0-25.8C468.2,14.2,487.8,14,500.1,20.7z"/>
			<path class="st15" d="M483.8,42c1.9-1.1,2.8-2.2,3-3.5c0.1-1.2-0.9-2.9-3-5c-1.9-1.9-2.6-2.9-2.8-3.4c-0.2-0.5,0-0.9,0.5-1.2
				c0.6-0.3,1.3-0.4,2.2-0.3c0.9,0.1,1.7,0.4,3,1.1c2,1.2,3.1,1.9,3.4,3.7l6.1-0.1c0.3-1.9-1.8-4-4.1-5.5l3.9-2.3l-2.7-1.6l-4,2.3
				c-2.1-1-4.2-1.5-6.3-1.5c-2.7-0.1-5.1,0.6-7.3,1.9c-2.2,1.2-2.7,1.8-2.5,3.4c0.2,1.2,1.7,3.7,4.9,6.8c0.6,0.6,0.6,1.4,0.6,1.8
				c0,0.3-0.3,0.6-0.8,0.9c-0.7,0.4-2,1-3.1,0.8c-2.9-0.5-8-3.6-7.3-6l-6.5-0.2c-0.8,1.7,1.3,4.2,3.9,6.2l-3.9,2.2l2.7,1.6l3.7-2.2
				c2.6,1.4,5.5,1.8,8.4,1.9C478.9,43.9,481.5,43.3,483.8,42z"/>
		</g>
	</g>
	<g>
		<path class="st15" d="M181.2,19.4L148,0.3c-0.2-0.1-0.4-0.1-0.5-0.1l0,0h-3.7l4.6,2.6l28.9,16.7c0.6,0.3,1,1.2,1,2v12.9l-0.6,3.8
			h3.9c0.3-0.1,0.4-0.4,0.4-0.9V21.4C182.2,20.6,181.8,19.7,181.2,19.4z"/>
		<path class="st16" d="M177.4,19.4L147,1.9l-2.8-1.6c-0.6-0.3-1,0-1,0.8v15.8c0,0.8,0.5,1.7,1,2L177.4,38c0.6,0.3,1,0,1-0.8v-0.8
			v-15C178.4,20.6,177.9,19.7,177.4,19.4z"/>
		<g>
			<path class="st15" d="M190.5,86.7l-50.7-29.3l0,0l0,0l-3.2-1.8c-0.1-0.1-0.2-0.1-0.3-0.1l0,0l0,0c-0.1,0-0.1,0-0.2,0h-3.7
				l4.2,2.3l50.1,29c0.6,0.3,1,1.2,1,2v12.5l-0.6,4.3h3.6c0.4,0.1,0.8-0.3,0.8-0.9v-16C191.6,88,191.1,87.1,190.5,86.7z"/>
			<path class="st16" d="M186.7,86.7l-51.1-29.5l-2.8-1.6c-0.6-0.3-1,0-1,0.8v15.8c0,0.8,0.5,1.7,1,2l53.9,31.1c0.6,0.3,1,0,1-0.8
				v-0.8v-15C187.8,88,187.3,87.1,186.7,86.7z"/>
		</g>
		<g>
			
				<linearGradient id="SVGID_13_" gradientUnits="userSpaceOnUse" x1="-310.1356" y1="-749.7737" x2="-310.1356" y2="-740.3065" gradientTransform="matrix(0.866 0.5 0 -1.1547 367.2274 -644.1481)">
				<stop  offset="0" style="stop-color:#00CFFF;stop-opacity:0.9"/>
				<stop  offset="1" style="stop-color:#0041BF"/>
			</linearGradient>
			<polygon class="st17" points="79.6,46.8 79.6,55.6 117.7,77.5 117.7,68.8 			"/>
			
				<linearGradient id="SVGID_14_" gradientUnits="userSpaceOnUse" x1="96.75" y1="615.4042" x2="96.75" y2="659.3667" gradientTransform="matrix(1 0 0 -1 0 704)">
				<stop  offset="0" style="stop-color:#F2F5F9"/>
				<stop  offset="1" style="stop-color:#BFFFEA"/>
			</linearGradient>
			<polygon class="st18" points="79.6,46.8 75.8,44.6 75.8,55.6 117.7,79.7 117.7,77.5 117.7,68.8 			"/>
		</g>
		<line class="st19" x1="160.8" y1="28.4" x2="160.5" y2="71.2"/>
		<g>
			
				<linearGradient id="SVGID_15_" gradientUnits="userSpaceOnUse" x1="-236.4635" y1="-704.6099" x2="-236.4635" y2="-695.1427" gradientTransform="matrix(0.866 0.5 0 -1.1547 367.2274 -644.1481)">
				<stop  offset="0" style="stop-color:#00CFFF;stop-opacity:0.9"/>
				<stop  offset="1" style="stop-color:#0041BF"/>
			</linearGradient>
			<polygon class="st20" points="143.4,31.5 143.4,40.2 181.5,62.2 181.5,53.5 			"/>
			
				<linearGradient id="SVGID_16_" gradientUnits="userSpaceOnUse" x1="160.55" y1="630.7245" x2="160.55" y2="674.687" gradientTransform="matrix(1 0 0 -1 0 704)">
				<stop  offset="0" style="stop-color:#F2F5F9"/>
				<stop  offset="1" style="stop-color:#BFFFEA"/>
			</linearGradient>
			<polygon class="st21" points="143.4,31.5 139.6,29.3 139.6,40.2 181.5,64.4 181.5,62.2 181.5,53.5 			"/>
		</g>
		<polygon class="st15" points="143.4,29.3 139.6,29.3 143.4,31.5 181.5,53.5 181.5,62.2 181.5,64.4 185.3,64.4 185.3,53.5 		"/>
		<g>
			<path class="st15" d="M86.3,68.9L32.4,37.8c-0.2-0.1-0.3-0.1-0.5-0.1l0,0h-3.8l5.5,3l49,28.3c0.6,0.3,1,1.2,1,2v11.4L83,87.6h3.8
				l0,0c0.3,0,0.6-0.4,0.6-0.9V70.9C87.4,70.1,86.9,69.2,86.3,68.9z"/>
			<path class="st16" d="M82.5,68.9L31.4,39.4l-2.8-1.6c-0.6-0.3-1,0-1,0.8v15.8c0,0.8,0.5,1.7,1,2l53.9,31.1c0.6,0.3,1,0,1-0.8
				v-0.8v-15C83.6,70.1,83.1,69.2,82.5,68.9z"/>
		</g>
		<path class="st22" d="M150.5,84.5v5.2c0,2.2-1.6,3.1-3.5,2l-29.4-17"/>
		<path class="st22" d="M55.6,53.1V42.4c0-2.2,1.6-3.1,3.5-2l16.8,9.7"/>
		<polyline class="st19" points="159.5,69.2 160.5,71 161.7,70.4 		"/>
		<polyline class="st19" points="54.5,51.2 55.6,53.1 56.7,52.5 		"/>
		<polygon class="st15" points="86.5,48.6 79.6,44.6 75.8,44.6 79.6,46.8 79.8,47 82.7,48.6 117.7,68.8 117.7,74 117.7,74 
			117.7,79.7 121.5,79.7 121.5,74.2 121.5,68.8 		"/>
	</g>
	<g>
		<g>
			<g>
				
					<linearGradient id="SVGID_17_" gradientUnits="userSpaceOnUse" x1="379.85" y1="220.1" x2="379.85" y2="649.744" gradientTransform="matrix(1 0 0 -1 0 704)">
					<stop  offset="0" style="stop-color:#F2F5F9"/>
					<stop  offset="1" style="stop-color:#D6FCFF"/>
				</linearGradient>
				<path class="st23" d="M540.3,235.4L227.7,54.9c-1.3-0.8-2.5-0.8-3.4-0.3l-10.1,5.8l7.2,4.5l1.2-1.4l307.6,177.7
					c2.9,1.7,5.2,6.1,5.2,9.9v217.6l-1.9,15.2l9.6-5.6c1.5-0.4,2.4-2,2.4-4.5V245.4C545.5,241.5,543.1,237.1,540.3,235.4z"/>
				<path class="st24" d="M530.2,241.2L222.5,63.5l-4.9-2.8c-2.9-1.7-5.2,0.1-5.2,3.9v228.5c0,3.8,2.3,8.3,5.2,9.9l312.6,180.6
					c2.9,1.7,5.2-0.1,5.2-3.9V475V251.2C535.4,247.3,533.1,242.9,530.2,241.2z"/>
			</g>
			<path class="st16" d="M514.1,462.5L233.8,300.6c-2.9-1.7-5.2-6.1-5.2-9.9v-205c0-3.8,2.3-5.6,5.2-3.9l280.3,161.9
				c2.9,1.7,5.2,6.1,5.2,9.9v205C519.3,462.4,516.9,464.2,514.1,462.5z"/>
		</g>
		<path class="st14" d="M519.3,260.8L228.6,92.9v-7.1c0-3.8,2.3-5.6,5.2-3.9l280.3,161.9c2.9,1.7,5.2,6.1,5.2,9.9V260.8z"/>
		<g>
			<path class="st16" d="M455.8,220.3l-1.8-3.2c0.4-0.3,0.6-0.9,0.6-1.6c0-1.7-1.2-3.7-2.6-4.5s-2.6-0.1-2.6,1.5
				c0,1.7,1.2,3.7,2.6,4.5c0.6,0.4,1.2,0.4,1.7,0.3l1.8,3.2c0,0.1,0.1,0.1,0.1,0.1c0.1,0,0.1,0,0.1,0
				C455.9,220.6,455.9,220.5,455.8,220.3z M452,216.5c-1.2-0.7-2.2-2.4-2.2-3.8c0-1.4,1-2,2.2-1.3s2.2,2.4,2.2,3.8
				C454.2,216.7,453.2,217.2,452,216.5z"/>
			<polygon class="st16" points="463.8,217.9 463.4,217.7 463.4,220.8 460.7,219.3 460.7,219.6 463.4,221.2 463.4,224.4 
				463.8,224.6 463.8,221.4 466.5,223 466.5,222.6 463.8,221 			"/>
			<path class="st16" d="M477,230.4c-0.4-0.7-0.8-1.2-0.8-2.6c0-1-0.6-2.2-1.4-3c-0.1-0.4-0.3-0.9-0.7-1.1c-0.3-0.2-0.6-0.1-0.7,0.3
				c-0.8-0.2-1.4,0.4-1.4,1.4c0,1.4-0.3,1.5-0.8,1.7c-0.2,0.1-0.4,0.4-0.4,0.8c0,0.4,0.3,0.9,0.7,1.1l1.8,1.1c0,0.4,0.3,1,0.7,1.2
				c0.4,0.2,0.7,0,0.7-0.4l1.8,1.1c0.4,0.2,0.7,0,0.7-0.4C477.4,231.3,477.2,230.8,477,230.4z M476.7,231.7l-5.2-3
				c-0.2-0.1-0.3-0.3-0.3-0.6s0.1-0.4,0.3-0.5c0.5-0.2,0.9-0.5,0.9-1.9c0-0.8,0.5-1.3,1.2-1.1h0.2v-0.1l0.7,0.4v0.1l0.2,0.2
				c0.7,0.7,1.2,1.7,1.2,2.5c0,1.5,0.3,2.1,0.9,3c0.2,0.3,0.3,0.6,0.3,0.8C477,231.7,476.9,231.7,476.7,231.7z"/>
			<path class="st16" d="M487.7,232.1l-0.6-0.4v0.4l0.6,0.4c0.2,0.1,0.4,0.3,0.4,0.5v4.8l-1-0.6v1.2l-3.8-2.2
				c-0.2-0.1-0.3-0.4-0.3-0.7V230c0-0.2,0.1-0.3,0.3-0.1l0.7,0.4v-0.4l-0.7-0.4c-0.4-0.2-0.6-0.1-0.6,0.3v5.5c0,0.4,0.3,1,0.6,1.2
				l4.1,2.4l1.1-1v-4.7C488.4,232.7,488,232.3,487.7,232.1z"/>
			<polygon class="st16" points="485.6,233.3 484.3,232.5 484.3,232.9 485.3,233.5 485.3,233.9 484.6,233.5 484.6,233.9 
				485.3,234.2 485.3,234.6 484.3,234.1 484.3,234.4 485.6,235.2 			"/>
			<polygon class="st16" points="486.7,235.8 486.7,233.9 486,233.5 486,233.9 486.3,234.1 486.3,235.6 			"/>
			<polygon class="st16" points="484.6,229.9 484.3,229.7 484.3,230.9 484.6,231.1 			"/>
			<polygon class="st16" points="486.7,231.1 486.3,230.9 486.3,232.1 486.7,232.3 			"/>
			<polygon class="st16" points="486,231.1 485,230.5 485,230.9 486,231.5 			"/>
			<path class="st16" d="M497.5,241.2c0.4-0.3,0.9-0.6,1.4-0.8l0.1,0.1c0.2,0.2,0.4,0.3,0.6,0.2c0.1-0.1,0.3-0.2,0.4-0.3
				s0.1-0.1,0-0.3l-0.5-0.9c-0.1-0.2-0.2-0.2-0.2-0.1c-0.1,0.1-0.3,0.1-0.4,0.3c-0.1,0.1-0.2,0.3-0.1,0.6c0,0.1,0,0.1,0,0.2
				c-0.3,0.2-0.6,0.4-0.9,0.6c-0.2,0.1-0.3,0.2-0.5,0.3c-0.1-0.2-0.3-0.5-0.4-0.8c-0.2-0.3-0.2-0.5-0.2-0.7c0.1-1.3-1.1-3-2.2-3.3
				c-0.2,0-0.2,0.1-0.1,0.3c0.2,0.4,0.4,0.8,0.7,1.2c0,0.1,0.1,0.2,0,0.2c0,0.1-0.1,0.2-0.1,0.4c0,0.1-0.1,0.1-0.1,0.1
				c-0.1,0-0.2-0.1-0.3-0.1c-0.1,0-0.1-0.1-0.2-0.2c-0.2-0.4-0.4-0.8-0.7-1.2c-0.1-0.2-0.2-0.2-0.3-0.1c-0.1,0.3-0.1,0.6-0.1,0.9
				c0.2,1.2,1,2.4,1.9,2.8c0,0,0.1,0,0.1,0.1c0.1,0.1,0.1,0.2,0.2,0.4c-0.1,0-0.1,0-0.1,0c-0.4,0.3-0.8,0.5-1.2,0.7
				c-0.2,0.1-0.3,0.3-0.3,0.5c-0.1,0.4,0.2,0.9,0.5,1.2c0.3,0.2,0.6,0.2,0.8,0.1c0.4-0.3,0.8-0.5,1.2-0.7l0.1-0.1l0.1,0.2
				c0.4,0.8,0.9,1.6,1.3,2.3c0.2,0.4,0.5,0.7,0.9,0.8c0.3,0.1,0.6,0,0.7-0.4s0-0.8-0.2-1.2c-0.3-0.5-0.6-1.1-0.9-1.6
				C498,242.2,497.7,241.6,497.5,241.2C497.4,241.1,497.4,241.1,497.5,241.2z M498.9,239.5c0.1-0.1,0.3-0.1,0.4-0.2l0.4,0.7
				c-0.1,0-0.2,0.1-0.4,0.2c-0.1,0-0.3,0-0.4-0.2S498.8,239.6,498.9,239.5z M496.2,242.4c-0.4,0.2-0.8,0.5-1.2,0.7
				c-0.1,0-0.3,0.1-0.4,0c-0.3-0.1-0.5-0.5-0.4-0.8c0-0.1,0.1-0.3,0.2-0.4c0.4-0.3,0.9-0.5,1.3-0.8
				C495.9,241.6,496.1,241.9,496.2,242.4L496.2,242.4z M499,244.5c0.2,0.3,0.2,0.6,0.2,0.9c-0.1,0.5-0.7,0.3-1.1-0.3
				c-0.5-0.9-1-1.7-1.5-2.6c-0.4-0.7-0.9-1.5-1.3-2.2c-0.1-0.1-0.2-0.2-0.3-0.2c-1-0.4-1.8-1.8-1.7-2.9c0,0,0,0,0-0.1l0.1,0.2
				c0.2,0.3,0.4,0.7,0.5,1c0.1,0.1,0.1,0.2,0.2,0.2c0.2,0,0.4,0.1,0.6,0.2c0.1,0,0.1,0,0.2-0.1c0.1-0.2,0.1-0.4,0.2-0.6
				c0-0.1,0-0.2-0.1-0.3l-0.5-0.9c0-0.1,0-0.1-0.1-0.2c0.4,0.1,0.7,0.4,1,0.8c0.5,0.7,0.8,1.6,0.6,2.2c0,0.1,0,0.2,0.1,0.4
				C497.2,241.3,498.1,242.9,499,244.5z"/>
		</g>
		<path class="st25" d="M277.5,325.9l-43-24.9c-2.9-1.7-5.9-5.3-5.9-9.1V92.8l48.2,27.9L277.5,325.9z"/>
		<polygon class="st26" points="255.3,119.3 236.2,108.3 236.2,106.3 255.3,117.3 		"/>
		<polygon class="st27" points="268.4,133.9 236.2,115.3 236.2,113.3 268.4,131.9 		"/>
		<polygon class="st27" points="255.3,136 236.2,124.9 236.2,122.9 255.3,134 		"/>
		<polygon class="st27" points="258.9,147.7 236.2,134.6 236.2,132.6 258.9,145.7 		"/>
		<polygon class="st27" points="246.9,150.5 236.2,144.3 236.2,142.3 246.9,148.5 		"/>
		<polygon class="st27" points="255.3,165 236.2,153.9 236.2,151.9 255.3,163 		"/>
		<polygon class="st27" points="244.5,168.4 236.2,163.6 236.2,161.6 244.5,166.4 		"/>
		<polygon class="st27" points="262.5,188.4 236.2,173.2 236.2,171.2 262.5,186.4 		"/>
		<polygon class="st27" points="257.7,195.3 236.2,182.9 236.2,180.9 257.7,193.3 		"/>
		<polygon class="st27" points="250.5,200.9 236.2,192.6 236.2,190.6 250.5,198.9 		"/>
		<polygon class="st27" points="248.1,209.1 236.2,202.2 236.2,200.2 248.1,207.1 		"/>
		<polygon class="st27" points="256.5,223.6 236.2,211.9 236.2,209.9 256.5,221.6 		"/>
		<polygon class="st27" points="262.5,236.7 236.2,221.6 236.2,219.6 262.5,234.7 		"/>
		<polygon class="st27" points="256.5,243 236.2,231.2 236.2,229.2 256.5,241 		"/>
		<polygon class="st27" points="249.3,248.5 236.2,240.9 236.2,238.9 249.3,246.5 		"/>
		<polygon class="st27" points="260.1,264.4 236.2,250.5 236.2,248.5 260.1,262.4 		"/>
		<polygon class="st27" points="248.1,267.1 236.2,260.2 236.2,258.2 248.1,265.1 		"/>
		<polygon class="st27" points="253.6,281 236.2,270.9 236.2,268.9 253.6,279 		"/>
		<polygon class="st27" points="263.5,296.3 236.2,280.5 236.2,278.5 263.5,294.3 		"/>
		<polygon class="st27" points="248.1,297.1 236.2,290.2 236.2,288.2 248.1,295.1 		"/>
		<g>
			<path class="st28" d="M297.7,153c0,4.4-3.1,6.2-6.9,4s-6.9-7.6-6.9-12s3.1-6.2,6.9-4C294.6,143.3,297.7,148.6,297.7,153z"/>
			<path class="st29" d="M295.2,156.7c-0.3-0.4-2.3-2.5-2.8-2.9v-1c0.1-0.1,0.3-0.2,0.3-0.5c0-0.1,0.1-0.3,0.1-0.4h0.1
				c0.1,0.1,0.2,0,0.3,0l0,0c0,0,0.7-1.3,0.3-2c-0.1-0.1-0.1-0.3-0.3-0.4v-0.1c0-0.5,0.1-1,0.1-1.3c0-1.3-1-2.8-1.3-3.2
				c-0.6-0.8-1.2-1.1-1.4-1.3h-0.1c0,0-0.7-0.4-1.4-0.4c-0.3,0-0.5,0.1-0.6,0.4c0,0.1,0,0.2,0,0.3c-0.1,0-0.3-0.1-0.5,0
				s-0.3,0.4-0.3,1v0.3c0,0.3,0,0.7,0.1,1.2c0,0,0,0.1,0,0.2c-0.1,0-0.2,0-0.3,0.1c-0.3,0.4,0.3,2.4,0.3,2.4v0.1
				c0.1,0.2,0.2,0.3,0.3,0.4h0.1c0,0.1,0.1,0.4,0.1,0.6c0.1,0.4,0.2,0.7,0.3,0.9v1c-0.5-0.1-2.5-0.2-2.8-0.3c-0.2,0-0.4,0-0.5-0.1
				h-0.1l0.5,0.5c0.7,0.1,3,0.3,3.1,0.3h0.1v-1.4V151c0,0-0.2-0.3-0.3-0.7c-0.1-0.5-0.2-0.9-0.2-0.9l-0.1-0.6l-0.2,0.4l0,0v-0.1
				c-0.1-0.5-0.5-1.9-0.4-2.1c0,0,0,0,0.1,0h0.1l0.3,0.3l-0.1-0.4l-0.1-0.4c0-0.4,0-0.8-0.1-1.1V145c0-0.4,0.1-0.7,0.2-0.8
				c0.2-0.1,0.4,0,0.4,0l0.4,0.3l-0.2-0.5c0,0-0.1-0.2,0-0.3c0-0.1,0.2-0.2,0.4-0.3c0.7,0,1.3,0.3,1.3,0.4h0.1
				c0.2,0.1,0.7,0.3,1.2,1c0.3,0.4,1.2,1.8,1.2,2.9c0,0.3,0,0.8-0.1,1.3c0,0.2-0.1,0.3-0.1,0.3l-0.1,0.3l0.4,0.3c0,0,0,0,0.1,0.1
				c0.1,0.4-0.2,1.4-0.4,1.7l0,0v-0.1l-0.3-0.7l-0.1,0.4c0,0-0.1,0.3-0.2,0.7c-0.1,0.3-0.3,0.4-0.3,0.4l0,0v1.4l0.1,0.1
				c0.1,0.1,2.4,2.6,3.2,3.4h0.4C295.6,157.1,295.5,156.9,295.2,156.7L295.2,156.7z"/>
		</g>
		<polygon class="st27" points="339.4,178.9 301.1,156.8 301.1,152.8 339.4,174.9 		"/>
		<polygon class="st27" points="306.5,175.2 283.8,162.1 283.8,160.1 306.5,173.2 		"/>
		<polygon class="st30" points="340.3,194.7 317.6,181.6 317.6,179.6 340.3,192.7 		"/>
		<polygon class="st27" points="306.5,185.2 283.8,172.1 283.8,170.1 306.5,183.2 		"/>
		<polygon class="st30" points="343.7,206.7 317.6,191.6 317.6,189.6 343.7,204.7 		"/>
		<polygon class="st27" points="306.5,195.2 283.8,182.1 283.8,180.1 306.5,193.2 		"/>
		<polygon class="st30" points="349.8,220.2 330.5,209.1 330.5,207.1 349.8,218.2 		"/>
		<polygon class="st27" points="306.5,205.2 283.8,192.1 283.8,190.1 306.5,203.2 		"/>
		<polygon class="st30" points="326.4,216.7 317.6,211.6 317.6,209.6 326.4,214.7 		"/>
		<path class="st31" d="M328.3,208.8l-9.1-5.2c-0.8-0.5-1.5-1.8-1.5-2.9l0,0c0-1.1,0.7-1.6,1.5-1.1l9.1,5.2c0.8,0.5,1.5,1.8,1.5,2.9
			l0,0C329.8,208.8,329.1,209.3,328.3,208.8z"/>
		<polygon class="st30" points="316.1,237.7 283.8,219.1 283.8,217.1 316.1,235.7 		"/>
		<polygon class="st32" points="306.5,241.2 283.8,228.1 283.8,226.1 306.5,239.2 		"/>
		<polygon class="st27" points="306.5,254 283.8,240.9 283.8,238.9 306.5,252 		"/>
		<polygon class="st27" points="306.5,266.9 283.8,253.8 283.8,251.8 306.5,264.9 		"/>
		<polygon class="st27" points="306.5,279.7 283.8,266.6 283.8,264.6 306.5,277.7 		"/>
		<polygon class="st27" points="306.5,292.5 283.8,279.4 283.8,277.4 306.5,290.5 		"/>
		<polygon class="st27" points="306.5,305.4 283.8,292.3 283.8,290.3 306.5,303.4 		"/>
		<polygon class="st27" points="306.5,318.2 283.8,305.1 283.8,303.1 306.5,316.2 		"/>
		<line class="st33" x1="283.8" y1="233.5" x2="513.2" y2="366"/>
		<line class="st33" x1="283.8" y1="246.3" x2="513.2" y2="378.8"/>
		<line class="st33" x1="283.8" y1="259.2" x2="513.2" y2="391.7"/>
		<line class="st33" x1="283.8" y1="272" x2="513.2" y2="404.5"/>
		<line class="st33" x1="283.8" y1="284.8" x2="513.2" y2="417.3"/>
		<line class="st33" x1="283.8" y1="297.7" x2="513.2" y2="430.2"/>
		<line class="st33" x1="283.8" y1="310.5" x2="513.2" y2="443"/>
		<polygon class="st32" points="358.4,271.2 335.7,258.1 335.7,256.1 358.4,269.2 		"/>
		<polygon class="st27" points="358.4,284 335.7,270.9 335.7,268.9 358.4,282 		"/>
		<polygon class="st27" points="358.4,296.9 335.7,283.7 335.7,281.7 358.4,294.9 		"/>
		<polygon class="st27" points="358.4,322.5 335.7,309.4 335.7,307.4 358.4,320.5 		"/>
		<polygon class="st32" points="434.6,315.2 411.8,302.1 411.8,300.1 434.6,313.2 		"/>
		<polygon class="st27" points="434.6,328 411.8,314.9 411.8,312.9 434.6,326 		"/>
		<polygon class="st27" points="434.6,340.8 411.8,327.7 411.8,325.7 434.6,338.8 		"/>
		<polygon class="st27" points="434.6,353.7 411.8,340.6 411.8,338.6 434.6,351.7 		"/>
		<polygon class="st27" points="434.6,366.5 411.8,353.4 411.8,351.4 434.6,364.5 		"/>
		<polygon class="st27" points="434.6,379.3 411.8,366.2 411.8,364.2 434.6,377.3 		"/>
		<polygon class="st27" points="434.6,392.2 411.8,379.1 411.8,377.1 434.6,390.2 		"/>
		<g>
			<polygon class="st34" points="249.6,98.6 235.8,90.6 235.8,88.6 249.6,96.6 			"/>
			<polygon class="st34" points="265.9,108 259,104 259,102 265.9,106 			"/>
			<polygon class="st34" points="285.6,119.3 278.7,115.3 278.7,113.3 285.6,117.3 			"/>
			<polygon class="st34" points="307.5,132 296.2,125.5 296.2,123.5 307.5,130 			"/>
			<polygon class="st34" points="327.2,143.3 315.9,136.8 315.9,134.8 327.2,141.3 			"/>
			<polygon class="st34" points="346,154.2 336.5,148.7 336.5,146.7 346,152.2 			"/>
			<polygon class="st34" points="363.1,164.1 358.8,161.6 358.8,159.6 363.1,162.1 			"/>
		</g>
	</g>
	<g>
		<g>
			<line class="st35" x1="175.5" y1="235.2" x2="175.5" y2="235.2"/>
			<g>
				
					<linearGradient id="SVGID_18_" gradientUnits="userSpaceOnUse" x1="192.52" y1="403.5144" x2="242.724" y2="403.5144" gradientTransform="matrix(1 0 0 -1 0 704)">
					<stop  offset="0" style="stop-color:#1DB0AD"/>
					<stop  offset="1" style="stop-color:#8EB0AD;stop-opacity:0.9"/>
				</linearGradient>
				<path class="st36" d="M242.7,314.6c0-16.5-11.6-36.7-25.9-44.9c-7.3-4.2-13.8-4.5-18.5-1.7l0,0l-5.7,3.2c0,0,15.4,0.5,18,2
					c14.3,8.3,25.9,28.4,25.9,44.9c0,4.3-7.4,16.7-7.4,16.7l5-2.9c0.6-0.3,1.2-0.6,1.7-1l0.1-0.1l0,0
					C240.2,327.9,242.7,322.3,242.7,314.6z"/>
				
					<linearGradient id="SVGID_19_" gradientUnits="userSpaceOnUse" x1="184.619" y1="400.9495" x2="236.5052" y2="400.9495" gradientTransform="matrix(1 0 0 -1 0 704)">
					<stop  offset="0" style="stop-color:#1DB0AD"/>
					<stop  offset="1" style="stop-color:#1DB0AD"/>
				</linearGradient>
				<path class="st37" d="M210.6,273.1c-5.5-3.2-10.6-4.1-14.8-3.2c-6.7,1.5-11.1,8-11.1,18.2c0,16.5,11.6,36.7,25.9,44.9
					c8.7,5,16.3,4.5,21-0.3c3.1-3.1,4.9-8.1,4.9-14.7C236.5,301.5,224.9,281.4,210.6,273.1z"/>
			</g>
			<g>
				<g>
					<g class="st38">
						<path class="st16" d="M222.8,315.2c1.6,0.9,2.6,0.1,2.6-1.7c0-1.8-1.7-4.1-3.3-5c-0.1,0,0,0-0.1,0c0,0,0.6,2.6,0.7,3.8
							C222.8,312.9,222.8,315.2,222.8,315.2z"/>
					</g>
					<g class="st38">
						<path class="st16" d="M197.6,300.5c-1.6-0.9-2.6-3-2.7-4.8s1.2-2.5,2.8-1.6c0.1,0,0.5,0.3,0.5,0.3s-0.6,1.7-0.6,2.5
							C197.6,297.8,197.6,300.5,197.6,300.5z"/>
					</g>
					<g class="st38">
						<path class="st16" d="M220.4,323.9L200.1,312c-1.3-0.8-2.4-2.7-2.5-4.3v-9.4c0-6.8,4.6-9.5,10.4-6.1l4.2,2.5
							c5.8,3.4,10.5,11.6,10.6,18.4v9.4C222.9,324.1,221.8,324.7,220.4,323.9z"/>
					</g>
				</g>
				<g>
					<g class="st38">
						
							<linearGradient id="SVGID_20_" gradientUnits="userSpaceOnUse" x1="205.7585" y1="393.5652" x2="214.3696" y2="393.5652" gradientTransform="matrix(1 0 0 -1 0 704)">
							<stop  offset="0" style="stop-color:#00FFE6"/>
							<stop  offset="1" style="stop-color:#1DB0AD"/>
						</linearGradient>
						<path class="st39" d="M211.1,313.7l-2-1.2c-1.8-1.1-3.3-3.6-3.3-5.8l0,0l8.6,5l0,0C214.4,313.9,212.9,314.8,211.1,313.7z"/>
					</g>
					<g class="st38">
						
							<linearGradient id="SVGID_21_" gradientUnits="userSpaceOnUse" x1="202.8409" y1="405.85" x2="207.5173" y2="405.85" gradientTransform="matrix(1 0 0 -1 0 704)">
							<stop  offset="0" style="stop-color:#00FFE6"/>
							<stop  offset="1" style="stop-color:#1DB0AD"/>
						</linearGradient>
						<path class="st40" d="M207.5,299.5c0,1.5-1,2.1-2.3,1.4c-1.3-0.8-2.3-2.6-2.4-4.1c0-1.5,1-2.1,2.3-1.4
							C206.5,296.2,207.5,298,207.5,299.5z"/>
					</g>
					<g class="st38">
						
							<linearGradient id="SVGID_22_" gradientUnits="userSpaceOnUse" x1="212.8617" y1="399.95" x2="217.5382" y2="399.95" gradientTransform="matrix(1 0 0 -1 0 704)">
							<stop  offset="0" style="stop-color:#00FFE6"/>
							<stop  offset="1" style="stop-color:#1DB0AD"/>
						</linearGradient>
						<path class="st41" d="M217.5,305.4c0,1.5-1,2.1-2.3,1.4c-1.3-0.8-2.3-2.6-2.4-4.1s1-2.1,2.3-1.4
							C216.5,302,217.5,303.9,217.5,305.4z"/>
					</g>
					<g class="st38">
						<path class="st16" d="M213.4,288.2c0,2.1-1.5,3-3.3,1.9s-3.3-3.7-3.3-5.8c0-2.1,1.5-3,3.3-1.9
							C211.9,283.5,213.4,286.1,213.4,288.2z"/>
					</g>
					<g>
						<line class="st35" x1="210.2" y1="293.3" x2="210.1" y2="290.4"/>
					</g>
				</g>
			</g>
		</g>
		<g>
			
				<linearGradient id="SVGID_23_" gradientUnits="userSpaceOnUse" x1="1018.5066" y1="568.1527" x2="1125.3196" y2="568.1527" gradientTransform="matrix(-0.866 -0.5 0 -1.1547 1083.2267 1384.5343)">
				<stop  offset="0" style="stop-color:#FFFFFF"/>
				<stop  offset="1" style="stop-color:#F2F5F9"/>
			</linearGradient>
			<path class="st42" d="M110.9,223l80.9,46.7l9.4,13.8v-8.4V157.5c0-1.4-1-3.1-2.2-3.8l-88.1-50.8c-1.2-0.7-2.2-0.1-2.2,1.3v115.1
				C108.7,220.6,109.7,222.3,110.9,223z"/>
			
				<linearGradient id="SVGID_24_" gradientUnits="userSpaceOnUse" x1="127.85" y1="480.5" x2="127.85" y2="533.5" gradientTransform="matrix(1 0 0 -1 0 704)">
				<stop  offset="0" style="stop-color:#1DB0AD"/>
				<stop  offset="1" style="stop-color:#A4B0AD;stop-opacity:0.9"/>
			</linearGradient>
			<polygon class="st43" points="133.9,223.5 121.8,216.5 121.8,170.5 133.9,177.5 			"/>
			
				<linearGradient id="SVGID_25_" gradientUnits="userSpaceOnUse" x1="146.05" y1="469.9" x2="146.05" y2="511.4" gradientTransform="matrix(1 0 0 -1 0 704)">
				<stop  offset="0" style="stop-color:#1DB0AD"/>
				<stop  offset="1" style="stop-color:#A4B0AD;stop-opacity:0.9"/>
			</linearGradient>
			<polygon class="st44" points="152.1,234.1 140,227.1 140,192.6 152.1,199.6 			"/>
			
				<linearGradient id="SVGID_26_" gradientUnits="userSpaceOnUse" x1="164.35" y1="459.4" x2="164.35" y2="521.6" gradientTransform="matrix(1 0 0 -1 0 704)">
				<stop  offset="0" style="stop-color:#1DB0AD"/>
				<stop  offset="1" style="stop-color:#A4B0AD;stop-opacity:0.9"/>
			</linearGradient>
			<polygon class="st45" points="170.4,244.6 158.3,237.6 158.3,182.4 170.4,189.3 			"/>
			
				<linearGradient id="SVGID_27_" gradientUnits="userSpaceOnUse" x1="182.65" y1="448.8" x2="182.65" y2="530.7" gradientTransform="matrix(1 0 0 -1 0 704)">
				<stop  offset="0" style="stop-color:#1DB0AD"/>
				<stop  offset="1" style="stop-color:#A4B0AD;stop-opacity:0.9"/>
			</linearGradient>
			<polygon class="st46" points="188.7,255.2 176.6,248.2 176.6,173.3 188.7,180.3 			"/>
			
				<linearGradient id="SVGID_28_" gradientUnits="userSpaceOnUse" x1="158.9" y1="536.6" x2="158.9" y2="578.1" gradientTransform="matrix(1 0 0 -1 0 704)">
				<stop  offset="0" style="stop-color:#1DB0AD"/>
				<stop  offset="1" style="stop-color:#A4B0AD;stop-opacity:0.9"/>
			</linearGradient>
			<polygon class="st47" points="188.7,167.4 129.1,133 129.1,125.9 188.7,160.3 			"/>
		</g>
	</g>
	<g>
		<g>
			
				<linearGradient id="SVGID_29_" gradientUnits="userSpaceOnUse" x1="471.4" y1="287.256" x2="506.8" y2="287.256" gradientTransform="matrix(1 0 0 -1 0 704)">
				<stop  offset="0" style="stop-color:#1DB0AD"/>
				<stop  offset="1" style="stop-color:#A5FFFF;stop-opacity:0.9"/>
			</linearGradient>
			<path class="st48" d="M506.8,426.7c0-11.7-8.2-25.9-18.3-31.7c-5.1-3-9.7-3.2-13.1-1.2l0,0l-4,2.3c0,0,10.9,0.3,12.7,1.4
				c10.1,5.8,18.3,20,18.3,31.7c0,3-5.2,11.8-5.2,11.8l3.6-2c0.4-0.2,0.8-0.4,1.2-0.7l0.1-0.1l0,0
				C505,436.1,506.8,432.1,506.8,426.7z"/>
			
				<linearGradient id="SVGID_30_" gradientUnits="userSpaceOnUse" x1="465.8" y1="285.4351" x2="502.4119" y2="285.4351" gradientTransform="matrix(1 0 0 -1 0 704)">
				<stop  offset="0" style="stop-color:#A4B0AD"/>
				<stop  offset="1" style="stop-color:#1DB0AD"/>
			</linearGradient>
			<path class="st49" d="M484.1,397.4c-3.9-2.2-7.5-2.9-10.5-2.2c-4.7,1.1-7.8,5.6-7.8,12.8c0,11.7,8.2,25.9,18.3,31.7
				c6.1,3.5,11.5,3.2,14.9-0.2c2.2-2.2,3.5-5.7,3.5-10.4C502.4,417.5,494.2,403.3,484.1,397.4z"/>
		</g>
		<g>
			<path class="st16" d="M490.1,429.5l-1.9-3.4c-0.2-0.3-0.4-0.6-0.6-0.8c-0.4-0.4-0.9-0.5-1.2-0.3l-0.3,0.2l-0.8,0.5
				c-0.2,0.1-0.4,0-0.6-0.2c-1.3-1.2-2.7-3.1-4-5.4s-2.1-4.6-2.4-6.3c-0.1-0.3,0-0.5,0.2-0.6l1.1-0.7c0.5-0.3,0.5-1.3,0-2.2
				l-1.9-3.4c-0.4-0.7-0.8-1.2-1.3-1.5s-1-0.4-1.4-0.2l-0.9,0.5c-0.1,0.1-0.3,0.3-0.3,0.3c-1.4,1.5,0.6,8.2,4.5,15.5
				c4,7.4,8.7,12.6,10.6,12c0,0,0.2-0.1,0.3-0.1l0.2-0.1l0.7-0.4C490.8,432.3,490.8,430.8,490.1,429.5z"/>
		</g>
	</g>
	<g>
		<g>
			<g>
				<g>
					
						<linearGradient id="SVGID_31_" gradientUnits="userSpaceOnUse" x1="449.8791" y1="512.8372" x2="518.2806" y2="512.8372" gradientTransform="matrix(1 0 0 -1 0 704)">
						<stop  offset="0" style="stop-color:#9BB0AD"/>
						<stop  offset="1" style="stop-color:#1DB0AD"/>
					</linearGradient>
					<path class="st50" d="M518.3,207.7L455,172.1c-0.7-0.4-1.4-0.5-1.8-0.2l0,0l0,0c0,0-0.1,0-0.1,0.1l-3.1,1.9l4.4,3.3l0.8-1.2
						l59.9,34.6L518.3,207.7z"/>
					
						<linearGradient id="SVGID_32_" gradientUnits="userSpaceOnUse" x1="518.3" y1="408.7" x2="589.2054" y2="408.7" gradientTransform="matrix(1 0 0 -1 0 704)">
						<stop  offset="0" style="stop-color:#93B0AD"/>
						<stop  offset="1" style="stop-color:#1DB0AD"/>
					</linearGradient>
					<path class="st51" d="M586.5,248l-61.8-35.7l-3.4-6.7l-3,2l3.4,6.7l61.8,35.7c1.5,0.9,2.7,3,2.7,4.7v126.9l-0.5,3.4l2.7-1.9
						l0,0l0.2-0.1l0,0c0.4-0.3,0.6-0.9,0.6-1.6V252.8C589.3,251,588,248.9,586.5,248z"/>
					<path class="st16" d="M583.5,250.1l-61.8-35.7l-3.4-6.7l-3.2,2.9l-62.8-36.3l-0.3-0.2c-1.5-0.9-2.7-0.2-2.7,1.6v128.6
						c0,1.7,1.2,3.8,2.7,4.7l131.5,75.9c1.5,0.9,2.7,0.2,2.7-1.6v-0.6v-128C586.2,253,585,250.9,583.5,250.1z"/>
				</g>
				<polygon class="st52" points="489.4,206 457.5,187.6 457.5,184.5 489.4,202.9 				"/>
				<polygon class="st52" points="586.5,269.7 449.9,190.8 449.9,190.5 586.5,269.4 				"/>
				<g>
					<path class="st28" d="M469.8,216.1c0,4.3-3,6.1-6.8,3.9c-3.8-2.2-6.8-7.4-6.8-11.8s3-6.1,6.8-3.9
						C466.8,206.5,469.8,211.7,469.8,216.1z"/>
					<path class="st29" d="M467.5,219.7c-0.3-0.3-2.3-2.4-2.7-2.9v-0.9c0.1-0.1,0.2-0.2,0.3-0.5c0-0.1,0.1-0.3,0.1-0.4h0.1
						c0.1,0.1,0.2,0,0.3,0l0,0c0,0,0.6-1.3,0.3-2c-0.1-0.1-0.1-0.2-0.2-0.3v-0.1c0-0.5,0.1-1,0.1-1.3c0-1.2-1-2.7-1.3-3.2
						c-0.6-0.7-1.1-1.1-1.3-1.2h-0.1c0,0-0.7-0.4-1.4-0.4c-0.3,0-0.5,0.1-0.6,0.4c0,0.1,0,0.2,0,0.3c-0.1,0-0.3-0.1-0.5,0
						s-0.3,0.4-0.3,0.9v0.2c0,0.3,0,0.7,0.1,1.1c0,0,0,0.1,0,0.2c-0.1,0-0.2,0-0.2,0.1c-0.3,0.4,0.3,2.4,0.3,2.4v0.1
						c0.1,0.2,0.2,0.3,0.3,0.4h0.1c0,0.1,0.1,0.4,0.1,0.6c0.1,0.4,0.2,0.7,0.3,0.9v0.9c-0.5-0.1-2.4-0.2-2.7-0.3
						c-0.2,0-0.4,0-0.5-0.1H458l0.5,0.5c0.6,0.1,2.9,0.3,3,0.3h0.1V214v-0.1c0,0-0.2-0.3-0.2-0.7c-0.1-0.5-0.2-0.9-0.2-0.9l-0.1-0.6
						l-0.2,0.3l0,0v-0.1c-0.1-0.5-0.5-1.8-0.4-2.1c0,0,0,0,0.1,0h0.1l0.3,0.2l-0.1-0.4l-0.1-0.4c0-0.4,0-0.8-0.1-1.1v-0.2
						c0-0.4,0.1-0.7,0.2-0.7c0.2-0.1,0.4,0,0.4,0l0.4,0.2l-0.2-0.5c0,0-0.1-0.2,0-0.3c0-0.1,0.2-0.2,0.4-0.2c0.6,0,1.3,0.3,1.3,0.3
						h0.1c0.2,0.1,0.6,0.3,1.1,1c0.3,0.4,1.2,1.7,1.2,2.8c0,0.3,0,0.8-0.1,1.3c0,0.2-0.1,0.3-0.1,0.3l-0.1,0.3l0.4,0.2
						c0,0,0,0,0.1,0.1c0.1,0.4-0.2,1.4-0.4,1.6l0,0v-0.1l-0.2-0.7l-0.1,0.4c0,0-0.1,0.3-0.2,0.7c-0.1,0.3-0.2,0.4-0.2,0.4l0,0v1.4
						l0.1,0.1c0.1,0.1,2.4,2.6,3.1,3.4h0.4C467.8,220,467.7,219.9,467.5,219.7L467.5,219.7z"/>
				</g>
				<g>
					<path class="st28" d="M469.8,294.7c0,4.3-3,6.1-6.8,3.9s-6.8-7.4-6.8-11.8s3-6.1,6.8-3.9C466.8,285,469.8,290.3,469.8,294.7z"
						/>
					<path class="st29" d="M467.5,298.2c-0.3-0.3-2.3-2.4-2.7-2.9v-0.9c0.1-0.1,0.2-0.2,0.3-0.5c0-0.1,0.1-0.3,0.1-0.4h0.1
						c0.1,0.1,0.2,0,0.3,0l0,0c0,0,0.6-1.3,0.3-2c-0.1-0.1-0.1-0.2-0.2-0.3v-0.1c0-0.5,0.1-1,0.1-1.3c0-1.2-1-2.7-1.3-3.2
						c-0.6-0.7-1.1-1.1-1.3-1.2h-0.1c0,0-0.7-0.4-1.4-0.4c-0.3,0-0.5,0.1-0.6,0.4c0,0.1,0,0.2,0,0.3c-0.1,0-0.3-0.1-0.5,0
						s-0.3,0.4-0.3,0.9v0.2c0,0.3,0,0.7,0.1,1.1c0,0,0,0.1,0,0.2c-0.1,0-0.2,0-0.2,0.1c-0.3,0.4,0.3,2.4,0.3,2.4v0.1
						c0.1,0.2,0.2,0.3,0.3,0.4h0.1c0,0.1,0.1,0.4,0.1,0.6c0.1,0.4,0.2,0.7,0.3,0.9v0.9c-0.5-0.1-2.4-0.2-2.7-0.3
						c-0.2,0-0.4,0-0.5-0.1H458l0.5,0.5c0.6,0.1,2.9,0.3,3,0.3h0.1v-1.4v-0.1c0,0-0.2-0.3-0.2-0.7c-0.1-0.5-0.2-0.9-0.2-0.9
						l-0.1-0.6l-0.2,0.3l0,0v-0.1c-0.1-0.5-0.5-1.8-0.4-2.1c0,0,0,0,0.1,0h0.1l0.3,0.2l-0.1-0.4l-0.1-0.4c0-0.4,0-0.8-0.1-1.1v-0.2
						c0-0.4,0.1-0.7,0.2-0.7c0.2-0.1,0.4,0,0.4,0l0.4,0.2l-0.2-0.5c0,0-0.1-0.2,0-0.3c0-0.1,0.2-0.2,0.4-0.2c0.6,0,1.3,0.3,1.3,0.3
						h0.1c0.2,0.1,0.6,0.3,1.1,1c0.3,0.4,1.2,1.7,1.2,2.8c0,0.3,0,0.8-0.1,1.3c0,0.2-0.1,0.3-0.1,0.3l-0.1,0.3l0.4,0.2
						c0,0,0,0,0.1,0.1c0.1,0.4-0.2,1.4-0.4,1.6l0,0v-0.1l-0.2-0.7l-0.2,1c0,0-0.1,0.3-0.2,0.7c-0.1,0.3-0.2,0.4-0.2,0.4l0,0v1.4
						l0.1,0.1c0.1,0.1,2.4,2.6,3.1,3.4h0.4C467.8,298.6,467.7,298.4,467.5,298.2L467.5,298.2z"/>
				</g>
				<path class="st53" d="M475.8,233.7l2.9-0.3v-0.5l-5.7-3.3v0.5L475.8,233.7z"/>
				<path class="st53" d="M475.8,234.3l-2.9-3.6v3.6l5.7,3.3V234L475.8,234.3z"/>
				<polygon class="st53" points="489.6,213.8 457,194.9 457,194.6 489.6,213.5 				"/>
				<polygon class="st32" points="524.8,245.3 480.6,219.8 480.6,216.7 524.8,242.2 				"/>
				<polygon class="st27" points="560.1,283.2 483.3,238.9 483.3,235.8 560.1,280.1 				"/>
				<path class="st54" d="M579.7,296l-4-2.3c-1.2-0.7-2.2-2.5-2.2-4.1l0,0c0-1.6,1-2.3,2.2-1.6l4,2.3c1.2,0.7,2.2,2.5,2.2,4.1l0,0
					C581.8,295.9,580.8,296.7,579.7,296z"/>
				<polygon class="st55" points="581.9,278.3 564.9,268.5 564.9,265.4 581.9,275.1 				"/>
				<line class="st56" x1="449.9" y1="229.7" x2="586.2" y2="308.4"/>
				<line class="st56" x1="449.9" y1="268.9" x2="586.2" y2="347.7"/>
				<g>
					<path class="st28" d="M469.8,255.3c0,4.3-3,6.1-6.8,3.9c-3.8-2.2-6.8-7.4-6.8-11.8s3-6.1,6.8-3.9
						C466.8,245.7,469.8,251,469.8,255.3z"/>
					<path class="st29" d="M467.5,258.9c-0.3-0.3-2.3-2.4-2.7-2.9v-0.9c0.1-0.1,0.2-0.2,0.3-0.5c0-0.1,0.1-0.3,0.1-0.4h0.1
						c0.1,0.1,0.2,0,0.3,0l0,0c0,0,0.6-1.3,0.3-2c-0.1-0.1-0.1-0.2-0.2-0.3v-0.1c0-0.5,0.1-1,0.1-1.3c0-1.2-1-2.7-1.3-3.2
						c-0.6-0.7-1.1-1.1-1.3-1.2h-0.1c0,0-0.7-0.4-1.4-0.4c-0.3,0-0.5,0.1-0.6,0.4c0,0.1,0,0.2,0,0.3c-0.1,0-0.3-0.1-0.5,0
						s-0.3,0.4-0.3,0.9v0.2c0,0.3,0,0.7,0.1,1.1c0,0,0,0.1,0,0.2c-0.1,0-0.2,0-0.2,0.1c-0.3,0.4,0.3,2.4,0.3,2.4v0.1
						c0.1,0.2,0.2,0.3,0.3,0.4h0.1c0,0.1,0.1,0.4,0.1,0.6c0.1,0.4,0.2,0.7,0.3,0.9v0.9c-0.5-0.1-2.4-0.2-2.7-0.3
						c-0.2,0-0.4,0-0.5-0.1H458l0.5,0.5c0.6,0.1,2.9,0.3,3,0.3h0.1v-1.4v-0.1c0,0-0.2-0.3-0.2-0.7c-0.1-0.5-0.2-0.9-0.2-0.9L461,251
						l-0.2,0.3l0,0v-0.1c-0.1-0.5-0.5-1.8-0.4-2.1c0,0,0,0,0.1,0h0.1l0.3,0.2l-0.1-0.4l-0.1-0.4c0-0.4,0-0.8-0.1-1.1v-0.2
						c0-0.4,0.1-0.7,0.2-0.7c0.2-0.1,0.4,0,0.4,0l0.4,0.2l-0.2-0.5c0,0-0.1-0.2,0-0.3c0-0.1,0.2-0.2,0.4-0.2c0.6,0,1.3,0.3,1.3,0.3
						h0.1c0.2,0.1,0.6,0.3,1.1,1c0.3,0.4,1.2,1.7,1.2,2.8c0,0.3,0,0.8-0.1,1.3c0,0.2-0.1,0.3-0.1,0.3l-0.1,0.3l0.4,0.2
						c0,0,0,0,0.1,0.1c0.1,0.4-0.2,1.4-0.4,1.6l0,0v-0.1l-0.2-0.7l-0.1,0.4c0,0-0.1,0.3-0.2,0.7c-0.1,0.3-0.2,0.4-0.2,0.4l0,0v1.4
						l0.1,0.1c0.1,0.1,2.4,2.6,3.1,3.4h0.4C467.8,259.3,467.7,259.1,467.5,258.9L467.5,258.9z"/>
				</g>
				<polygon class="st32" points="524.8,284.6 480.6,259.1 480.6,255.9 524.8,281.4 				"/>
				<polygon class="st27" points="560.1,321.8 483.3,277.5 483.3,274.3 560.1,318.7 				"/>
				<g>
					<g>
						<defs>
							<path id="SVGID_33_" d="M583.5,384.9L452,309c-1.5-0.9-2.7-3-2.7-4.7V175.7c0-1.7,1.2-2.4,2.7-1.6l63.1,36.5l2.9-4.6l3.7,8.4
								l61.8,35.7c1.5,0.9,2.7,3,2.7,4.7v128.6C586.2,385.1,585,385.8,583.5,384.9z"/>
						</defs>
						<clipPath id="SVGID_34_">
							<use xlink:href="#SVGID_33_"  style="overflow:visible;"/>
						</clipPath>
						<g class="st57">
							<path class="st58" d="M583.5,384.9l-134.3-77.3v-38.9l137,78.9v35.7C586.2,385.1,585,385.8,583.5,384.9z"/>
							<polygon class="st59" points="450.6,308.3 449.3,307.5 449.3,268.6 450.6,269.4 							"/>
						</g>
					</g>
				</g>
				<polygon class="st55" points="581.9,317.5 564.9,307.8 564.9,304.6 581.9,314.4 				"/>
				<path class="st60" d="M475.9,271.3c-0.5-0.8-0.9-1.7-0.7-1.8c0.3-0.2,0.6-0.2,0-1.3s-0.9-0.7-1.2-0.6c-0.3,0.2,0,1.8,1.2,4
					s2.5,3.2,2.8,3.1c0.3-0.2,0.8-0.3,0.1-1.3c-0.7-1-0.9-0.8-1.2-0.6C476.9,272.9,476.3,272.1,475.9,271.3L475.9,271.3z"/>
				<g>
					<path class="st28" d="M469.8,294.6c0,4.3-3,6.1-6.8,3.9s-6.8-7.4-6.8-11.8s3-6.1,6.8-3.9C466.8,285,469.8,290.2,469.8,294.6z"
						/>
					<path class="st29" d="M467.5,298.2c-0.3-0.3-2.3-2.4-2.7-2.9v-0.9c0.1-0.1,0.2-0.2,0.3-0.5c0-0.1,0.1-0.3,0.1-0.4h0.1
						c0.1,0.1,0.2,0,0.3,0l0,0c0,0,0.6-1.3,0.3-2c-0.1-0.1-0.1-0.2-0.2-0.3v-0.1c0-0.5,0.1-1,0.1-1.3c0-1.2-1-2.7-1.3-3.2
						c-0.6-0.7-1.1-1.1-1.3-1.2h-0.1c0,0-0.7-0.4-1.4-0.4c-0.3,0-0.5,0.1-0.6,0.4c0,0.1,0,0.2,0,0.3c-0.1,0-0.3-0.1-0.5,0
						s-0.3,0.4-0.3,0.9v0.2c0,0.3,0,0.7,0.1,1.1c0,0,0,0.1,0,0.2c-0.1,0-0.2,0-0.2,0.1c-0.3,0.4,0.3,2.4,0.3,2.4v0.1
						c0.1,0.2,0.2,0.3,0.3,0.4h0.1c0,0.1,0.1,0.4,0.1,0.6c0.1,0.4,0.2,0.7,0.3,0.9v0.9c-0.5-0.1-2.4-0.2-2.7-0.3
						c-0.2,0-0.4,0-0.5-0.1H458l0.5,0.5c0.6,0.1,2.9,0.3,3,0.3h0.1v-1.4v-0.1c0,0-0.2-0.3-0.2-0.7c-0.1-0.5-0.2-0.9-0.2-0.9
						l-0.1-0.6l-0.2,0.3l0,0v-0.1c-0.1-0.5-0.5-1.8-0.4-2.1c0,0,0,0,0.1,0h0.1l0.3,0.2l-0.1-0.4l-0.1-0.4c0-0.4,0-0.8-0.1-1.1v-0.2
						c0-0.4,0.1-0.7,0.2-0.7c0.2-0.1,0.4,0,0.4,0l0.4,0.2l-0.2-0.5c0,0-0.1-0.2,0-0.3c0-0.1,0.2-0.2,0.4-0.2c0.6,0,1.3,0.3,1.3,0.3
						h0.1c0.2,0.1,0.6,0.3,1.1,1c0.3,0.4,1.2,1.7,1.2,2.8c0,0.3,0,0.8-0.1,1.3c0,0.2-0.1,0.3-0.1,0.3l-0.1,0.3l0.4,0.2
						c0,0,0,0,0.1,0.1c0.1,0.4-0.2,1.4-0.4,1.6l0,0v-0.1l-0.2-0.7l-0.1,0.4c0,0-0.1,0.3-0.2,0.7c-0.1,0.3-0.2,0.4-0.2,0.4l0,0v1.4
						l0.1,0.1c0.1,0.1,2.4,2.6,3.1,3.4h0.4C467.8,298.5,467.7,298.4,467.5,298.2L467.5,298.2z"/>
				</g>
				<polygon class="st32" points="524.8,323.8 480.6,298.3 480.6,295.2 524.8,320.7 				"/>
				<polygon class="st27" points="560.1,361.1 483.3,316.7 483.3,313.6 560.1,357.9 				"/>
				<polygon class="st55" points="581.9,356.8 564.9,347 564.9,343.9 581.9,353.6 				"/>
				<path class="st61" d="M479.8,311.5v0.2c0,2.1-1.4,3.7-3.9,2.3c-0.8-0.4-1.5-1.1-2.1-1.9l0.3,0.2c0.7,0.4,1.2,0.5,1.7,0.3
					c-0.6-0.3-1.1-1.1-1.3-1.8l0.3,0.2c0.1,0.1,0.4,0.2,0.5,0.3c-0.6-0.5-1-1.4-1-2.1c0,0.2,0.3,0.4,0.5,0.5
					c-0.4-0.4-0.7-1.2-0.7-1.8c0-0.3,0-0.6,0.2-0.7c0.7,1.4,1.7,2.6,2.9,3.3c0-0.2,0-0.3,0-0.4c0-0.9,0.6-1.3,1.4-0.8
					c0.4,0.2,0.7,0.6,1,1.1c0.3,0.1,0.6,0.1,0.9,0.1c-0.1,0.3-0.3,0.5-0.6,0.6c0.3,0.1,0.5,0.1,0.8,0.2
					C480.3,311.3,480.1,311.5,479.8,311.5L479.8,311.5z"/>
				<path class="st54" d="M579.7,373.8l-4-2.3c-1.2-0.7-2.2-2.5-2.2-4.1l0,0c0-1.6,1-2.3,2.2-1.6l4,2.3c1.2,0.7,2.2,2.5,2.2,4.1l0,0
					C581.8,373.7,580.8,374.5,579.7,373.8z"/>
				<line class="st62" x1="574.5" y1="251" x2="579.9" y2="260.4"/>
				<line class="st62" x1="579.9" y1="254.2" x2="574.5" y2="257.3"/>
			</g>
			<g>
				
					<linearGradient id="SVGID_35_" gradientUnits="userSpaceOnUse" x1="511.0222" y1="515.0375" x2="530.4222" y2="515.0375" gradientTransform="matrix(1 0 0 -1 0 704)">
					<stop  offset="0" style="stop-color:#83AFF6"/>
					<stop  offset="1" style="stop-color:#3B79C9"/>
				</linearGradient>
				<path class="st63" d="M530.4,195.4c0-6.9-4.9-15.4-10.9-18.8c-3.5-2-6.5-1.9-8.5-0.1c1.9-0.7,4.2-0.3,6.8,1.1
					c6,3.5,10.9,11.9,10.9,18.8c0,2.9-0.9,5.1-2.3,6.4C528.9,202,530.4,199.4,530.4,195.4z"/>
				<path class="st64" d="M517.9,177.6c-2.6-1.5-5-1.8-6.8-1.1c-2.5,0.9-4,3.5-4,7.4c0,6.9,4.9,15.4,10.9,18.8
					c3.5,2,6.5,1.9,8.5,0.1c1.5-1.3,2.3-3.5,2.3-6.4C528.7,189.5,523.9,181.1,517.9,177.6z"/>
			</g>
			<path class="st16" d="M522.4,194.7c-0.7-1.1-1.2-1.9-1.2-4c0-1.6-0.9-3.5-2.2-4.7c-0.1-0.6-0.5-1.4-1.1-1.7
				c-0.5-0.3-1-0.1-1.1,0.4c-1.3-0.2-2.2,0.6-2.2,2.2c0,2.2-0.5,2.4-1.2,2.7c-0.4,0.2-0.6,0.6-0.6,1.2c0,0.7,0.5,1.5,1.1,1.8
				l2.9,1.7c0,0.6,0.5,1.5,1.1,1.9s1.1,0,1.1-0.6l2.9,1.7c0.6,0.3,1.1,0.1,1.1-0.6C523,196,522.7,195.3,522.4,194.7z M521.9,196.6
				l-8.1-4.7c-0.3-0.2-0.5-0.5-0.5-1c0-0.4,0.2-0.7,0.4-0.7c0.9-0.3,1.4-0.7,1.4-3c0-1.3,0.8-2,1.8-1.8l0.3,0.1l0.1-0.2l1.1,0.6
				l0.1,0.2l0.3,0.3c1.1,1.1,1.8,2.7,1.8,3.9c0,2.3,0.5,3.3,1.4,4.7c0.3,0.4,0.4,0.9,0.4,1.3C522.4,196.6,522.1,196.7,521.9,196.6z"
				/>
			<g>
				<path class="st65" d="M531.1,188.3c0-2.6-1.8-5.8-4.1-7.1c-1.2-0.7-2.3-0.7-3-0.2l-1.1,0.6l1.7,0.4l0.7-0.3
					c0.2,0.1,0.3,0.1,0.5,0.2c2.3,1.3,4.1,4.5,4.1,7.1c0,0.8-0.2,1.4-0.4,1.8l-0.8,0.8l1.2-0.7C530.6,190.5,531.1,189.6,531.1,188.3
					z"/>
				<path class="st66" d="M525.8,181.9c-0.8-0.5-1.6-0.6-2.2-0.5c-1.1,0.2-1.9,1.2-1.9,2.9c0,2.6,1.8,5.8,4.1,7.1
					c1.4,0.8,2.7,0.7,3.4-0.2c0.4-0.5,0.7-1.2,0.7-2.2C529.9,186.4,528.1,183.2,525.8,181.9z"/>
			</g>
		</g>
	</g>
	<g>
		<g>
			
				<linearGradient id="SVGID_36_" gradientUnits="userSpaceOnUse" x1="172.3695" y1="410.4972" x2="172.3695" y2="477.6406" gradientTransform="matrix(-1 0 0 -1 247.9695 704)">
				<stop  offset="0" style="stop-color:#A4B0AD;stop-opacity:0.9"/>
				<stop  offset="1" style="stop-color:#1DB0AD"/>
			</linearGradient>
			<path class="st67" d="M95.6,276.7c0-16.6-11.6-36.7-26-45c-6.5-3.8-12.4-4.4-17-2.5c4.8-3.9,12-3.9,20,0.7
				c14.4,8.3,26,28.5,26,45c0,9.1-3.5,15.2-9,17.5C93.4,289.4,95.6,284,95.6,276.7z"/>
			<path class="st16" d="M52.6,229.2c4.6-1.9,10.5-1.2,17,2.5c14.4,8.3,26,28.5,26,45c0,7.3-2.3,12.7-6,15.7c-4.8,3.9-12,3.9-20-0.7
				c-14.4-8.3-26-28.5-26-45C43.6,237.6,47.1,231.5,52.6,229.2z"/>
		</g>
		<g>
			
				<linearGradient id="SVGID_37_" gradientUnits="userSpaceOnUse" x1="69.65" y1="440.6" x2="69.65" y2="466.3" gradientTransform="matrix(1 0 0 -1 0 704)">
				<stop  offset="0" style="stop-color:#A5FFFF"/>
				<stop  offset="1" style="stop-color:#1DB0AD"/>
			</linearGradient>
			<polygon class="st68" points="52.5,237.7 58,249.9 81.4,263.4 86.8,257.5 			"/>
			
				<linearGradient id="SVGID_38_" gradientUnits="userSpaceOnUse" x1="69.65" y1="435.1255" x2="69.65" y2="452.3004" gradientTransform="matrix(1 0 0 -1 0 704)">
				<stop  offset="0" style="stop-color:#A5FFFF"/>
				<stop  offset="1" style="stop-color:#1DB0AD"/>
			</linearGradient>
			<polygon class="st69" points="61.9,259.8 77.5,268.9 81.1,265 58.2,251.7 			"/>
			
				<linearGradient id="SVGID_39_" gradientUnits="userSpaceOnUse" x1="69.6" y1="428.6708" x2="69.6" y2="442.0708" gradientTransform="matrix(1 0 0 -1 0 704)">
				<stop  offset="0" style="stop-color:#A5FFFF"/>
				<stop  offset="1" style="stop-color:#1DB0AD"/>
			</linearGradient>
			<polygon class="st70" points="64.5,269.3 74.9,275.3 77.2,270.7 62,261.9 			"/>
			
				<linearGradient id="SVGID_40_" gradientUnits="userSpaceOnUse" x1="69.65" y1="418.251" x2="69.65" y2="431.986" gradientTransform="matrix(1 0 0 -1 0 704)">
				<stop  offset="0" style="stop-color:#A5FFFF"/>
				<stop  offset="1" style="stop-color:#1DB0AD"/>
			</linearGradient>
			<polygon class="st71" points="66.2,281.8 73.1,285.7 73.1,276 66.2,272 			"/>
		</g>
	</g>
	<g>
		<g>
			<polygon class="st15" points="329.2,29.2 306.4,42.4 308.6,53.7 296.7,48.2 274.4,62.2 383,83.6 			"/>
			<polygon class="st72" points="306.6,42.4 383,83.6 308.6,53.7 			"/>
		</g>
		<line class="st73" x1="327.8" y1="29.2" x2="285.4" y2="4.7"/>
		<line class="st73" x1="302.9" y1="45.8" x2="260.5" y2="21.3"/>
		<line class="st73" x1="274.4" y1="61.2" x2="232" y2="36.7"/>
	</g>
	<g>
		<g>
			<g>
				<path class="st74" d="M99.4,372.8c0.9,0,1.3,0,1.7,0c15.9,1.3,31.8,2.6,47.7,4.2c0.8,0.1,1.7,0.2,2.3,0.3
					c0.6,0.1,1.2,0.3,1.2,0.4c-0.1,0.1-0.9,0.1-1.4,0.1c-0.2,0-0.5,0-0.7,0c-14.3-1.1-28.5-2.2-42.8-3.6c-2.1-0.2-4.1-0.5-6.1-0.8
					C100.5,373.2,100.1,373,99.4,372.8z"/>
			</g>
		</g>
		<g>
			<g>
				<path class="st74" d="M91.6,342.6c0.2,0.5,0.3,0.7,0.4,0.9c2.5,9.1,5,18.2,7.3,27.3c0.1,0.5,0.3,1,0.3,1.3s0,0.8-0.1,0.8
					s-0.3-0.4-0.5-0.7c0-0.1-0.1-0.3-0.1-0.4c-2.3-8.1-4.7-16.3-6.7-24.5c-0.3-1.2-0.5-2.4-0.7-3.6
					C91.5,343.2,91.6,342.9,91.6,342.6z"/>
			</g>
		</g>
		<g>
			
				<linearGradient id="SVGID_41_" gradientUnits="userSpaceOnUse" x1="47.6" y1="317.475" x2="152.6" y2="317.475" gradientTransform="matrix(1 0 0 -1 0 704)">
				<stop  offset="0" style="stop-color:#1DB0AD"/>
				<stop  offset="1" style="stop-color:#86B0AD;stop-opacity:0.9"/>
			</linearGradient>
			<path class="st75" d="M149,380.4L149,380.4l-39,22.5c-0.4,0.2-1,0.2-1.4,0L52,370.2l-4.4-2.8v2.8c0,0.1,0.1,0.2,0.2,0.2
				l60.8,35.1c0.4,0.2,1,0.2,1.4,0l42.3-24.4c0.2-0.1,0.3-0.3,0.3-0.4l0,0v-2.6L149,380.4z"/>
			<g>
				<g class="st38">
					
						<linearGradient id="SVGID_42_" gradientUnits="userSpaceOnUse" x1="128.9387" y1="353.1" x2="146.8797" y2="353.1" gradientTransform="matrix(1 0 0 -1 0 704)">
						<stop  offset="0" style="stop-color:#78B0AD"/>
						<stop  offset="1" style="stop-color:#1DB0AD"/>
					</linearGradient>
					<polygon class="st76" points="146.1,355.6 146.9,356.1 144.6,347 128.9,345.7 134.4,348.8 					"/>
				</g>
				<g class="st38">
					
						<linearGradient id="SVGID_43_" gradientUnits="userSpaceOnUse" x1="91.4539" y1="346.25" x2="105.0539" y2="346.25" gradientTransform="matrix(1 0 0 -1 0 704)">
						<stop  offset="0" style="stop-color:#78B0AD"/>
						<stop  offset="1" style="stop-color:#1DB0AD"/>
					</linearGradient>
					<polygon class="st77" points="101,346.1 105.1,343.7 91.5,342.6 92.2,345.3 99.4,372.9 93.6,350.3 					"/>
				</g>
				<g class="st38">
					
						<linearGradient id="SVGID_44_" gradientUnits="userSpaceOnUse" x1="99.4" y1="330.25" x2="152.3" y2="330.25" gradientTransform="matrix(1 0 0 -1 0 704)">
						<stop  offset="0" style="stop-color:#78B0AD"/>
						<stop  offset="1" style="stop-color:#1DB0AD"/>
					</linearGradient>
					<polygon class="st78" points="150.9,372.2 150.3,369.8 138.8,376.5 99.4,372.9 151.6,377.7 152.3,377.7 					"/>
				</g>
			</g>
			<g class="st38">
				
					<linearGradient id="SVGID_45_" gradientUnits="userSpaceOnUse" x1="47.5" y1="331.2" x2="152.5638" y2="331.2" gradientTransform="matrix(1 0 0 -1 0 704)">
					<stop  offset="0" style="stop-color:#78B0AD"/>
					<stop  offset="1" style="stop-color:#1DB0AD"/>
				</linearGradient>
				<path class="st79" d="M152.3,377.7l-0.7-0.1l-52.2-4.7l-7.2-27.6l-0.7-2.7c-0.4-0.2-1-0.2-1.4,0L47.8,367
					c-0.4,0.2-0.4,0.6,0,0.8l1.6,1l59.2,34.2c0.4,0.2,1,0.2,1.4,0l41.9-24.2l0.4-0.2C152.6,378.3,152.7,377.9,152.3,377.7z"/>
			</g>
			<g>
				<polygon class="st16" points="146.9,356.1 146.1,355.6 134.4,348.8 128.9,345.7 115.3,337.8 105.1,343.7 101,346.1 93.6,350.3 
					99.4,372.9 138.8,376.5 150.3,369.8 158.2,365.3 160.5,363.9 				"/>
			</g>
			
				<linearGradient id="SVGID_46_" gradientUnits="userSpaceOnUse" x1="150.315" y1="335.95" x2="160.5291" y2="335.95" gradientTransform="matrix(1 0 0 -1 0 704)">
				<stop  offset="0" style="stop-color:#1DB0AD"/>
				<stop  offset="1" style="stop-color:#86B0AD;stop-opacity:0.9"/>
			</linearGradient>
			<polygon class="st80" points="158.2,365.3 158.2,365.3 155.9,366.6 154.7,367.3 154.7,367.3 150.3,369.8 150.9,372.2 
				160.5,366.6 160.5,363.9 			"/>
		</g>
		<g>
			<g>
				<path class="st81" d="M128.5,352.7c1.7,0.9,4.6,2.5,7.5,4.1c0.8,0.5,1.7,1,2.1,1.8c0.1,0.1,0.1,0.4,0,0.5
					c-0.2,0.1-0.5,0.3-0.6,0.2c-1.1-0.4-2.1-0.9-3.1-1.3c-4.3-1.9-8.4-3.9-12.4-6.5c-1.3-0.8-2.7-1.4-4-2.2
					c-1.2-0.7-2.3-1.6-3.4-2.5c-0.5-0.4-0.2-1,0.4-1.1c1.2-0.1,2.4,0.4,3.4,1C121.3,348.5,124.3,350.2,128.5,352.7z"/>
			</g>
		</g>
		<g>
			<g>
				<path class="st81" d="M127.1,358.3c2.2,1.2,6,3.3,9.8,5.5c1.1,0.6,2.2,1.2,2.8,2.3c0.1,0.2,0.2,0.4,0.1,0.5
					c-0.2,0.1-0.5,0.3-0.8,0.2c-1.4-0.6-2.7-1.2-4.1-1.8c-5.5-2.6-10.9-5.3-16.1-8.7c-1.7-1.1-3.5-1.9-5.2-2.9c-1.6-1-3.1-2-4.6-3.1
					c-0.7-0.5-0.4-1.1,0.4-1.1c1.5,0,3,0.7,4.4,1.5C117.7,352.9,121.6,355.1,127.1,358.3z"/>
			</g>
		</g>
		<g>
			<g>
				<path class="st81" d="M121.6,361.5c2.2,1.2,6,3.3,9.8,5.4c1.1,0.6,2.2,1.2,2.8,2.2c0.1,0.2,0.2,0.4,0.1,0.5
					c-0.2,0.1-0.5,0.3-0.8,0.2c-1.4-0.6-2.7-1.2-4.1-1.8c-5.5-2.6-11-5.3-16.2-8.6c-1.7-1.1-3.5-1.8-5.3-2.9c-1.6-1-3.1-2-4.6-3.1
					c-0.7-0.5-0.4-1.1,0.4-1.1c1.5,0,3,0.7,4.4,1.5C112.1,356.1,116,358.3,121.6,361.5z"/>
			</g>
		</g>
	</g>
	<g>
		<g>
			
				<linearGradient id="SVGID_47_" gradientUnits="userSpaceOnUse" x1="140.1" y1="257.8962" x2="281.1" y2="257.8962" gradientTransform="matrix(1 0 0 -1 0 704)">
				<stop  offset="0" style="stop-color:#1DB0AD"/>
				<stop  offset="1" style="stop-color:#78B0AD;stop-opacity:0.9"/>
			</linearGradient>
			<path class="st82" d="M267.4,430.4l-53.6,30.9c-1.7,1-4.6,0.8-6.5-0.3L154,430.3l-13.9-9v8.7l0,0c0,0.7,0.6,1.5,1.6,2.1
				l65.6,37.9c1.9,1.1,4.8,1.2,6.5,0.3L280,432c0.7-0.4,1-0.9,1.1-1.5l0,0v-9.2L267.4,430.4z"/>
			
				<linearGradient id="SVGID_48_" gradientUnits="userSpaceOnUse" x1="140.1501" y1="282.75" x2="281.1756" y2="282.75" gradientTransform="matrix(1 0 0 -1 0 704)">
				<stop  offset="0" style="stop-color:#1DB0AD"/>
				<stop  offset="1" style="stop-color:#1DB0AD"/>
			</linearGradient>
			<path class="st83" d="M279.6,419.4L214,381.5c-1.9-1.1-4.8-1.2-6.5-0.3l-66.2,38.2c-1.7,1-1.5,2.6,0.5,3.7l4.2,2.4l61.4,35.5
				c1.9,1.1,4.8,1.2,6.5,0.3l61.6-35.5l4.6-2.7C281.7,422.2,281.5,420.5,279.6,419.4z"/>
		</g>
		<path class="st84" d="M219.8,423.8c0.7,1.4,0.9,2.8,0.5,4.2c-0.5,1.4-1.5,2.6-3.2,3.5L191,416.4c3.2-1.8,8-2.5,12.8-1.7
			C211.3,416.1,217.4,419.6,219.8,423.8z"/>
		<path class="st84" d="M222.5,420.1c-3,1.5-7.9,1.2-11-0.8c-2.8-1.8-3.2-4.4-0.7-6l3.8-2.2c2.8-1.6,7.7-1.4,11,0.4
			c3.2,1.9,3.6,4.7,0.8,6.3l0,0L222.5,420.1z"/>
		<line class="st85" x1="182.5" y1="421.4" x2="208.6" y2="436.4"/>
		
			<linearGradient id="SVGID_49_" gradientUnits="userSpaceOnUse" x1="20.2921" y1="-324.3138" x2="30.0614" y2="-324.3138" gradientTransform="matrix(0.6495 0.7917 0.75 -0.6255 496.4639 201.7022)">
			<stop  offset="0" style="stop-color:#F7B422"/>
			<stop  offset="0.9944" style="stop-color:#FAE128"/>
		</linearGradient>
		<path class="st86" d="M268.5,429.8l-2.5-2.1c-2.4-2.1-2.6-4.9-0.6-6.3l0,0c2.1-1.4,5.7-0.9,8.1,1.2l3,2.6"/>
		
			<linearGradient id="SVGID_50_" gradientUnits="userSpaceOnUse" x1="18.6285" y1="-336.1812" x2="28.0796" y2="-336.1812" gradientTransform="matrix(0.6495 0.7917 0.75 -0.6255 496.4639 201.7022)">
			<stop  offset="0" style="stop-color:#B72335"/>
			<stop  offset="1" style="stop-color:#D42133"/>
		</linearGradient>
		<path class="st87" d="M258.3,435.7l-2.3-2c-2.4-2.1-2.6-4.9-0.6-6.3l0,0c2.1-1.4,5.7-0.9,8.1,1.2l2.7,2.4"/>
		
			<linearGradient id="SVGID_51_" gradientUnits="userSpaceOnUse" x1="17.592" y1="-347.3756" x2="26.2344" y2="-347.3756" gradientTransform="matrix(0.6495 0.7917 0.75 -0.6255 496.4639 201.7022)">
			<stop  offset="0" style="stop-color:#3F9CFF"/>
			<stop  offset="1" style="stop-color:#0050E9"/>
		</linearGradient>
		<path class="st88" d="M248.6,441.3l-1.6-1.4c-2.4-2.1-2.6-4.9-0.6-6.3l0,0c2.1-1.4,5.7-0.9,8.1,1.2l2.1,1.8"/>
		<polygon class="st84" points="196.5,395.6 189.5,391.6 196.8,387.4 203.7,391.4 		"/>
		<polygon class="st84" points="177.7,406.4 170.7,402.4 178,398.3 184.9,402.3 		"/>
		<polygon class="st84" points="158.6,417.5 151.8,413.4 159,409.2 165.8,413.3 		"/>
	</g>
	<g>
		<path class="st89" d="M295,451.5l0.6,0.4l-57.9,33.4l-0.6-0.4L295,451.5z"/>
		<path class="st81" d="M293.7,450.7L293.7,450.7c0.8-0.4,1.9,0.2,2.6,1.4c0.7,1.2,0.7,2.5-0.1,3c0,0-0.1,0-0.1,0.1l-7.5,4.3
			c0.7-0.4,0.8-1.8,0.1-3c-0.7-1.2-1.9-1.9-2.6-1.4l0,0L293.7,450.7z M235.8,484.1c-2.5,1.4-7.4,6.6-6.9,6.9c0.4,0.3,6.9-1,9.4-2.5
			C240.9,487,238.3,482.7,235.8,484.1z"/>
		<path class="st90" d="M238.3,488.5c0.7-0.4,0.8-1.8,0.1-3s-1.9-1.8-2.6-1.4l1.3-0.7c0.9,0.3,1.6,1,2,1.8c0.5,0.9,0.7,1.9,0.5,2.6
			L238.3,488.5z"/>
	</g>
	<g>
		<g>
			
				<linearGradient id="SVGID_52_" gradientUnits="userSpaceOnUse" x1="263.8" y1="189.2625" x2="423.8" y2="189.2625" gradientTransform="matrix(1 0 0 -1 0 704)">
				<stop  offset="0" style="stop-color:#00947D"/>
				<stop  offset="1" style="stop-color:#83947D;stop-opacity:0.9"/>
			</linearGradient>
			<path class="st91" d="M415.9,493l-78,44.4c-1.6,0.9-4.3,0.9-5.9,0l-61.6-35.1l-6.6-4.7v4c0.1,0.6,0.5,1.1,1.2,1.5l67,38.1
				c1.6,0.9,4.3,0.9,5.9,0l84.6-48.1c0.8-0.5,1.3-1.1,1.3-1.7l0,0v-3.8L415.9,493z"/>
			<g class="st38">
				
					<linearGradient id="SVGID_53_" gradientUnits="userSpaceOnUse" x1="263.725" y1="211.45" x2="423.775" y2="211.45" gradientTransform="matrix(1 0 0 -1 0 704)">
					<stop  offset="0" style="stop-color:#78B0AD"/>
					<stop  offset="1" style="stop-color:#1DB0AD"/>
				</linearGradient>
				<path class="st92" d="M422.5,485.8l-19-10.8l-29.2-16.6l-18.9-10.7c-1.6-0.9-4.3-0.9-5.9,0L265,495.8c-1.7,1-1.7,2.5,0,3.5
					l0.3,0.2l66.7,37.9c1.6,0.9,4.3,0.9,5.9,0l84.3-47.9l0.3-0.2C424.2,488.3,424.2,486.7,422.5,485.8z"/>
			</g>
		</g>
		<g>
			<g>
				<path class="st16" d="M398.6,476.5l17.3,9.9c1.5,0.9,1.5,2.3,0,3.2l-77.5,44.1c-1.5,0.9-3.9,0.9-5.5,0l-61.4-34.9
					c-1.5-0.9-1.5-2.3,0-3.2l77.5-44.1c1.5-0.9,3.9-0.9,5.5,0l17.3,9.8L398.6,476.5z"/>
			</g>
		</g>
		<g>
			<path class="st35" d="M396.6,464.2c0.2-0.1,0.3-0.2,0.5-0.3c-0.1-0.1-0.3-0.2-0.5-0.3c-0.7-0.3-1.7-0.3-2.4,0
				c-0.2,0.1-0.3,0.2-0.5,0.3c0.1,0.1,0.3,0.2,0.5,0.3C394.9,464.5,395.9,464.5,396.6,464.2z"/>
			<g>
				
					<linearGradient id="SVGID_54_" gradientUnits="userSpaceOnUse" x1="393.276" y1="241.0125" x2="397.5004" y2="241.0125" gradientTransform="matrix(1 0 0 -1 0 704)">
					<stop  offset="0" style="stop-color:#F2F5F9"/>
					<stop  offset="1" style="stop-color:#C6DFFE"/>
				</linearGradient>
				<path class="st93" d="M396.6,463.7c0.2,0.1,0.3,0.2,0.5,0.3c0.7-0.5,0.6-1.4-0.5-1.8c-0.7-0.3-1.7-0.3-2.4,0
					c-1.1,0.4-1.2,1.2-0.5,1.8c0.1-0.1,0.3-0.2,0.5-0.3C394.9,463.4,395.9,463.4,396.6,463.7z"/>
			</g>
			
				<linearGradient id="SVGID_55_" gradientUnits="userSpaceOnUse" x1="398.038" y1="238.8" x2="400.538" y2="238.8" gradientTransform="matrix(1 0 0 -1 0 704)">
				<stop  offset="0" style="stop-color:#F2F5F9"/>
				<stop  offset="1" style="stop-color:#C6DFFE"/>
			</linearGradient>
			<path class="st94" d="M400.5,463.5l-1,1.8c-0.2,0.2-0.4,0.3-0.7,0.5c-0.1,0.1-0.6,0.2-0.8,0.3l1.4,0.8c0.7-0.6,1.1-1.2,1.1-1.9
				l0,0V463.5z"/>
			
				<linearGradient id="SVGID_56_" gradientUnits="userSpaceOnUse" x1="371.3168" y1="233.5125" x2="406.3146" y2="233.5125" gradientTransform="matrix(1 0 0 -1 0 704)">
				<stop  offset="0" style="stop-color:#00947D"/>
				<stop  offset="1" style="stop-color:#86947D;stop-opacity:0.9"/>
			</linearGradient>
			<path class="st95" d="M404.6,474l-4.1,2.4c-1.6,0.9-4.3,0.9-5.9,0l-8-4.5l-13.4-7.6l-1.8-2v1.7c0.1,0.6,0.5,1.2,1.2,1.6l13.9,7.9
				l8,4.5c1.6,0.9,4.3,0.9,5.9,0l4.7-2.7c0.8-0.5,1.2-1.1,1.2-1.7V472L404.6,474z"/>
			<g>
				<g>
					
						<linearGradient id="SVGID_57_" gradientUnits="userSpaceOnUse" x1="371.3167" y1="236.9" x2="406.3174" y2="236.9" gradientTransform="matrix(1 0 0 -1 0 704)">
						<stop  offset="0" style="stop-color:#78B0AD"/>
						<stop  offset="1" style="stop-color:#1DB0AD"/>
					</linearGradient>
					<path class="st96" d="M405.1,470.2l-5.6-3.2l-1.4-0.8c0.3-0.2,0.7-0.2,0.8-0.3c0.8-0.4,1.3-1,1.5-1.5c0.4-1.1,0-2.2-1.5-3
						c-2.2-1.3-5.8-1.3-8,0c-0.3,0.2-0.6,0.3-0.6,0.5l-7.1-4.1c-1.6-0.9-4.3-0.9-5.9,0l-4.7,2.7c-1.2,0.7-1.5,1.6-1,2.5
						c0.2,0.4,0.5,0.7,1,1l13.9,7.9l8,4.5c1.6,0.9,4.3,0.9,5.9,0l4.7-2.7c0.5-0.3,0.8-0.6,1-1C406.6,471.8,406.3,470.8,405.1,470.2z
						 M397,464c-0.1,0.1-0.3,0.2-0.5,0.3c-0.7,0.3-1.7,0.3-2.4,0c-0.2-0.1-0.3-0.2-0.5-0.3c-0.7-0.5-0.6-1.4,0.5-1.8
						c0.7-0.3,1.7-0.3,2.4,0C397.6,462.6,397.8,463.4,397,464z"/>
				</g>
			</g>
		</g>
		<g>
			<g>
				<g>
					<path class="st81" d="M392.6,493.4c-0.6-0.1-0.9-0.1-1.1-0.3c-9.1-4.8-18.2-9.8-27.1-15.1c-0.4-0.3-0.9-0.5-1.3-0.8
						c-0.3-0.3-0.5-0.7-0.4-0.8c0.1-0.1,0.7,0,1,0c0.1,0,0.3,0.1,0.5,0.2c8.2,4.2,16.5,8.4,24.5,13.3c1.1,0.7,2.2,1.6,3.2,2.4
						C392.3,492.6,392.4,493,392.6,493.4z"/>
				</g>
			</g>
			<g>
				<g>
					<path class="st81" d="M368.4,507.1c-0.6-0.1-0.9-0.1-1.1-0.3c-9.1-4.8-18.2-9.8-27.1-15.1c-0.4-0.3-0.9-0.5-1.3-0.8
						c-0.3-0.3-0.5-0.7-0.4-0.8c0.1-0.1,0.7,0,1,0c0.1,0,0.3,0.1,0.5,0.2c8.2,4.2,16.5,8.4,24.5,13.3c1.1,0.7,2.2,1.6,3.2,2.4
						C368.1,506.3,368.2,506.7,368.4,507.1z"/>
				</g>
			</g>
			<g>
				<g class="st97">
					
						<linearGradient id="SVGID_58_" gradientUnits="userSpaceOnUse" x1="336.3" y1="235.8" x2="361.2495" y2="235.8" gradientTransform="matrix(1 0 0 -1 0 704)">
						<stop  offset="0" style="stop-color:#78B0AD"/>
						<stop  offset="1" style="stop-color:#1DB0AD"/>
					</linearGradient>
					<polygon class="st98" points="348.8,461.1 361.3,468.2 348.8,475.3 336.3,468.2 					"/>
				</g>
				<g>
					<g>
						<path class="st16" d="M354.3,468.9c-0.2,0.1-0.3,0.1-0.4,0.2c-1.5,0-3,0.1-4.5,0h-2.2l-2.7-0.1v-1.1v-0.6c0-0.2,0-0.4,0.1-0.5
							c0-0.1,0.2-0.3,0.3-0.3c0.1,0,0.2,0.2,0.3,0.3c0,0,0,0.1,0,0.2v0.8v0.4v0.2h0.2h0.5h0.9h1.9c1.3,0,2.5,0,3.8,0.1
							c0.4,0,0.9,0.1,1.3,0.3C354.1,468.7,354.2,468.8,354.3,468.9z"/>
					</g>
				</g>
			</g>
			<g>
				<g class="st97">
					
						<linearGradient id="SVGID_59_" gradientUnits="userSpaceOnUse" x1="312.1383" y1="222.1" x2="337.0878" y2="222.1" gradientTransform="matrix(1 0 0 -1 0 704)">
						<stop  offset="0" style="stop-color:#78B0AD"/>
						<stop  offset="1" style="stop-color:#1DB0AD"/>
					</linearGradient>
					<polygon class="st99" points="324.6,474.8 337.1,481.9 324.6,489 312.1,481.9 					"/>
				</g>
				<g>
					<g>
						<path class="st16" d="M330.2,482.7c-0.2,0.1-0.3,0.1-0.4,0.1c-1.5,0-2.9,0-4.4,0h-2.2l-2.6-0.1l-0.1-1v-0.6c0-0.2,0-0.4,0-0.5
							s0.2-0.3,0.2-0.3c0.1,0,0.2,0.2,0.3,0.3c0,0,0,0.1,0,0.2l0.1,0.8v0.4v0.2h0.2h0.5h0.9h1.9c1.2,0,2.5,0,3.7,0.1
							c0.4,0,0.9,0.2,1.3,0.3C329.9,482.4,330,482.5,330.2,482.7z"/>
					</g>
				</g>
			</g>
			<g>
				<g>
					<path class="st81" d="M344.5,521c-0.6-0.1-0.9-0.1-1.1-0.3c-9.1-4.8-18.2-9.8-27.1-15.1c-0.4-0.3-0.9-0.5-1.3-0.8
						c-0.3-0.3-0.5-0.7-0.4-0.8c0.1-0.1,0.7,0,1,0c0.1,0,0.3,0.1,0.5,0.2c8.2,4.2,16.5,8.4,24.5,13.3c1.1,0.7,2.2,1.6,3.2,2.4
						C344.2,520.1,344.2,520.6,344.5,521z"/>
				</g>
			</g>
			<g>
				<g class="st97">
					
						<linearGradient id="SVGID_60_" gradientUnits="userSpaceOnUse" x1="288.1739" y1="208.3" x2="313.1233" y2="208.3" gradientTransform="matrix(1 0 0 -1 0 704)">
						<stop  offset="0" style="stop-color:#78B0AD"/>
						<stop  offset="1" style="stop-color:#1DB0AD"/>
					</linearGradient>
					<polygon class="st100" points="300.7,488.6 313.1,495.7 300.6,502.8 288.2,495.7 					"/>
				</g>
				<g>
					<g>
						<path class="st16" d="M306.2,496.5c-0.2,0.1-0.3,0.1-0.4,0.1c-1.5,0-2.9,0-4.4,0h-2.2l-2.6-0.1l-0.1-1v-0.6c0-0.2,0-0.4,0-0.5
							s0.2-0.3,0.2-0.3c0.1,0,0.2,0.2,0.3,0.3c0,0,0,0.1,0,0.2l0.1,0.8v0.4v0.2h0.2h0.5h0.9h1.9c1.2,0,2.5,0,3.7,0.1
							c0.4,0,0.9,0.2,1.3,0.3C306,496.2,306.1,496.4,306.2,496.5z"/>
					</g>
				</g>
			</g>
		</g>
	</g>
	<g>
		<path class="st101" d="M444.2,558.7c-11.3,6.5-29.6,6.5-40.9,0s-11.3-17.1,0-23.6s29.6-6.5,40.9,0S455.5,552.2,444.2,558.7z"/>
		<path class="st35" d="M426.4,565.9c2.4-0.1,4.8-0.4,7-0.9C431.1,565.4,428.7,565.7,426.4,565.9L426.4,565.9z"/>
		<path class="st35" d="M403.8,558.2c11,6.3,29.1,6.3,40.1,0c4.8-2.8,7.5-6.4,8.1-10.1c-0.6-3.7-3.3-7.3-8.1-10.1
			c-11-6.3-29.1-6.3-40.1,0c-4.8,2.8-7.5,6.4-8.1,10.1C396.3,551.8,399,555.4,403.8,558.2z"/>
		
			<linearGradient id="SVGID_61_" gradientUnits="userSpaceOnUse" x1="423.75" y1="114.2217" x2="423.75" y2="118.6873" gradientTransform="matrix(1 0 0 -1 0 704)">
			<stop  offset="0" style="stop-color:#00947D"/>
			<stop  offset="1" style="stop-color:#86947D;stop-opacity:0.9"/>
		</linearGradient>
		<path class="st102" d="M423.9,586.8c-0.6,0-1.3,0-1.9-0.4c-0.3-0.2-0.9-0.5-0.9-0.9v3c0,0.4,0.6,0.7,0.9,0.9
			c0.6,0.4,1.3,0.4,1.9,0.4c1.6,0.2,2.5-0.4,2.5-1.4v-3C426.4,586.4,425.5,586.9,423.9,586.8z"/>
		
			<linearGradient id="SVGID_62_" gradientUnits="userSpaceOnUse" x1="395.5919" y1="164.8125" x2="452.1081" y2="164.8125" gradientTransform="matrix(1 0 0 -1 0 704)">
			<stop  offset="0" style="stop-color:#00947D"/>
			<stop  offset="1" style="stop-color:#86947D;stop-opacity:0.9"/>
		</linearGradient>
		<path class="st103" d="M403.8,538c11-6.3,29.1-6.3,40.1,0c4.8,2.8,7.5,6.4,8.1,10.1c0.7-4.7-2-9.5-8.1-13.1
			c-11-6.3-29.1-6.3-40.1,0c-6.1,3.5-8.8,8.4-8.1,13.1C396.3,544.4,399,540.8,403.8,538z"/>
		<rect x="421.1" y="569" class="st104" width="0" height="16.5"/>
		<polygon class="st104" points="418.1,577 434.6,577 434.6,577 		"/>
		
			<linearGradient id="SVGID_63_" gradientUnits="userSpaceOnUse" x1="441.8" y1="135.2295" x2="441.8" y2="158.3295" gradientTransform="matrix(1 0 0 -1 0 704)">
			<stop  offset="0" style="stop-color:#00947D"/>
			<stop  offset="1" style="stop-color:#86947D;stop-opacity:0.9"/>
		</linearGradient>
		<path class="st105" d="M457.2,545.7c0,0-6.1,12.3-9.9,14.5c-3.9,2.2-8.8,3.9-13.9,4.8c-2.3,0.5-4.6,0.8-7,0.9v2.9
			c7.5-0.4,15.3-2.4,21-5.6c6.3-3.7,9.6-8.4,9.8-13.2l0,0V545.7z"/>
		
			<linearGradient id="SVGID_64_" gradientUnits="userSpaceOnUse" x1="405.6" y1="135.0489" x2="405.6" y2="157.1489" gradientTransform="matrix(1 0 0 -1 0 704)">
			<stop  offset="0" style="stop-color:#00947D"/>
			<stop  offset="1" style="stop-color:#86947D;stop-opacity:0.9"/>
		</linearGradient>
		<path class="st106" d="M400.1,560.4c-3.4-2-5.9-4.2-7.6-6.7l-2.3-6.8v2.8c0,4.9,3.3,9.9,9.8,13.7c6,3.4,13.5,5.2,21,5.6v-3
			C413.6,565.6,406,563.8,400.1,560.4z"/>
		
			<linearGradient id="SVGID_65_" gradientUnits="userSpaceOnUse" x1="390.2081" y1="147.0813" x2="457.2173" y2="147.0813" gradientTransform="matrix(1 0 0 -1 0 704)">
			<stop  offset="0" style="stop-color:#78B0AD"/>
			<stop  offset="1" style="stop-color:#1DB0AD"/>
		</linearGradient>
		<path class="st107" d="M447.4,532.7c-13.2-7.6-34.1-7.4-47.3,0.2c-7.2,4.2-10.5,9.8-9.8,15.2c0.6,4.5,3.8,8.8,9.8,12.2
			s13.5,5.2,21,5.6v3l0,0v16.5c0,0.4,0.6,0.7,0.9,0.9c0.6,0.4,1.3,0.4,1.9,0.4c1.6,0.2,2.5-0.4,2.5-1.4v-16.5v-2.9v-0.1
			c2.3-0.1,4.7-0.4,7-0.8c5.1-0.9,10.1-2.6,13.9-4.8c5.9-3.4,9.2-7.8,9.8-12.2C457.9,542.5,454.6,536.9,447.4,532.7z M452,548.1
			c-0.6,3.7-3.3,7.3-8.1,10.1c-11,6.3-29.1,6.3-40.1,0c-4.8-2.8-7.5-6.4-8.1-10.1c-0.7-4.7,2-9.5,8.1-13.1c11-6.3,29.1-6.3,40.1,0
			C450.1,538.6,452.8,543.4,452,548.1z"/>
	</g>
	<g>
		<g>
			<g>
				
					<linearGradient id="SVGID_66_" gradientUnits="userSpaceOnUse" x1="455" y1="109.2948" x2="604.9001" y2="109.2948" gradientTransform="matrix(1 0 0 -1 0 704)">
					<stop  offset="0" style="stop-color:#00947D"/>
					<stop  offset="1" style="stop-color:#86947D;stop-opacity:0.9"/>
				</linearGradient>
				<path class="st108" d="M592.5,568.6l0.9,2.5l-83.2,48c-2.9,1.7-7.3,1.9-9.9,0.4l-38.9-22.4L455,592v6.4l0,0
					c0,0.9,0.5,1.9,1.7,2.5l43.5,25.1c2.5,1.5,7,1.3,9.9-0.4l92.4-53.4c1.5-0.9,2.3-2,2.4-3.1v-6.7L592.5,568.6z"/>
				<path class="st104" d="M603.4,560l-43.5-25.1c-2.5-1.5-7-1.3-9.9,0.4l-92.4,53.4c-2.9,1.7-3.2,4.2-0.7,5.7l1.1,0.7l42.4,24.5
					c2.5,1.5,7,1.3,9.9-0.4l92-53.1l0.4-0.3C605.6,564,605.9,561.5,603.4,560z"/>
			</g>
			<polygon class="st16" points="514.9,613.5 467.3,586 552.1,537 599.7,564.5 			"/>
			
				<linearGradient id="SVGID_67_" gradientUnits="userSpaceOnUse" x1="480.241" y1="100.9" x2="489.9645" y2="100.9" gradientTransform="matrix(1 0 0 -1 0 704)">
				<stop  offset="0" style="stop-color:#0041BF;stop-opacity:0.1"/>
				<stop  offset="1" style="stop-color:#3FFFBC;stop-opacity:0.9"/>
			</linearGradient>
			<path class="st109" d="M488.5,605.1c-1.9,1.1-5,1.1-6.9,0s-1.9-2.9,0-4s5-1.1,6.9,0C490.4,602.3,490.4,604.1,488.5,605.1z"/>
			
				<linearGradient id="SVGID_68_" gradientUnits="userSpaceOnUse" x1="569.7861" y1="155.1132" x2="588.2861" y2="155.1132" gradientTransform="matrix(1 0 0 -1 0 704)">
				<stop  offset="0" style="stop-color:#0041BF;stop-opacity:0.1"/>
				<stop  offset="1" style="stop-color:#00CFFF;stop-opacity:0.9"/>
			</linearGradient>
			<path class="st110" d="M586.8,554.1l-16.8-9.7c-0.3-0.2-0.3-0.5,0.1-0.7l0,0c0.4-0.2,0.9-0.2,1.2-0.1l16.8,9.7
				c0.3,0.2,0.3,0.5-0.1,0.7l0,0C587.6,554.3,587.1,554.3,586.8,554.1z"/>
			<g class="st97">
				<g>
					<defs>
						<polygon id="SVGID_69_" points="514.9,613.5 467.3,586 552.1,537 599.7,564.5 						"/>
					</defs>
					<clipPath id="SVGID_70_">
						<use xlink:href="#SVGID_69_"  style="overflow:visible;"/>
					</clipPath>
					<g class="st111">
						<polygon class="st16" points="520.9,617.3 461,582.7 546.6,533.3 606.5,567.9 						"/>
						<g>
							<path class="st112" d="M552.3,594.3l-10.2,1.7c0,0,4.7,1.7,5.7,4.3l1.2,0.7l6.6-3.8L552.3,594.3z"/>
							<polygon class="st112" points="574.6,586.3 553.9,593.7 556.9,596.5 							"/>
							<path class="st112" d="M537.2,595.4c0,0,5.7,2.9,6.9,5.6l1.8,1.8l-8.6,5l-7.8-1.4l-8.5-3.8
								C521,602.7,531.9,600.3,537.2,595.4z"/>
							<path class="st112" d="M519.3,604.4l5.5,2.3c0,0,3.5,2.3,7.4,2.5s-11.6,3.1-14.7,1.7c-3.1-1.4-6.9-3.3-9.8-8.9l0.7-0.9
								c0,0,3.3,1.6,4.5,2.8s2.3,2.2,4.4,2.4C519.2,606.3,519.3,604.4,519.3,604.4z"/>
							<path class="st112" d="M511,608.5l-3,1.3l3.9,2.3l2.1-1.2C514.1,610.9,511.9,610.6,511,608.5z"/>
							<path class="st112" d="M533.2,610.2c0,0-12.6,3.6-16.8,1.4l-2.6,1.5l7.2,4.1L533.2,610.2z"/>
							<path class="st112" d="M506.3,602.7c0,0,0.1-0.3-2.1,0.6c-2.2,0.9-4,1.9-4,1.9l6.6,3.8l3-1.7
								C509.8,607.3,506.2,603.7,506.3,602.7z"/>
							<path class="st112" d="M500.6,597.6c0,0,5.3-0.3,6.5,1.5l4.6-2.6c0,0-1.4-1.9-2-1.9s-7.9-1.3-7.9-0.9
								C501.7,594.1,500.6,597.6,500.6,597.6z"/>
							<path class="st112" d="M500.5,599.3l-0.9,4.6c0,0,2.4-2.1,5.2-2.1L500.5,599.3z"/>
							<polygon class="st112" points="497.2,597.4 496.1,602.9 485.1,596.6 489.6,593.7 							"/>
							<path class="st112" d="M487.9,593.1c0,0-6.6-1.2-9.6-0.5l5.3,3L487.9,593.1z"/>
							<polygon class="st112" points="474,587.1 473.4,589.8 461,582.7 462.8,581.7 							"/>
							<polygon class="st112" points="474.4,585.7 475.6,584.3 466.9,579.3 464.1,580.9 							"/>
							<polygon class="st112" points="481,580 477.5,582.6 469.3,577.9 471.3,576.8 							"/>
							<path class="st113" d="M482.6,578.9l-10-2.8l9.8-5.7l4.6,1.7C486.9,572,488.4,575.8,482.6,578.9z"/>
							<path class="st113" d="M484.4,580.9l9.5,3.9c0,0,5.5-2.4,6.3-2.8c0.8-0.4,3.5,6.3,3.5,6.3l-4.4,2.2l-19.2-6.4L484.4,580.9z"
								/>
							<path class="st113" d="M490.4,572.9c0,0-0.5,5.4-4.5,7.2l8.1,3.5l6-2.9c0,0-1.5-4.4-2.2-4.9
								C497,575.3,490.4,572.9,490.4,572.9z"/>
							<path class="st113" d="M503.7,566.7l1,0.2l-8.2,4.7c0,0-5.3,0.1-5.8-0.7C490.3,570.1,496.7,567.1,503.7,566.7z"/>
							<path class="st113" d="M505.9,560.3l1.9,0.3c0,0-3.7,4.1-6.1,4.5s-8.4,1.9-8.4,1.9s4.4-2.6,6.9-3.1
								C502.9,563.3,505.9,560.3,505.9,560.3z"/>
							<path class="st112" d="M505.5,557c0,0-0.5,3.8-3.9,5.2c-3.5,1.4-5.1,1.3-9.4,4s-5,3.4-5,3.4l-2.1-0.8L505.5,557z"/>
							<polygon class="st113" points="507.6,556.1 511.8,556.8 509.2,559.8 506.2,559.3 							"/>
							<path class="st112" d="M508.8,555.1l3.8,0.8c0,0,1.2-3,0.6-3.3L508.8,555.1z"/>
							<polygon class="st112" points="518.8,549.3 521.3,549.8 518.3,551.6 516.1,550.9 							"/>
							<path class="st112" d="M523.1,549.9l-3.1,2.2l7.7,3.1l2.7-2.2C530.3,553,525.7,549.5,523.1,549.9z"/>
							<polygon class="st113" points="532,553.8 529.7,555.5 541.3,559.1 541.8,557.6 							"/>
							<path class="st113" d="M536.1,559.9c0,0-6,0.9-7.1,0.4l0.5-2.3L536.1,559.9z"/>
							<path class="st112" d="M527.4,557.4l-0.5,2.4c0,0-3.7-0.4-5.3-1.5l1.1-2.6L527.4,557.4z"/>
							<polygon class="st112" points="517.2,553.7 515.9,556.7 519.5,557.6 520.9,555.3 							"/>
							<polygon class="st112" points="515.6,557.7 512.8,560.3 517.2,561.3 519.2,558.6 							"/>
							<path class="st113" d="M520.8,559.5c0,0-2.1,2.1-1.4,2.3s6.2,1.2,6.4,1s0.8-1.5,0.8-1.5L520.8,559.5z"/>
							<path class="st113" d="M528.5,561.2c0,0,2.2,1,8.9-0.5l4.3,1c0,0-5.9,9.8-7.4,9.9c-1.5,0.1-11.3-0.9-12.7-2.3
								c0,0,3.4-1.7-1.7-6.3C520,563,529.1,565.5,528.5,561.2z"/>
							<path class="st112" d="M544.7,563c0,0-5.3,8.4-6,8.7c-0.8,0.3,11.1-1.7,14.5-0.4c0,0,0-4.1,0.5-5
								C554.1,565.4,547.2,566.8,544.7,563z"/>
							<polygon class="st112" points="558.7,547.3 555.8,549 553,547.9 556.3,546 							"/>
							<polygon class="st112" points="553.7,544.4 552,545.4 549.2,543.7 550.6,542.6 							"/>
							<path class="st112" d="M550.5,541.2l-2.9,1.7l-8.8-5.1l2.2-1.3c0,0,5.9,0.7,7.3,1.4c1.4,0.7,3.3,1.6,4.5,1.9
								c1.2,0.3,4.3,1.1,4.8,1c0.5,0-3.3,2.6-3.3,2.6L550.5,541.2z"/>
							<path class="st112" d="M552.3,536.5l-1.6,0.9c0,0,3.5,1.8,6.9,2.2L552.3,536.5z"/>
							<polygon class="st112" points="550.9,535.7 549.3,536.7 542.6,535.6 546.6,533.3 							"/>
							<path class="st112" d="M566.4,544.7l-5.2-3c0,0-2.6,3.3-3.4,3.4s3,3,6.5,1.1L566.4,544.7z"/>
							<path class="st112" d="M567.7,545.4l-2.3,1.9c0,0,5.6,0.8,6.3,2l1.4-0.8L567.7,545.4z"/>
							<path class="st113" d="M574.5,549.4l-1.4,0.8c0,0,3.8,3.3,6.1,4.2s4.3,1.6,4.8,2.3c0.5,0.6,1.6-0.9,1.6-0.9L574.5,549.4z"/>
							<path class="st112" d="M588.4,557.4c0,0-5.8,7.7-4.7,8.1c1,0.4,4.3,0.5,4.9,0.5c0.7,0,8.9-3.4,8.9-3.4L588.4,557.4z"/>
							<path class="st112" d="M598.7,563.3c0,0-6.9,3.4-9,3.8c-2.1,0.3-5.5-0.5-5.5-0.5l1,2l19.8,0.2l1.6-0.9L598.7,563.3z"/>
							<path class="st112" d="M581.8,561.2l-1.6,3.8c0,0-2.4-0.6-4.5-1.9s-5.1-2.6-5.1-2.6L581.8,561.2z"/>
							<path class="st112" d="M583.7,558l-0.9,2l-12.3-0.7l-7.4-5.6c0,0,8.2-2.3,8.6-2.6S577.1,556.7,583.7,558z"/>
							<path class="st112" d="M551.9,548.5l2.4,1.4c0,0-6.7,3.3-7.4,3.7s-2.5-0.2-2.5-0.2S547.5,549.7,551.9,548.5z"/>
							<path class="st112" d="M546.1,544.9l3.4,2c0,0-8.9,4.7-8.3,6c0,0-4.6-2.5-3.9-2.9C538,549.6,546.1,544.9,546.1,544.9z"/>
							<polygon class="st113" points="537.1,539.7 545,544.2 537,548.8 							"/>
							<polygon class="st113" points="534.9,540 535,543 529.6,546.1 527,544.6 							"/>
							<path class="st112" d="M525.5,545.4c0,0,2.4,0.9,2.6,1.5c0.2,0.7-2.6,2.2-2.6,2.2l-6-0.3L525.5,545.4z"/>
							<path class="st113" d="M535.2,544.8l-3.8,1.5c0,0-1.5,2.3-3.4,3.3s13.2,6.6,13.2,6.6l-0.2-1.7c0,0-7.2-3.4-6.2-6.1
								S535.2,544.8,535.2,544.8z"/>
							<path class="st113" d="M556,550.6l-7.9,3.8c0,0,4,2.7,4.7,2.7c0.7,0.1,4.3,0.9,7.5-3.1L556,550.6z"/>
							<path class="st113" d="M570.6,550c0,0-3.4-1.8-4.5-1.7s-5.4-0.4-5.4-0.4l-3.9,1.8c0,0,5.2,3.5,5.2,3.3S568.8,550.2,570.6,550
								z"/>
							<path class="st113" d="M562.2,554.5c0,0-3.2,2.5-4.5,2.9c-1.4,0.5,9.9,1.5,9.9,1.5L562.2,554.5z"/>
							<path class="st113" d="M569,560.1l-14.5-1.5c0,0,0.3,1.9,0.1,2.3c-0.1,0.4,3.4,1.4,1.8,3c0,0,6.9,0.8,8,2
								C565.5,567.1,569,560.1,569,560.1z"/>
							<path class="st112" d="M570.5,561.8c0,0-2.1,2.5-2.6,3.1s-1.4,1.2-1.4,1.2s13.1,1.1,14.3,1.6l-0.5-1.6
								C580.2,566.2,577,567.7,570.5,561.8z"/>
							<path class="st113" d="M582.3,570.4l-2.6,3.4c0,0-2.3-1-3.5-0.7c-1.2,0.2-2.4,1-3,1s-1.5,0.4-2.1,0.1s0.8-1.4-0.1-2.3
								s-3.2-1.3-3.6-1.6c-0.5-0.3,0-2,0-2S581.3,569.5,582.3,570.4z"/>
							<path class="st112" d="M601.8,570.6h-15.5c0,0-3.2,4.1-3.2,4.2l-0.7,4.8l4.2-0.2L601.8,570.6z"/>
							<polygon class="st112" points="584.4,580.6 582.6,580.7 581.5,582.3 							"/>
							<path class="st112" d="M580.6,581.1c0,0-0.5,0.6-2.2,0.7s-5.6-0.1-5.6-0.1l-0.9,0.5l6,1.2L580.6,581.1z"/>
							<polygon class="st112" points="571,583.3 576,584.1 567,588.1 							"/>
							<polygon class="st113" points="565.9,580.9 562.5,582.8 563.8,580.4 							"/>
							<path class="st113" d="M576.4,573.9c0,0-2.7,2.4-4.3,1.7s-3.8-1-3.6-3c0.3-2-1.6-1.4-2-1.1c-0.3,0.3-3.6,3.5-3,4.2
								s0.3,2.8,0.3,2.8s5.9,1.8,6.7,1.3s8-5.2,8-5.2L576.4,573.9z"/>
							<path class="st113" d="M555,568.8c0,0,3.2,0.5,4,2.3c0,0,4.6,0.4,5.6-0.4c1-0.8,0.4-2.7,0.4-2.7s-4.4-0.6-6.1-1.6
								s-3.5-0.3-3.5-0.3L555,568.8z"/>
							<path class="st113" d="M553.1,559c0,0-4.5,0.5-6,0.1c-1.4-0.4,5.4,1.6,5.7,1.5C553.3,560.6,553.1,559,553.1,559z"/>
							<path class="st113" d="M544.6,554.4c0,0,3.5,1.1,4.3,1.8c0.9,0.7,2.5,1.4,2.9,1.5s-6.3,0.5-6.3,0.5L544.6,554.4z"/>
							<path class="st113" d="M511.5,561.4l5.9,1.4c0,0,0.7,2,2,3.1s1.1,1.9,1.1,1.9l-13.5-2.9L511.5,561.4z"/>
							<path class="st113" d="M478.9,586.2l-2,5.2c0,0,8-0.3,10.9,0.5c2.9,0.9,7.8,4,8.9,4.1c1,0.2,1.3-4,1.3-4
								S480.8,586.8,478.9,586.2z"/>
							<polygon class="st112" points="505.3,590.1 502.5,591.3 505.9,592.1 							"/>
							<path class="st112" d="M496.3,573.6c0,0,8.9-0.6,11.1,5.2s0.4,7.2,6.4,8.3c6.1,1.1-8.6,0.6-8.6,0.6S505.6,577.6,496.3,573.6z
								"/>
							<path class="st112" d="M522.5,585c2.9,1.9,14.1,8.6,15.4,8.4c1.3-0.2,1.6-0.9,1.6-0.9s-15.2-8.2-16.4-9
								C521.9,582.7,522.5,585,522.5,585z"/>
							<path class="st112" d="M524.1,588.6l-5.6,3.2c0,0,8.8,6.3,9.2,6s6-3.4,6.2-3.6C534.1,594.1,524.1,588.6,524.1,588.6z"/>
							<path class="st112" d="M520.7,589c0,0-5.5,0.5-7.2,0.1c-1.8-0.4-5,0-5.6,0.5c-0.6,0.4-0.4,2.2,0.1,2.6s3.6,0.4,4.5,1.3
								L520.7,589z"/>
							<path class="st112" d="M529.8,573.3c0,0-7.2,3.4-7.8,4s2.3,2,2.3,2s8-5.4,8.4-5.8C533,573.1,529.8,573.3,529.8,573.3z"/>
							<path class="st112" d="M534.5,573.8l-1.1,1.2l8.1,3.2c0,0,1.2-2.4,2.6-3.2C545.5,574.2,534.5,573.8,534.5,573.8z"/>
							<path class="st112" d="M546.7,575.2c0,0-5.5,3.4-2.9,3.5c2.6,0.2,6.6-0.4,6.6-0.4L546.7,575.2z"/>
							<path class="st112" d="M551.8,577.4c0,0,9.2,2.8,9.8,2.5s-0.7,1.9-0.7,1.9S554.4,581,551.8,577.4z"/>
							<path class="st112" d="M525.2,572.7c0,0-4.2,2.5-4.7,3.2c-0.6,0.8-3.1,1.2-5.1,1.4s-5.7-0.2-5.7-0.2s-6.8-6.1-9.7-5.6
								c-2.9,0.5,7-4.4,7-4.4S514.4,567.1,525.2,572.7z"/>
							<path class="st112" d="M532.4,575.6l-2.8,2.1c0,0-0.6,4.3-1.4,5.7c-0.8,1.4,0.8,2.8,1.4,2.8c0.6,0,12-0.3,12-0.3l0.2-6.7
								L532.4,575.6z"/>
							<path class="st112" d="M544,580l7.9-0.5c0,0,4.1,2.7,8.5,3.7l-12.8,6.6c0,0-3.8-2-4-3.2C543.4,585.3,544,580,544,580z"/>
							<polygon class="st113" points="541.8,586.8 532.1,587.3 541.1,592.2 545.9,590.2 							"/>
							<polygon class="st113" points="547.1,590.9 542.3,592.8 544,593.9 549.3,592.6 							"/>
							<path class="st113" d="M549,590.6l2.8,1.6c0,0,11.9-2.6,13.3-6.4l-2.7-1.5C562.4,584.3,553.4,590.4,549,590.6z"/>
							<polygon class="st112" points="541.2,593.5 538.9,594.2 541.9,593.9 							"/>
							<path class="st112" d="M545.6,560c1.8,0.7,5.2,1,7,1.5c1.7,0.5,2.5,1,2.5,1.5s0.6,1.1-0.5,1c-1.1,0-1.9,0.8-3.8-0.3
								s-5.4-3.1-5.4-3.1L545.6,560z"/>
							<path class="st112" d="M555.6,570.5c0,0,3.5,2.8,5.2,2.6s2.7-0.5,2.7-0.5s-2.2,2.3-1.9,3.6s0.1,1.7,0.1,1.7s-14.7-5.4-17-5.4
								s6.2-0.2,8.1-0.4S555.6,570.5,555.6,570.5z"/>
							<path class="st113" d="M518.6,581.7c-3.7,0-4.5,0.1-4,1.4c0.5,1.2,3.9,1.1,5.3,0.3s1.1-2.7,1.1-2.7s-3.5-1-5.5-0.9
								C513.5,579.8,518.6,581.7,518.6,581.7z"/>
						</g>
					</g>
				</g>
			</g>
		</g>
		<g>
			
				<linearGradient id="SVGID_71_" gradientUnits="userSpaceOnUse" x1="528.2" y1="155.2281" x2="665.0043" y2="155.2281" gradientTransform="matrix(1 0 0 -1 0 704)">
				<stop  offset="0" style="stop-color:#78B0AD"/>
				<stop  offset="1" style="stop-color:#1DB0AD"/>
			</linearGradient>
			<path class="st114" d="M661.4,608.2l-117.2-67.6l-16,5.1v-14.3v-39.9c0-2.4,1.7-3.3,3.7-2.2L661.3,564c2.1,1.2,3.7,4.1,3.7,6.5
				V606C665.1,608.4,663.4,609.4,661.4,608.2z"/>
			<g>
				<g class="st115">
					<path class="st104" d="M561,528c0,7.1-5,10-11.2,6.5c-6.2-3.6-11.2-12.3-11.2-19.4s5-10,11.2-6.5S561,520.8,561,528z"/>
					<path class="st116" d="M557.1,533.9c-0.5-0.6-3.7-4-4.5-4.8v-1.6c0.1-0.1,0.4-0.4,0.5-0.8c0.1-0.2,0.1-0.5,0.2-0.7l0.1,0.1
						c0.2,0.1,0.4,0.1,0.5,0c0,0,0-0.1,0.1,0c0,0,1.1-2.1,0.5-3.3c-0.1-0.2-0.2-0.4-0.4-0.6c0-0.1,0-0.2,0.1-0.2
						c0.1-0.8,0.1-1.6,0.1-2.2c0-2-1.6-4.5-2.2-5.2c-0.9-1.2-1.9-1.8-2.2-2l-0.1-0.1c-0.1,0-1.2-0.7-2.3-0.6c-0.5,0-0.9,0.2-1,0.6
						c-0.1,0.2-0.1,0.4,0,0.5c-0.2-0.1-0.5-0.1-0.8,0c-0.4,0.2-0.5,0.7-0.5,1.6v0.4c0,0.5,0.1,1.2,0.1,1.9c0,0.1,0,0.2,0.1,0.3
						c-0.2,0-0.3,0-0.4,0.1c-0.5,0.6,0.5,3.9,0.5,4l0.1,0.1c0.2,0.4,0.3,0.5,0.5,0.6l0.1,0.1c0.1,0.2,0.1,0.6,0.2,0.9
						c0.1,0.6,0.4,1.1,0.5,1.5v1.6c-0.8-0.1-4-0.3-4.5-0.4c-0.4-0.1-0.6-0.1-0.8-0.1h-0.2l0.9,0.8c1.1,0.1,4.9,0.4,5,0.4h0.2v-2.2
						l-0.1-0.1c0,0-0.4-0.5-0.4-1.2c-0.1-0.7-0.3-1.5-0.3-1.5l-0.2-0.9l-0.3,0.6c0,0,0,0.1-0.1,0l-0.1-0.1c-0.2-0.7-0.8-3-0.6-3.4
						h0.1l0.1,0.1l0.5,0.4l-0.1-0.6l-0.1-0.6c-0.1-0.6-0.1-1.2-0.1-1.8V515c0-0.7,0.1-1.1,0.4-1.2c0.3-0.2,0.7,0.1,0.7,0.1l0.6,0.4
						l-0.4-0.7c0,0-0.1-0.3-0.1-0.5c0.1-0.2,0.3-0.4,0.7-0.4c1.1-0.1,2.1,0.5,2.2,0.6l0.1,0.1c0.4,0.2,1.1,0.5,1.9,1.6
						c0.5,0.6,1.9,2.9,1.9,4.6c0,0.5,0,1.4-0.1,2.1c0,0.3-0.1,0.5-0.1,0.5l-0.1,0.5l0.7,0.4c0.1,0,0.1,0,0.1,0.1
						c0.2,0.6-0.4,2.2-0.6,2.7c0,0.1-0.1,0-0.1,0l-0.1-0.1l-0.4-1.1l-0.2,0.7c0,0-0.1,0.5-0.3,1.1c-0.1,0.5-0.4,0.7-0.4,0.7h-0.1
						v2.2l0.2,0.2c0.1,0.1,3.9,4.2,5.1,5.5l0.6-0.1C557.6,534.5,557.4,534.2,557.1,533.9L557.1,533.9z"/>
				</g>
				<polygon class="st84" points="654.1,592.6 566.3,541.9 566.3,538.6 654.1,589.3 				"/>
				<text transform="matrix(0.866 0.5 0 1 566.3943 530.6487)" class="st16 st117 st118">Leads near me</text>
			</g>
		</g>
		<g>
			<path class="st35" d="M530.8,556.9c0-1.9-1.3-4.1-2.9-5c-0.1-0.1-0.3-0.2-0.4-0.2c-0.5,0.3-0.9,1-0.9,1.9c0,1.9,1.3,4.1,2.9,5
				c0.1,0.1,0.3,0.2,0.4,0.2C530.5,558.5,530.8,557.9,530.8,556.9z"/>
			<path class="st119" d="M527.9,545.8c-0.9-0.5-1.8-0.8-2.6-1c-3.2-0.5-5.4,1.9-5.4,6.1c0,2.2,1.1,6.4,3.5,12.7
				c1.2,3.4,3.2,8.4,4.1,10.5c0.1,0.3,0.4,0.6,0.6,0.6c0.1,0,0.2,0,0.2-0.1c0.2-0.2,0.4-0.5,0.6-0.9c1-1.3,2.5-3.3,3.5-4.9
				c2.4-3.8,3.5-6.6,3.5-8.7C535.9,554.7,532.4,548.4,527.9,545.8z M527.9,558.6c-1.6-0.9-2.9-3.2-2.9-5c0-1.7,1.1-2.4,2.5-1.9
				c0.1,0.1,0.3,0.1,0.4,0.2c1.6,0.9,2.9,3.2,2.9,5c0,0.9-0.3,1.6-0.9,1.9C529.4,559.1,528.7,559.1,527.9,558.6z"/>
		</g>
	</g>
	<g>
		<path class="st35" d="M713.6,447.9c-3.2,0-6,1-7.4,2.6c1.4,1.5,4.2,2.6,7.4,2.6s6-1,7.4-2.6C719.6,448.9,716.8,447.9,713.6,447.9z
			"/>
		
			<linearGradient id="SVGID_72_" gradientUnits="userSpaceOnUse" x1="682.1502" y1="250.9" x2="745.0563" y2="250.9" gradientTransform="matrix(1 0 0 -1 0 704)">
			<stop  offset="0" style="stop-color:#0041BF"/>
			<stop  offset="1" style="stop-color:#00CFFF;stop-opacity:0.9"/>
		</linearGradient>
		<path class="st120" d="M745,450.4c-0.2,0.4-0.8,0.7-1.6,0.7h-8.2c-0.7,0-1.4,0.3-1.6,0.7c-0.4,0.6-0.8,1.2-1.3,1.8
			c-0.3,0.4-0.2,0.8,0.3,1.1l1.8,1.1c0.2-0.1,0.5-0.1,0.8-0.1h8.2c0.9,0,1.7-0.4,1.7-1v-4.1C745.1,450.6,745,450.5,745,450.4z"/>
		
			<linearGradient id="SVGID_73_" gradientUnits="userSpaceOnUse" x1="682.1502" y1="235.9" x2="745.0564" y2="235.9" gradientTransform="matrix(1 0 0 -1 0 704)">
			<stop  offset="0" style="stop-color:#1DB0AD"/>
			<stop  offset="1" style="stop-color:#00CFFF;stop-opacity:0.9"/>
		</linearGradient>
		<path class="st121" d="M717.2,466.3H710c-0.9,0-1.7-0.4-1.7-1v4.6c0,0.5,0.8,1,1.7,1h7.1c0.9,0,1.7-0.4,1.7-1v-4.6
			C718.8,465.9,718.1,466.3,717.2,466.3z"/>
		
			<linearGradient id="SVGID_74_" gradientUnits="userSpaceOnUse" x1="682.1502" y1="257.15" x2="745.0563" y2="257.15" gradientTransform="matrix(1 0 0 -1 0 704)">
			<stop  offset="0" style="stop-color:#1DB0AD"/>
			<stop  offset="1" style="stop-color:#00CFFF;stop-opacity:0.95"/>
		</linearGradient>
		<path class="st122" d="M713.6,443.3c-4.6,0-8.4,2.2-8.4,4.8c0,0.8,0.4,1.6,1,2.3c1.4-1.5,4.2-2.6,7.4-2.6s6,1,7.4,2.6
			c0.6-0.7,1-1.5,1-2.3C722,445.5,718.2,443.3,713.6,443.3z"/>
		
			<linearGradient id="SVGID_75_" gradientUnits="userSpaceOnUse" x1="682.1502" y1="250.8" x2="745.0563" y2="250.8" gradientTransform="matrix(1 0 0 -1 0 704)">
			<stop  offset="0" style="stop-color:#1DB0AD"/>
			<stop  offset="1" style="stop-color:#00CFFF;stop-opacity:0.9"/>
		</linearGradient>
		<path class="st123" d="M694.9,453.7c-0.5-0.6-1-1.2-1.3-1.8c-0.2-0.4-0.9-0.7-1.6-0.7h-8.2c-0.8,0-1.5-0.3-1.6-0.7
			c0,0.1,0,0.1,0,0.2v4.1c0,0.5,0.8,1,1.7,1h8.2c0.3,0,0.6,0.1,0.8,0.1l1.8-1.1C695.2,454.5,695.3,454.1,694.9,453.7z"/>
		<g>
			<path class="st35" d="M647.1,438.3c-4.9-2.8-12.9-2.8-17.8,0c-1.4,0.8-2.4,1.8-3,2.9c0.6,1,1.6,2,3,2.9c4.9,2.8,12.9,2.8,17.8,0
				c1.4-0.8,2.4-1.8,3-2.9C649.6,440.1,648.6,439.1,647.1,438.3z"/>
			
				<linearGradient id="SVGID_76_" gradientUnits="userSpaceOnUse" x1="591.0564" y1="267.65" x2="685.4156" y2="267.65" gradientTransform="matrix(1 0 0 -1 0 704)">
				<stop  offset="0" style="stop-color:#1DB0AD"/>
				<stop  offset="1" style="stop-color:#00CFFF;stop-opacity:0.9"/>
			</linearGradient>
			<path class="st124" d="M647.1,433.7c-4.9-2.8-12.9-2.8-17.8,0c-3.5,2-4.5,4.9-3,7.4c0.6-1,1.6-2,3-2.9c4.9-2.8,12.9-2.8,17.8,0
				c1.4,0.8,2.4,1.8,3,2.9C651.6,438.6,650.6,435.7,647.1,433.7z"/>
			
				<linearGradient id="SVGID_77_" gradientUnits="userSpaceOnUse" x1="591.0564" y1="258.2" x2="685.4156" y2="258.2" gradientTransform="matrix(1 0 0 -1 0 704)">
				<stop  offset="0" style="stop-color:#0041BF"/>
				<stop  offset="1" style="stop-color:#00CFFF;stop-opacity:0.9"/>
			</linearGradient>
			<path class="st125" d="M683.8,445.1h1.6V442c0,0.8-1.1,1.5-2.5,1.5h-12.3c-1.1,0-2.1,0.4-2.4,1c-0.5,0.9-1.2,1.9-2,2.7
				c-0.5,0.6-0.3,1.2,0.4,1.7l1.2,0.7c0.1-0.2,0.2-0.4,0.3-0.5c0.3-0.6,1.3-1,2.4-1h11.6v-1.9C682.2,445.6,682.9,445.1,683.8,445.1z
				"/>
			
				<linearGradient id="SVGID_78_" gradientUnits="userSpaceOnUse" x1="630.4" y1="285.1" x2="630.4" y2="285.1" gradientTransform="matrix(1 0 0 -1 0 704)">
				<stop  offset="0" style="stop-color:#F2F5F9"/>
				<stop  offset="1" style="stop-color:#C6DFFE"/>
			</linearGradient>
			<polygon class="st126" points="630.4,417.6 630.4,417.6 630.4,420.2 630.4,420.2 			"/>
			
				<linearGradient id="SVGID_79_" gradientUnits="userSpaceOnUse" x1="591.0564" y1="258.2" x2="685.4156" y2="258.2" gradientTransform="matrix(1 0 0 -1 0 704)">
				<stop  offset="0" style="stop-color:#1DB0AD"/>
				<stop  offset="1" style="stop-color:#00CFFF;stop-opacity:0.9"/>
			</linearGradient>
			<path class="st127" d="M610.3,447.2c-0.8-0.9-1.4-1.8-2-2.7c-0.3-0.6-1.3-1-2.4-1h-12.3c-1.4,0-2.5-0.7-2.5-1.5v4.6
				c0,0.8,1.1,1.5,2.5,1.5h12.3c1.1,0,2.1,0.4,2.4,1c0.1,0.2,0.2,0.4,0.3,0.5l1.2-0.7C610.6,448.4,610.8,447.7,610.3,447.2z"/>
			
				<linearGradient id="SVGID_80_" gradientUnits="userSpaceOnUse" x1="591.0563" y1="276.2" x2="685.4156" y2="276.2" gradientTransform="matrix(1 0 0 -1 0 704)">
				<stop  offset="0" style="stop-color:#0041BF"/>
				<stop  offset="1" style="stop-color:#00CFFF;stop-opacity:0.9"/>
			</linearGradient>
			<path class="st128" d="M666.7,428.9c-0.8,0.4-1,1.1-0.4,1.7c0.6,0.7,1.2,1.4,1.6,2.2l7.5-4.4c0.5-0.3,0.7-0.7,0.7-1v-4.6
				L666.7,428.9z"/>
			<polygon class="st129" points="646.1,464.7 646.1,464.7 646.1,462.1 646.1,462.1 			"/>
			
				<linearGradient id="SVGID_81_" gradientUnits="userSpaceOnUse" x1="591.0564" y1="241.0844" x2="685.4156" y2="241.0844" gradientTransform="matrix(1 0 0 -1 0 704)">
				<stop  offset="0" style="stop-color:#1DB0AD"/>
				<stop  offset="1" style="stop-color:#00CFFF;stop-opacity:0.9"/>
			</linearGradient>
			<path class="st130" d="M646.1,464.7c0,0.8-1.1,1.5-2.5,1.5h-10.7c-1.4,0-2.5-0.7-2.5-1.5v-7.1c0-0.6-0.7-1.2-1.8-1.4
				c-1.6-0.3-3.2-0.7-4.7-1.1c-1-0.3-2.2-0.2-2.9,0.3l-8.7,5c-0.7,0.4-1.6,0.5-2.5,0.4l0,0l-9.4-5.7v4.7l0,0
				c0.1,0.3,0.3,0.6,0.7,0.9l7.6,4.4c1,0.6,2.6,0.6,3.6,0l8.7-5c0.8-0.4,2-0.5,2.9-0.3c1.5,0.5,3.1,0.8,4.7,1.1
				c1,0.2,1.8,0.7,1.8,1.4v7.1c0,0.8,1.1,1.5,2.5,1.5h10.7c1.4,0,2.5-0.7,2.5-1.5L646.1,464.7z"/>
			
				<linearGradient id="SVGID_82_" gradientUnits="userSpaceOnUse" x1="591.0564" y1="276.2" x2="685.4156" y2="276.2" gradientTransform="matrix(1 0 0 -1 0 704)">
				<stop  offset="0" style="stop-color:#1DB0AD"/>
				<stop  offset="1" style="stop-color:#00CFFF;stop-opacity:0.9"/>
			</linearGradient>
			<path class="st131" d="M609.8,428.9l-0.8-0.5l0,0l-8.6-5.6v4.6c0,0.4,0.2,0.7,0.7,1l7.5,4.4c0.5-0.7,1-1.5,1.6-2.2
				C610.8,430,610.6,429.3,609.8,428.9z"/>
			
				<linearGradient id="SVGID_83_" gradientUnits="userSpaceOnUse" x1="591.0564" y1="243.825" x2="685.4156" y2="243.825" gradientTransform="matrix(1 0 0 -1 0 704)">
				<stop  offset="0" style="stop-color:#1DB0AD"/>
				<stop  offset="1" style="stop-color:#00CFFF;stop-opacity:0.9"/>
			</linearGradient>
			<path class="st132" d="M676.1,454.9l-7.8,5.2l0,0l-0.5,0.3c-1,0.6-2.6,0.6-3.6,0l-8.7-5c-0.8-0.4-2-0.5-2.9-0.3
				c-1.5,0.5-3.1,0.8-4.7,1.1c-1,0.2-1.8,0.7-1.8,1.4v4.6c0-0.6,0.7-1.2,1.8-1.4c1.6-0.3,3.2-0.7,4.7-1.1c1-0.3,2.2-0.2,2.9,0.3
				l8.7,5c1,0.6,2.6,0.6,3.6,0l7.6-4.4c0.5-0.3,0.7-0.7,0.7-1l0,0V454.9z"/>
			
				<linearGradient id="SVGID_84_" gradientUnits="userSpaceOnUse" x1="591.1002" y1="265.05" x2="685.4594" y2="265.05" gradientTransform="matrix(1 0 0 -1 0 704)">
				<stop  offset="0" style="stop-color:#8EB0AD"/>
				<stop  offset="1" style="stop-color:#1DB0AD"/>
			</linearGradient>
			<path class="st133" d="M682.9,434.3h-12.3c-1.1,0-2.1-0.4-2.4-1c-0.1-0.2-0.2-0.4-0.3-0.5c-0.5-0.7-1-1.5-1.6-2.2
				c-0.5-0.6-0.3-1.2,0.4-1.7l6.5-3.8l2.2-1.3c1-0.6,1-1.5,0-2.1l-7.6-4.4c-1-0.6-2.6-0.6-3.6,0l-8.7,5c-0.8,0.4-2,0.5-2.9,0.3
				c-1.5-0.5-3.1-0.8-4.7-1.1c-1-0.2-1.8-0.7-1.8-1.4V413c0-0.8-1.1-1.5-2.5-1.5h-10.7c-1.4,0-2.5,0.7-2.5,1.5v4.6v2.6l0,0
				c0,0.6-0.7,1.2-1.8,1.4c-1.6,0.3-3.2,0.7-4.7,1.1c-1,0.3-2.2,0.2-2.9-0.3l-8.7-5c-1-0.6-2.6-0.6-3.6,0l-7.6,4.4
				c-1,0.6-1,1.5,0,2.1l2.2,1.3l6.5,3.8c0.8,0.4,1,1.1,0.4,1.7c-0.6,0.7-1.2,1.4-1.6,2.2c-0.1,0.2-0.2,0.4-0.3,0.5
				c-0.3,0.6-1.3,1-2.4,1h-12.3c-1.4,0-2.5,0.7-2.5,1.5v4.6v1.6c0,0.8,1.1,1.5,2.5,1.5h12.3c1.1,0,2.1,0.4,2.4,1
				c0.5,0.9,1.2,1.9,2,2.7c0.5,0.6,0.3,1.2-0.4,1.7l-1.2,0.7l-7.5,4.4c-1,0.6-1,1.5,0,2.1l2.2,1.3l5.4,3.1c1,0.6,2.6,0.6,3.6,0
				l8.7-5c0.8-0.4,2-0.5,2.9-0.3c1.5,0.5,3.1,0.8,4.7,1.1c1,0.2,1.8,0.7,1.8,1.4v7.1c0,0.8,1.1,1.5,2.5,1.5h10.7
				c1.4,0,2.5-0.7,2.5-1.5v-2.6l0,0v-4.6c0-0.6,0.7-1.2,1.8-1.4c1.6-0.3,3.2-0.7,4.7-1.1c1-0.3,2.2-0.2,2.9,0.3l8.7,5
				c1,0.6,2.6,0.6,3.6,0l5.4-3.1l2.2-1.3c1-0.6,1-1.5,0-2.1l-7.5-4.4l-1.2-0.7c-0.8-0.4-1-1.1-0.4-1.7c0.8-0.9,1.4-1.8,2-2.7
				c0.3-0.6,1.3-1,2.4-1h12.3c1.4,0,2.5-0.7,2.5-1.5v-1.6v-4.6C685.4,435,684.3,434.3,682.9,434.3z M650.2,441.1c-0.6,1-1.6,2-3,2.9
				c-4.9,2.8-12.9,2.8-17.8,0c-1.4-0.8-2.4-1.8-3-2.9c-1.4-2.5-0.4-5.4,3-7.4c4.9-2.8,12.9-2.8,17.8,0
				C650.6,435.7,651.6,438.6,650.2,441.1z"/>
		</g>
		<polygon class="st134" points="718.8,465.4 718.8,465.4 718.8,465.2 718.8,465.2 		"/>
		
			<linearGradient id="SVGID_85_" gradientUnits="userSpaceOnUse" x1="684.9148" y1="262.8" x2="734.462" y2="262.8" gradientTransform="matrix(1 0 0 -1 0 704)">
			<stop  offset="0" style="stop-color:#1DB0AD"/>
			<stop  offset="1" style="stop-color:#00CFFF;stop-opacity:0.9"/>
		</linearGradient>
		<path class="st135" d="M694.8,441.5l-1.5-1.1v-0.1l-3.5-2.9v4.6c0,0.2,0.2,0.5,0.4,0.7l3.2,2.3c0.3-0.1,0.6-0.3,0.6-0.5
			c0.3-0.6,0.6-1.2,1-1.8C695.3,442.3,695.2,441.8,694.8,441.5z"/>
		
			<linearGradient id="SVGID_86_" gradientUnits="userSpaceOnUse" x1="682.1501" y1="262.9" x2="745.0564" y2="262.9" gradientTransform="matrix(1 0 0 -1 0 704)">
			<stop  offset="0" style="stop-color:#0041BF"/>
			<stop  offset="1" style="stop-color:#00CFFF;stop-opacity:0.9"/>
		</linearGradient>
		<path class="st136" d="M734.8,440.2L734.8,440.2l-2.3,1.3c-0.5,0.3-0.6,0.8-0.3,1.1c0.5,0.6,1,1.2,1.3,1.8
			c0.1,0.2,0.4,0.4,0.8,0.5l4-2.3c0.3-0.2,0.5-0.4,0.5-0.7v-4.6L734.8,440.2z"/>
		
			<linearGradient id="SVGID_87_" gradientUnits="userSpaceOnUse" x1="682.1501" y1="241.002" x2="745.0563" y2="241.002" gradientTransform="matrix(1 0 0 -1 0 704)">
			<stop  offset="0" style="stop-color:#1DB0AD"/>
			<stop  offset="1" style="stop-color:#00CFFF;stop-opacity:0.9"/>
		</linearGradient>
		<path class="st137" d="M734.1,462l-0.8,0.4c-0.7,0.4-1.7,0.4-2.4,0l-5.8-3.4c-0.5-0.3-1.3-0.4-2-0.2c-1,0.3-2.1,0.6-3.2,0.8
			c-0.7,0.1-1.2,0.5-1.2,0.9v4.6c0-0.4,0.5-0.8,1.2-0.9c1.1-0.2,2.2-0.5,3.2-0.8c0.7-0.2,1.4-0.1,2,0.2l5.8,3.4
			c0.7,0.4,1.7,0.4,2.4,0l5-2.9c0.3-0.2,0.5-0.4,0.5-0.7v-4.6L734.1,462z"/>
		
			<linearGradient id="SVGID_88_" gradientUnits="userSpaceOnUse" x1="682.1549" y1="240.952" x2="745.0497" y2="240.952" gradientTransform="matrix(1 0 0 -1 0 704)">
			<stop  offset="0" style="stop-color:#1DB0AD"/>
			<stop  offset="1" style="stop-color:#00CFFF;stop-opacity:0.9"/>
		</linearGradient>
		<path class="st138" d="M707.2,459.7c-1.1-0.2-2.2-0.5-3.2-0.8c-0.7-0.2-1.4-0.1-2,0.2l-5.8,3.4c-0.5,0.3-1.2,0.4-1.8,0.2v-0.1
			l-6.1-3.8v4.6c0,0,0,0,0,0.1l0,0l0,0c0,0.2,0.2,0.4,0.5,0.6l5,2.9c0.7,0.4,1.7,0.4,2.4,0l5.8-3.4c0.5-0.3,1.3-0.4,2-0.2
			c1,0.3,2.1,0.6,3.2,0.8c0.7,0.1,1.2,0.5,1.2,0.9v-4.6C708.4,460.2,707.9,459.8,707.2,459.7z"/>
		
			<linearGradient id="SVGID_89_" gradientUnits="userSpaceOnUse" x1="682.1502" y1="255.7" x2="745.0564" y2="255.7" gradientTransform="matrix(1 0 0 -1 0 704)">
			<stop  offset="0" style="stop-color:#7AB0AD"/>
			<stop  offset="1" style="stop-color:#1DB0AD"/>
		</linearGradient>
		<path class="st139" d="M745.1,446.1c0-0.5-0.8-1-1.7-1h-8.2c-0.3,0-0.6-0.1-0.8-0.1c-0.4-0.1-0.7-0.3-0.8-0.5
			c-0.4-0.6-0.8-1.2-1.3-1.8c-0.3-0.4-0.2-0.8,0.3-1.1l3-1.8l2.8-1.6c0.7-0.4,0.7-1,0-1.4l-5-2.9c-0.7-0.4-1.7-0.4-2.4,0l-5.8,3.4
			c-0.5,0.3-1.3,0.4-2,0.2c-1-0.3-2.1-0.6-3.2-0.8c-0.7-0.1-1.2-0.5-1.2-0.9v-4.7c0-0.5-0.8-1-1.7-1H710c-0.9,0-1.7,0.4-1.7,1v4.6
			v0.2c0,0.4-0.5,0.8-1.2,0.9c-1.1,0.2-2.2,0.5-3.2,0.8c-0.7,0.2-1.4,0.1-2-0.2l-5.8-3.4c-0.7-0.4-1.7-0.4-2.4,0l-5,2.9
			c-0.7,0.4-0.7,1,0,1.4l2.8,1.6l3,1.8c0.5,0.3,0.6,0.8,0.3,1.1c-0.5,0.6-1,1.2-1.3,1.8c-0.1,0.2-0.4,0.4-0.8,0.5
			c-0.2,0.1-0.5,0.1-0.8,0.1h-6.6h-1.6c-0.9,0-1.7,0.4-1.7,1v1.9v2.3c0,0.1,0,0.1,0,0.2c0.2,0.4,0.8,0.7,1.6,0.7h8.2
			c0.7,0,1.4,0.3,1.6,0.7c0.4,0.6,0.8,1.2,1.3,1.8c0.3,0.4,0.2,0.8-0.3,1.1l-1.8,1.1l-4,2.3c-0.7,0.4-0.7,1,0,1.4l2.8,1.6l2.3,1.3
			c0.7,0.4,1.7,0.4,2.4,0l5.8-3.4c0.5-0.3,1.3-0.4,2-0.2c1,0.3,2.1,0.6,3.2,0.8c0.7,0.1,1.2,0.5,1.2,0.9v4.6v0.2c0,0.5,0.8,1,1.7,1
			h7.1c0.9,0,1.7-0.4,1.7-1v-0.2l0,0v-4.6c0-0.4,0.5-0.8,1.2-0.9c1.1-0.2,2.2-0.5,3.2-0.8c0.7-0.2,1.4-0.1,2,0.2l5.8,3.4
			c0.7,0.4,1.7,0.4,2.4,0l2.3-1.3l2.8-1.6c0.7-0.4,0.7-1,0-1.4l-4-2.3l-1.8-1.1c-0.5-0.3-0.6-0.8-0.3-1.1c0.5-0.6,1-1.2,1.3-1.8
			c0.2-0.4,0.9-0.7,1.6-0.7h8.2c0.8,0,1.5-0.3,1.6-0.7c0-0.1,0-0.1,0-0.2V446.1z M721,450.4c-1.4,1.5-4.2,2.6-7.4,2.6s-6-1-7.4-2.6
			c-0.6-0.7-1-1.5-1-2.3c0-2.7,3.8-4.8,8.4-4.8c4.6,0,8.4,2.2,8.4,4.8C722,449,721.6,449.8,721,450.4z"/>
	</g>
	<g>
		<g>
			<path class="st104" d="M614.4,125.8c0,22.1-15.5,31-34.6,20s-34.6-37.9-34.6-60s15.5-31,34.6-20S614.4,103.7,614.4,125.8z"/>
			<path class="st15" d="M609.2,126.8c0,22.1-15.5,31-34.6,20s-34.6-37.9-34.6-60s15.5-31,34.6-20S609.2,104.7,609.2,126.8z"/>
			<path class="st16" d="M602.5,122.9c0,17.8-12.5,25.1-28,16.1c-15.4-8.9-28-30.6-28-48.4s12.5-25.1,28-16.1
				C590,83.4,602.5,105.1,602.5,122.9z"/>
			<path class="st15" d="M596.5,119.4c0,14-9.8,19.6-21.9,12.6c-12.1-7-21.9-24-21.9-37.9s9.8-19.6,21.9-12.6
				S596.5,105.5,596.5,119.4z"/>
			<path class="st140" d="M588.7,114.9c0,9-6.3,12.6-14.1,8.1s-14.1-15.4-14.1-24.4s6.3-12.6,14.1-8.1S588.7,105.9,588.7,114.9z"/>
			<path class="st141" d="M583.5,111.9c0,5.7-4,8-8.9,5.1c-4.9-2.8-8.9-9.8-8.9-15.4s4-8,8.9-5.1
				C579.5,99.3,583.5,106.2,583.5,111.9z"/>
		</g>
		<g>
			<path class="st24" d="M519.6,140.6l54.3-31.4c0.7-0.4,1.3-1.3,1.4-2.1l0,0c0.1-0.7-0.5-1-1.2-0.6l-54.3,31.4
				c-0.7,0.4-1.3,1.3-1.4,2.1l0,0C518.3,140.8,518.9,141,519.6,140.6z"/>
			
				<linearGradient id="SVGID_90_" gradientUnits="userSpaceOnUse" x1="520.621" y1="574.55" x2="538.2583" y2="574.55" gradientTransform="matrix(1 0 0 -1 0 704)">
				<stop  offset="0" style="stop-color:#00B0A8"/>
				<stop  offset="1" style="stop-color:#7AB0AD;stop-opacity:0.9"/>
			</linearGradient>
			<polygon class="st142" points="534.3,123.6 538.3,127.3 524.3,135.3 520.6,131.5 			"/>
			
				<linearGradient id="SVGID_91_" gradientUnits="userSpaceOnUse" x1="519.5486" y1="566" x2="538.0596" y2="566" gradientTransform="matrix(1 0 0 -1 0 704)">
				<stop  offset="0" style="stop-color:#1DB0AD"/>
				<stop  offset="1" style="stop-color:#A4B0AD;stop-opacity:0.9"/>
			</linearGradient>
			<polygon class="st143" points="538.1,130 533.1,138.2 519.5,146 524.3,137.9 			"/>
		</g>
	</g>
</g>
</svg>
