<?xml version="1.0" standalone="no"?><!DOCTYPE svg PUBLIC "-//W3C//DTD SVG 1.1//EN" "http://www.w3.org/Graphics/SVG/1.1/DTD/svg11.dtd"><svg t="1569570440034" class="icon" viewBox="0 0 1024 1024" version="1.1" xmlns="http://www.w3.org/2000/svg" p-id="1630" xmlns:xlink="http://www.w3.org/1999/xlink" width="200" height="200"><defs><style type="text/css"></style></defs><path d="M844 886c-8.8 0-15.9-7.1-15.9-15.9 0-132.4-83.6-251.8-208-297-5.8-2.1-9.8-7.4-10.4-13.5-0.6-6.1 2.5-12 7.8-15.2 63.1-37.3 102.3-105.8 102.3-178.7C719.7 251.2 626.5 158 512 158s-207.7 93.2-207.7 207.7c0 72.9 39.2 141.4 102.3 178.7 5.3 3.1 8.3 9 7.8 15.2-0.6 6.1-4.6 11.4-10.4 13.5-124.4 45.3-208 164.6-208 297 0 8.8-7.1 15.9-15.9 15.9s-15.9-7.1-15.9-15.9c0-135.6 79.7-258.8 201.1-315.4-57.8-45.1-92.7-115-92.7-189 0-132.1 107.4-239.5 239.5-239.5s239.5 107.4 239.5 239.5c0 73.9-34.9 143.9-92.7 189C780.3 611.3 860 734.5 860 870.1c-0.1 8.8-7.3 15.9-16 15.9z" fill="#54b0ad" p-id="1631"></path><path d="M512 652.9c-26 0-47.2-21.2-47.2-47.2s21.2-47.2 47.2-47.2c26 0 47.2 21.2 47.2 47.2S538 652.9 512 652.9z m0-62.5c-8.5 0-15.3 6.9-15.3 15.4s6.9 15.4 15.3 15.4c8.5 0 15.4-6.9 15.4-15.4s-6.9-15.4-15.4-15.4z" fill="#54b0ad" p-id="1632"></path><path d="M516.9 897.8c-3.7 0-7.4-1.3-10.4-3.9l-70.7-61.2c-4.4-3.8-6.4-9.8-5.1-15.5l33-149.8c1.2-5.3 5-9.7 10.2-11.5 5.1-1.9 10.8-0.9 15.1 2.4 2.5 1.8 24 17 46.9-0.1 4.4-3.3 10.1-4.1 15.1-2.2 5.1 1.9 8.8 6.2 10 11.5l32.3 149.8c1.1 5.3-0.5 10.8-4.3 14.6l-60.9 61.2c-3 3.2-7.1 4.7-11.2 4.7z m-53.1-82.9l52.3 45.3 44.3-44.5-26.1-121c-16 5.3-31.4 3.7-43.8-0.3l-26.7 120.5z" fill="#54b0ad" p-id="1634"></path></svg>